<?xml version="1.0" encoding="UTF-8" standalone="no"?>
<!DOCTYPE svg PUBLIC "-//W3C//DTD SVG 1.1//EN"
 "http://www.w3.org/Graphics/SVG/1.1/DTD/svg11.dtd">
<!-- Generated by graphviz version 2.26.3 (20100126.1600)
 -->
<!-- Title: controllers_diagram Pages: 1 -->
<svg width="417pt" height="235pt"
 viewBox="0.00 0.00 417.00 235.00" xmlns="http://www.w3.org/2000/svg" xmlns:xlink="http://www.w3.org/1999/xlink">
<g id="graph1" class="graph" transform="scale(1 1) rotate(0) translate(4 231)">
<title>controllers_diagram</title>
<polygon fill="white" stroke="white" points="-4,5 -4,-231 414,-231 414,5 -4,5"/>
<!-- _diagram_info -->
<g id="node1" class="node"><title>_diagram_info</title>
<text text-anchor="start" x="196" y="-209.4" font-family="Times,serif" font-size="14.00">Controllers diagram</text>
<text text-anchor="start" x="196" y="-193.4" font-family="Times,serif" font-size="14.00">Date: Aug 25 2011 &#45; 16:44</text>
<text text-anchor="start" x="196" y="-177.4" font-family="Times,serif" font-size="14.00">Migration version: 20110825195412</text>
<text text-anchor="start" x="196" y="-161.4" font-family="Times,serif" font-size="14.00">Generated by RailRoad 0.5.0</text>
</g>
<!-- ApplicationController -->
<g id="node2" class="node"><title>ApplicationController</title>
<polyline fill="none" stroke="black" points="13,-1.5 190,-1.5 "/>
<path fill="none" stroke="black" d="M190,-1.5C196,-1.5 202,-7.5 202,-13.5"/>
<polyline fill="none" stroke="black" points="202,-13.5 202,-101.5 "/>
<path fill="none" stroke="black" d="M202,-101.5C202,-107.5 196,-113.5 190,-113.5"/>
<polyline fill="none" stroke="black" points="190,-113.5 13,-113.5 "/>
<path fill="none" stroke="black" d="M13,-113.5C7,-113.5 1,-107.5 1,-101.5"/>
<polyline fill="none" stroke="black" points="1,-101.5 1,-13.5 "/>
<path fill="none" stroke="black" d="M1,-13.5C1,-7.5 7,-1.5 13,-1.5"/>
<text text-anchor="middle" x="101.5" y="-96.9" font-family="Times,serif" font-size="14.00">ApplicationController</text>
<polyline fill="none" stroke="black" points="1,-89.5 202,-89.5 "/>
<text text-anchor="start" x="9" y="-72.9" font-family="Times,serif" font-size="14.00">_one_time_conditions_valid_12?</text>
<polyline fill="none" stroke="black" points="1,-65.5 202,-65.5 "/>
<polyline fill="none" stroke="black" points="1,-41.5 202,-41.5 "/>
<text text-anchor="start" x="9" y="-24.9" font-family="Times,serif" font-size="14.00">_layout</text>
<text text-anchor="start" x="9" y="-8.9" font-family="Times,serif" font-size="14.00">_run_process_action_callbacks</text>
</g>
</g>
</svg>
