<?xml version="1.0" encoding="UTF-8" standalone="no"?>
<!DOCTYPE svg PUBLIC "-//W3C//DTD SVG 1.1//EN"
 "http://www.w3.org/Graphics/SVG/1.1/DTD/svg11.dtd">
<!-- Generated by graphviz version 2.28.0 (20111007.0113)
 -->
<!-- Title: models_diagram Pages: 1 -->
<svg width="914pt" height="1544pt"
 viewBox="0.00 0.00 914.00 1544.00" xmlns="http://www.w3.org/2000/svg" xmlns:xlink="http://www.w3.org/1999/xlink">
<g id="graph1" class="graph" transform="scale(1 1) rotate(0) translate(4 1540)">
<title>models_diagram</title>
<polygon fill="white" stroke="white" points="-4,5 -4,-1540 911,-1540 911,5 -4,5"/>
<!-- _diagram_info -->
<g id="node1" class="node"><title>_diagram_info</title>
<text text-anchor="start" x="229" y="-1386.4" font-family="Times,serif" font-size="14.00">Models diagram</text>
<text text-anchor="start" x="229" y="-1370.4" font-family="Times,serif" font-size="14.00">Date: Mar 16 2012 &#45; 12:47</text>
<text text-anchor="start" x="229" y="-1354.4" font-family="Times,serif" font-size="14.00">Migration version: 20120306211536</text>
<text text-anchor="start" x="229" y="-1338.4" font-family="Times,serif" font-size="14.00">Generated by RailRoad 0.5.0</text>
</g>
<!-- Count -->
<g id="node2" class="node"><title>Count</title>
<polyline fill="none" stroke="black" points="620.5,-1 729.5,-1 "/>
<path fill="none" stroke="black" d="M729.5,-1C735.5,-1 741.5,-7 741.5,-13"/>
<polyline fill="none" stroke="black" points="741.5,-13 741.5,-69 "/>
<path fill="none" stroke="black" d="M741.5,-69C741.5,-75 735.5,-81 729.5,-81"/>
<polyline fill="none" stroke="black" points="729.5,-81 620.5,-81 "/>
<path fill="none" stroke="black" d="M620.5,-81C614.5,-81 608.5,-75 608.5,-69"/>
<polyline fill="none" stroke="black" points="608.5,-69 608.5,-13 "/>
<path fill="none" stroke="black" d="M608.5,-13C608.5,-7 614.5,-1 620.5,-1"/>
<text text-anchor="middle" x="675" y="-64.4" font-family="Times,serif" font-size="14.00">Count</text>
<polyline fill="none" stroke="black" points="608.5,-57 741.5,-57 "/>
<text text-anchor="start" x="616.5" y="-40.4" font-family="Times,serif" font-size="14.00">at :datetime</text>
<text text-anchor="start" x="616.5" y="-24.4" font-family="Times,serif" font-size="14.00">created_at :datetime</text>
<text text-anchor="start" x="616.5" y="-8.4" font-family="Times,serif" font-size="14.00">updated_at :datetime</text>
</g>
<!-- CountPlan -->
<g id="node3" class="node"><title>CountPlan</title>
<polyline fill="none" stroke="black" points="391.5,-755 544.5,-755 "/>
<path fill="none" stroke="black" d="M544.5,-755C550.5,-755 556.5,-761 556.5,-767"/>
<polyline fill="none" stroke="black" points="556.5,-767 556.5,-903 "/>
<path fill="none" stroke="black" d="M556.5,-903C556.5,-909 550.5,-915 544.5,-915"/>
<polyline fill="none" stroke="black" points="544.5,-915 391.5,-915 "/>
<path fill="none" stroke="black" d="M391.5,-915C385.5,-915 379.5,-909 379.5,-903"/>
<polyline fill="none" stroke="black" points="379.5,-903 379.5,-767 "/>
<path fill="none" stroke="black" d="M379.5,-767C379.5,-761 385.5,-755 391.5,-755"/>
<text text-anchor="middle" x="468" y="-898.4" font-family="Times,serif" font-size="14.00">CountPlan</text>
<polyline fill="none" stroke="black" points="379.5,-891 556.5,-891 "/>
<text text-anchor="start" x="387.5" y="-874.4" font-family="Times,serif" font-size="14.00">start_date :date</text>
<text text-anchor="start" x="387.5" y="-858.4" font-family="Times,serif" font-size="14.00">weeks :integer</text>
<text text-anchor="start" x="387.5" y="-842.4" font-family="Times,serif" font-size="14.00">intervening_weeks :integer</text>
<text text-anchor="start" x="387.5" y="-826.4" font-family="Times,serif" font-size="14.00">days :string</text>
<text text-anchor="start" x="387.5" y="-810.4" font-family="Times,serif" font-size="14.00">hours :string</text>
<text text-anchor="start" x="387.5" y="-794.4" font-family="Times,serif" font-size="14.00">created_at :datetime</text>
<text text-anchor="start" x="387.5" y="-778.4" font-family="Times,serif" font-size="14.00">updated_at :datetime</text>
<text text-anchor="start" x="387.5" y="-762.4" font-family="Times,serif" font-size="14.00">is_the_current_plan :boolean</text>
</g>
<!-- CountPlanSegment -->
<g id="node4" class="node"><title>CountPlanSegment</title>
<polyline fill="none" stroke="black" points="359,-167 459,-167 "/>
<path fill="none" stroke="black" d="M459,-167C465,-167 471,-173 471,-179"/>
<polyline fill="none" stroke="black" points="471,-179 471,-203 "/>
<path fill="none" stroke="black" d="M471,-203C471,-209 465,-215 459,-215"/>
<polyline fill="none" stroke="black" points="459,-215 359,-215 "/>
<path fill="none" stroke="black" d="M359,-215C353,-215 347,-209 347,-203"/>
<polyline fill="none" stroke="black" points="347,-203 347,-179 "/>
<path fill="none" stroke="black" d="M347,-179C347,-173 353,-167 359,-167"/>
<text text-anchor="middle" x="409" y="-198.4" font-family="Times,serif" font-size="14.00">CountPlanSegment</text>
<polyline fill="none" stroke="black" points="347,-191 471,-191 "/>
</g>
<!-- CountPlan&#45;&gt;CountPlanSegment -->
<g id="edge6" class="edge"><title>CountPlan&#45;&gt;CountPlanSegment</title>
<path fill="none" stroke="black" d="M468.582,-744.67C467.988,-638.132 462.888,-454.982 438,-300 433.769,-273.654 425.722,-244.468 419.176,-223.084"/>
<polygon fill="black" stroke="black" points="468.582,-744.737 464.126,-754.757 468.604,-749.737 468.626,-754.737 468.626,-754.737 468.626,-754.737 468.604,-749.737 473.126,-754.718 468.582,-744.737 468.582,-744.737"/>
<ellipse fill="black" stroke="black" cx="417.941" cy="-219.113" rx="4.00001" ry="4.00001"/>
</g>
<!-- CountPlanUser -->
<g id="node5" class="node"><title>CountPlanUser</title>
<polyline fill="none" stroke="black" points="501.5,-167 578.5,-167 "/>
<path fill="none" stroke="black" d="M578.5,-167C584.5,-167 590.5,-173 590.5,-179"/>
<polyline fill="none" stroke="black" points="590.5,-179 590.5,-203 "/>
<path fill="none" stroke="black" d="M590.5,-203C590.5,-209 584.5,-215 578.5,-215"/>
<polyline fill="none" stroke="black" points="578.5,-215 501.5,-215 "/>
<path fill="none" stroke="black" d="M501.5,-215C495.5,-215 489.5,-209 489.5,-203"/>
<polyline fill="none" stroke="black" points="489.5,-203 489.5,-179 "/>
<path fill="none" stroke="black" d="M489.5,-179C489.5,-173 495.5,-167 501.5,-167"/>
<text text-anchor="middle" x="540" y="-198.4" font-family="Times,serif" font-size="14.00">CountPlanUser</text>
<polyline fill="none" stroke="black" points="489.5,-191 590.5,-191 "/>
</g>
<!-- CountPlan&#45;&gt;CountPlanUser -->
<g id="edge2" class="edge"><title>CountPlan&#45;&gt;CountPlanUser</title>
<path fill="none" stroke="black" d="M477.998,-744.849C494.33,-599.228 525.965,-317.144 536.495,-223.25"/>
<polygon fill="black" stroke="black" points="477.979,-745.019 472.393,-754.455 477.422,-749.988 476.865,-754.957 476.865,-754.957 476.865,-754.957 477.422,-749.988 481.337,-755.458 477.979,-745.019 477.979,-745.019"/>
<ellipse fill="black" stroke="black" cx="536.944" cy="-219.247" rx="4.00001" ry="4.00001"/>
</g>
<!-- Segment -->
<g id="node15" class="node"><title>Segment</title>
<polyline fill="none" stroke="black" points="291,-437 417,-437 "/>
<path fill="none" stroke="black" d="M417,-437C423,-437 429,-443 429,-449"/>
<polyline fill="none" stroke="black" points="429,-449 429,-553 "/>
<path fill="none" stroke="black" d="M429,-553C429,-559 423,-565 417,-565"/>
<polyline fill="none" stroke="black" points="417,-565 291,-565 "/>
<path fill="none" stroke="black" d="M291,-565C285,-565 279,-559 279,-553"/>
<polyline fill="none" stroke="black" points="279,-553 279,-449 "/>
<path fill="none" stroke="black" d="M279,-449C279,-443 285,-437 291,-437"/>
<text text-anchor="middle" x="354" y="-548.4" font-family="Times,serif" font-size="14.00">Segment</text>
<polyline fill="none" stroke="black" points="279,-541 429,-541 "/>
<text text-anchor="start" x="287" y="-524.4" font-family="Times,serif" font-size="14.00">created_at :datetime</text>
<text text-anchor="start" x="287" y="-508.4" font-family="Times,serif" font-size="14.00">updated_at :datetime</text>
<text text-anchor="start" x="287" y="-492.4" font-family="Times,serif" font-size="14.00">start_longitude :decimal</text>
<text text-anchor="start" x="287" y="-476.4" font-family="Times,serif" font-size="14.00">start_latitude :decimal</text>
<text text-anchor="start" x="287" y="-460.4" font-family="Times,serif" font-size="14.00">end_longitude :decimal</text>
<text text-anchor="start" x="287" y="-444.4" font-family="Times,serif" font-size="14.00">end_latitude :decimal</text>
</g>
<!-- CountPlan&#45;&gt;Segment -->
<g id="edge8" class="edge"><title>CountPlan&#45;&gt;Segment</title>
<path fill="none" stroke="black" d="M437.512,-745.211C419.202,-691.887 396.196,-624.886 378.969,-574.717"/>
<polygon fill="black" stroke="black" points="437.591,-745.442 436.583,-756.361 439.215,-750.171 440.839,-754.9 440.839,-754.9 440.839,-754.9 439.215,-750.171 445.095,-753.438 437.591,-745.442 437.591,-745.442"/>
<polygon fill="black" stroke="black" points="378.961,-574.693 379.969,-563.773 377.337,-569.964 375.713,-565.235 375.713,-565.235 375.713,-565.235 377.337,-569.964 371.457,-566.696 378.961,-574.693 378.961,-574.693"/>
</g>
<!-- User -->
<g id="node17" class="node"><title>User</title>
<polyline fill="none" stroke="black" points="566.5,-301 747.5,-301 "/>
<path fill="none" stroke="black" d="M747.5,-301C753.5,-301 759.5,-307 759.5,-313"/>
<polyline fill="none" stroke="black" points="759.5,-313 759.5,-689 "/>
<path fill="none" stroke="black" d="M759.5,-689C759.5,-695 753.5,-701 747.5,-701"/>
<polyline fill="none" stroke="black" points="747.5,-701 566.5,-701 "/>
<path fill="none" stroke="black" d="M566.5,-701C560.5,-701 554.5,-695 554.5,-689"/>
<polyline fill="none" stroke="black" points="554.5,-689 554.5,-313 "/>
<path fill="none" stroke="black" d="M554.5,-313C554.5,-307 560.5,-301 566.5,-301"/>
<text text-anchor="middle" x="657" y="-684.4" font-family="Times,serif" font-size="14.00">User</text>
<polyline fill="none" stroke="black" points="554.5,-677 759.5,-677 "/>
<text text-anchor="start" x="562.5" y="-660.4" font-family="Times,serif" font-size="14.00">first_name :string</text>
<text text-anchor="start" x="562.5" y="-644.4" font-family="Times,serif" font-size="14.00">last_name :string</text>
<text text-anchor="start" x="562.5" y="-628.4" font-family="Times,serif" font-size="14.00">email :string</text>
<text text-anchor="start" x="562.5" y="-612.4" font-family="Times,serif" font-size="14.00">phone_number :string</text>
<text text-anchor="start" x="562.5" y="-596.4" font-family="Times,serif" font-size="14.00">organization_billing :boolean</text>
<text text-anchor="start" x="562.5" y="-580.4" font-family="Times,serif" font-size="14.00">organization_manager :boolean</text>
<text text-anchor="start" x="562.5" y="-564.4" font-family="Times,serif" font-size="14.00">encrypted_password :string</text>
<text text-anchor="start" x="562.5" y="-548.4" font-family="Times,serif" font-size="14.00">invitation_token :string</text>
<text text-anchor="start" x="562.5" y="-532.4" font-family="Times,serif" font-size="14.00">invitation_sent_at :datetime</text>
<text text-anchor="start" x="562.5" y="-516.4" font-family="Times,serif" font-size="14.00">invitation_accepted_at :datetime</text>
<text text-anchor="start" x="562.5" y="-500.4" font-family="Times,serif" font-size="14.00">invitation_limit :integer</text>
<text text-anchor="start" x="562.5" y="-484.4" font-family="Times,serif" font-size="14.00">invited_by_type :string</text>
<text text-anchor="start" x="562.5" y="-468.4" font-family="Times,serif" font-size="14.00">reset_password_token :string</text>
<text text-anchor="start" x="562.5" y="-452.4" font-family="Times,serif" font-size="14.00">reset_password_sent_at :datetime</text>
<text text-anchor="start" x="562.5" y="-436.4" font-family="Times,serif" font-size="14.00">remember_created_at :datetime</text>
<text text-anchor="start" x="562.5" y="-420.4" font-family="Times,serif" font-size="14.00">current_sign_in_at :datetime</text>
<text text-anchor="start" x="562.5" y="-404.4" font-family="Times,serif" font-size="14.00">last_sign_in_at :datetime</text>
<text text-anchor="start" x="562.5" y="-388.4" font-family="Times,serif" font-size="14.00">current_sign_in_ip :string</text>
<text text-anchor="start" x="562.5" y="-372.4" font-family="Times,serif" font-size="14.00">last_sign_in_ip :string</text>
<text text-anchor="start" x="562.5" y="-356.4" font-family="Times,serif" font-size="14.00">created_at :datetime</text>
<text text-anchor="start" x="562.5" y="-340.4" font-family="Times,serif" font-size="14.00">updated_at :datetime</text>
<text text-anchor="start" x="562.5" y="-324.4" font-family="Times,serif" font-size="14.00">s3sol_admin :boolean</text>
<text text-anchor="start" x="562.5" y="-308.4" font-family="Times,serif" font-size="14.00">counting_day_credits :integer</text>
</g>
<!-- CountPlan&#45;&gt;User -->
<g id="edge4" class="edge"><title>CountPlan&#45;&gt;User</title>
<path fill="none" stroke="black" d="M517.986,-746.195C527.813,-728.931 538.473,-710.205 549.371,-691.062"/>
<polygon fill="black" stroke="black" points="517.977,-746.209 509.119,-752.673 515.504,-750.554 513.03,-754.9 513.03,-754.9 513.03,-754.9 515.504,-750.554 516.941,-757.126 517.977,-746.209 517.977,-746.209"/>
<polygon fill="black" stroke="black" points="549.445,-690.932 558.303,-684.468 551.919,-686.587 554.393,-682.241 554.393,-682.241 554.393,-682.241 551.919,-686.587 550.482,-680.015 549.445,-690.932 549.445,-690.932"/>
</g>
<!-- CountSession -->
<g id="node6" class="node"><title>CountSession</title>
<polyline fill="none" stroke="black" points="620.5,-135 729.5,-135 "/>
<path fill="none" stroke="black" d="M729.5,-135C735.5,-135 741.5,-141 741.5,-147"/>
<polyline fill="none" stroke="black" points="741.5,-147 741.5,-235 "/>
<path fill="none" stroke="black" d="M741.5,-235C741.5,-241 735.5,-247 729.5,-247"/>
<polyline fill="none" stroke="black" points="729.5,-247 620.5,-247 "/>
<path fill="none" stroke="black" d="M620.5,-247C614.5,-247 608.5,-241 608.5,-235"/>
<polyline fill="none" stroke="black" points="608.5,-235 608.5,-147 "/>
<path fill="none" stroke="black" d="M608.5,-147C608.5,-141 614.5,-135 620.5,-135"/>
<text text-anchor="middle" x="675" y="-230.4" font-family="Times,serif" font-size="14.00">CountSession</text>
<polyline fill="none" stroke="black" points="608.5,-223 741.5,-223 "/>
<text text-anchor="start" x="616.5" y="-206.4" font-family="Times,serif" font-size="14.00">start :datetime</text>
<text text-anchor="start" x="616.5" y="-190.4" font-family="Times,serif" font-size="14.00">stop :datetime</text>
<text text-anchor="start" x="616.5" y="-174.4" font-family="Times,serif" font-size="14.00">status :string</text>
<text text-anchor="start" x="616.5" y="-158.4" font-family="Times,serif" font-size="14.00">created_at :datetime</text>
<text text-anchor="start" x="616.5" y="-142.4" font-family="Times,serif" font-size="14.00">updated_at :datetime</text>
</g>
<!-- CountSession&#45;&gt;Count -->
<g id="edge10" class="edge"><title>CountSession&#45;&gt;Count</title>
<path fill="none" stroke="black" d="M675,-124.77C675,-112.886 675,-100.695 675,-89.4477"/>
<polygon fill="black" stroke="black" points="675,-124.89 670.5,-134.89 675,-129.89 675,-134.89 675,-134.89 675,-134.89 675,-129.89 679.5,-134.89 675,-124.89 675,-124.89"/>
<ellipse fill="black" stroke="black" cx="675" cy="-85.4426" rx="4" ry="4"/>
</g>
<!-- DataSource -->
<g id="node7" class="node"><title>DataSource</title>
<polyline fill="none" stroke="black" points="11.5,-1017 120.5,-1017 "/>
<path fill="none" stroke="black" d="M120.5,-1017C126.5,-1017 132.5,-1023 132.5,-1029"/>
<polyline fill="none" stroke="black" points="132.5,-1029 132.5,-1101 "/>
<path fill="none" stroke="black" d="M132.5,-1101C132.5,-1107 126.5,-1113 120.5,-1113"/>
<polyline fill="none" stroke="black" points="120.5,-1113 11.5,-1113 "/>
<path fill="none" stroke="black" d="M11.5,-1113C5.5,-1113 -0.5,-1107 -0.5,-1101"/>
<polyline fill="none" stroke="black" points="-0.5,-1101 -0.5,-1029 "/>
<path fill="none" stroke="black" d="M-0.5,-1029C-0.5,-1023 5.5,-1017 11.5,-1017"/>
<text text-anchor="middle" x="66" y="-1096.4" font-family="Times,serif" font-size="14.00">DataSource</text>
<polyline fill="none" stroke="black" points="-0.5,-1089 132.5,-1089 "/>
<text text-anchor="start" x="7.5" y="-1072.4" font-family="Times,serif" font-size="14.00">name :string</text>
<text text-anchor="start" x="7.5" y="-1056.4" font-family="Times,serif" font-size="14.00">kind :string</text>
<text text-anchor="start" x="7.5" y="-1040.4" font-family="Times,serif" font-size="14.00">created_at :datetime</text>
<text text-anchor="start" x="7.5" y="-1024.4" font-family="Times,serif" font-size="14.00">updated_at :datetime</text>
</g>
<!-- GeoPoint -->
<g id="node8" class="node"><title>GeoPoint</title>
<polyline fill="none" stroke="black" points="11.5,-779 120.5,-779 "/>
<path fill="none" stroke="black" d="M120.5,-779C126.5,-779 132.5,-785 132.5,-791"/>
<polyline fill="none" stroke="black" points="132.5,-791 132.5,-879 "/>
<path fill="none" stroke="black" d="M132.5,-879C132.5,-885 126.5,-891 120.5,-891"/>
<polyline fill="none" stroke="black" points="120.5,-891 11.5,-891 "/>
<path fill="none" stroke="black" d="M11.5,-891C5.5,-891 -0.5,-885 -0.5,-879"/>
<polyline fill="none" stroke="black" points="-0.5,-879 -0.5,-791 "/>
<path fill="none" stroke="black" d="M-0.5,-791C-0.5,-785 5.5,-779 11.5,-779"/>
<text text-anchor="middle" x="66" y="-874.4" font-family="Times,serif" font-size="14.00">GeoPoint</text>
<polyline fill="none" stroke="black" points="-0.5,-867 132.5,-867 "/>
<text text-anchor="start" x="7.5" y="-850.4" font-family="Times,serif" font-size="14.00">latitude :decimal</text>
<text text-anchor="start" x="7.5" y="-834.4" font-family="Times,serif" font-size="14.00">longitude :decimal</text>
<text text-anchor="start" x="7.5" y="-818.4" font-family="Times,serif" font-size="14.00">accuracy :decimal</text>
<text text-anchor="start" x="7.5" y="-802.4" font-family="Times,serif" font-size="14.00">created_at :datetime</text>
<text text-anchor="start" x="7.5" y="-786.4" font-family="Times,serif" font-size="14.00">updated_at :datetime</text>
</g>
<!-- DataSource&#45;&gt;GeoPoint -->
<g id="edge12" class="edge"><title>DataSource&#45;&gt;GeoPoint</title>
<path fill="none" stroke="black" d="M66,-1006.59C66,-973.999 66,-933.137 66,-899.576"/>
<polygon fill="black" stroke="black" points="66.0001,-1006.76 61.5,-1016.76 66,-1011.76 66,-1016.76 66,-1016.76 66,-1016.76 66,-1011.76 70.5,-1016.76 66.0001,-1006.76 66.0001,-1006.76"/>
<ellipse fill="black" stroke="black" cx="66" cy="-895.211" rx="4" ry="4"/>
</g>
<!-- GeoPointOnSegment -->
<g id="node9" class="node"><title>GeoPointOnSegment</title>
<polyline fill="none" stroke="black" points="54.5,-167 165.5,-167 "/>
<path fill="none" stroke="black" d="M165.5,-167C171.5,-167 177.5,-173 177.5,-179"/>
<polyline fill="none" stroke="black" points="177.5,-179 177.5,-203 "/>
<path fill="none" stroke="black" d="M177.5,-203C177.5,-209 171.5,-215 165.5,-215"/>
<polyline fill="none" stroke="black" points="165.5,-215 54.5,-215 "/>
<path fill="none" stroke="black" d="M54.5,-215C48.5,-215 42.5,-209 42.5,-203"/>
<polyline fill="none" stroke="black" points="42.5,-203 42.5,-179 "/>
<path fill="none" stroke="black" d="M42.5,-179C42.5,-173 48.5,-167 54.5,-167"/>
<text text-anchor="middle" x="110" y="-198.4" font-family="Times,serif" font-size="14.00">GeoPointOnSegment</text>
<polyline fill="none" stroke="black" points="42.5,-191 177.5,-191 "/>
</g>
<!-- GeoPoint&#45;&gt;GeoPointOnSegment -->
<g id="edge16" class="edge"><title>GeoPoint&#45;&gt;GeoPointOnSegment</title>
<path fill="none" stroke="black" d="M70.4674,-768.817C79.8006,-632.637 101.065,-322.369 107.866,-223.136"/>
<polygon fill="black" stroke="black" points="70.4543,-769.009 65.281,-778.678 70.1124,-773.998 69.7704,-778.986 69.7704,-778.986 69.7704,-778.986 70.1124,-773.998 74.2599,-779.294 70.4543,-769.009 70.4543,-769.009"/>
<ellipse fill="black" stroke="black" cx="108.15" cy="-218.997" rx="4" ry="4"/>
</g>
<!-- GeoPoint&#45;&gt;Segment -->
<g id="edge14" class="edge"><title>GeoPoint&#45;&gt;Segment</title>
<path fill="none" stroke="black" d="M120.618,-771.038C169.587,-714.587 241.369,-631.839 292.374,-573.041"/>
<polygon fill="black" stroke="black" points="120.433,-771.25 110.481,-775.856 117.157,-775.027 113.881,-778.804 113.881,-778.804 113.881,-778.804 117.157,-775.027 117.28,-781.753 120.433,-771.25 120.433,-771.25"/>
<polygon fill="black" stroke="black" points="292.562,-572.824 302.514,-568.219 295.839,-569.047 299.115,-565.27 299.115,-565.27 299.115,-565.27 295.839,-569.047 295.716,-562.321 292.562,-572.824 292.562,-572.824"/>
</g>
<!-- ModelJob -->
<g id="node10" class="node"><title>ModelJob</title>
<polyline fill="none" stroke="black" points="625,-739 751,-739 "/>
<path fill="none" stroke="black" d="M751,-739C757,-739 763,-745 763,-751"/>
<polyline fill="none" stroke="black" points="763,-751 763,-919 "/>
<path fill="none" stroke="black" d="M763,-919C763,-925 757,-931 751,-931"/>
<polyline fill="none" stroke="black" points="751,-931 625,-931 "/>
<path fill="none" stroke="black" d="M625,-931C619,-931 613,-925 613,-919"/>
<polyline fill="none" stroke="black" points="613,-919 613,-751 "/>
<path fill="none" stroke="black" d="M613,-751C613,-745 619,-739 625,-739"/>
<text text-anchor="middle" x="688" y="-914.4" font-family="Times,serif" font-size="14.00">ModelJob</text>
<polyline fill="none" stroke="black" points="613,-907 763,-907 "/>
<text text-anchor="start" x="621" y="-890.4" font-family="Times,serif" font-size="14.00">kind :string</text>
<text text-anchor="start" x="621" y="-874.4" font-family="Times,serif" font-size="14.00">parameters :text</text>
<text text-anchor="start" x="621" y="-858.4" font-family="Times,serif" font-size="14.00">output :text</text>
<text text-anchor="start" x="621" y="-842.4" font-family="Times,serif" font-size="14.00">started :boolean</text>
<text text-anchor="start" x="621" y="-826.4" font-family="Times,serif" font-size="14.00">finished :boolean</text>
<text text-anchor="start" x="621" y="-810.4" font-family="Times,serif" font-size="14.00">picked_up :boolean</text>
<text text-anchor="start" x="621" y="-794.4" font-family="Times,serif" font-size="14.00">seconds_to_run :integer</text>
<text text-anchor="start" x="621" y="-778.4" font-family="Times,serif" font-size="14.00">created_at :datetime</text>
<text text-anchor="start" x="621" y="-762.4" font-family="Times,serif" font-size="14.00">updated_at :datetime</text>
<text text-anchor="start" x="621" y="-746.4" font-family="Times,serif" font-size="14.00">project_version :integer</text>
</g>
<!-- Organization -->
<g id="node11" class="node"><title>Organization</title>
<polyline fill="none" stroke="black" points="471,-1199 827,-1199 "/>
<path fill="none" stroke="black" d="M827,-1199C833,-1199 839,-1205 839,-1211"/>
<polyline fill="none" stroke="black" points="839,-1211 839,-1523 "/>
<path fill="none" stroke="black" d="M839,-1523C839,-1529 833,-1535 827,-1535"/>
<polyline fill="none" stroke="black" points="827,-1535 471,-1535 "/>
<path fill="none" stroke="black" d="M471,-1535C465,-1535 459,-1529 459,-1523"/>
<polyline fill="none" stroke="black" points="459,-1523 459,-1211 "/>
<path fill="none" stroke="black" d="M459,-1211C459,-1205 465,-1199 471,-1199"/>
<text text-anchor="middle" x="649" y="-1518.4" font-family="Times,serif" font-size="14.00">Organization</text>
<polyline fill="none" stroke="black" points="459,-1511 839,-1511 "/>
<text text-anchor="start" x="467" y="-1494.4" font-family="Times,serif" font-size="14.00">name :string</text>
<text text-anchor="start" x="467" y="-1478.4" font-family="Times,serif" font-size="14.00">slug :string</text>
<text text-anchor="start" x="467" y="-1462.4" font-family="Times,serif" font-size="14.00">url :string</text>
<text text-anchor="start" x="467" y="-1446.4" font-family="Times,serif" font-size="14.00">address :string</text>
<text text-anchor="start" x="467" y="-1430.4" font-family="Times,serif" font-size="14.00">city :string</text>
<text text-anchor="start" x="467" y="-1414.4" font-family="Times,serif" font-size="14.00">state :string</text>
<text text-anchor="start" x="467" y="-1398.4" font-family="Times,serif" font-size="14.00">country :string</text>
<text text-anchor="start" x="467" y="-1382.4" font-family="Times,serif" font-size="14.00">postal_code :string</text>
<text text-anchor="start" x="467" y="-1366.4" font-family="Times,serif" font-size="14.00">created_at :datetime</text>
<text text-anchor="start" x="467" y="-1350.4" font-family="Times,serif" font-size="14.00">updated_at :datetime</text>
<text text-anchor="start" x="467" y="-1334.4" font-family="Times,serif" font-size="14.00">owns_pedcount :boolean</text>
<text text-anchor="start" x="467" y="-1318.4" font-family="Times,serif" font-size="14.00">owns_pedplus :boolean</text>
<text text-anchor="start" x="467" y="-1302.4" font-family="Times,serif" font-size="14.00">max_number_of_users :integer</text>
<text text-anchor="start" x="467" y="-1286.4" font-family="Times,serif" font-size="14.00">max_number_of_projects :integer</text>
<text text-anchor="start" x="467" y="-1270.4" font-family="Times,serif" font-size="14.00">time_zone :string</text>
<text text-anchor="start" x="467" y="-1254.4" font-family="Times,serif" font-size="14.00">kind :string</text>
<text text-anchor="start" x="467" y="-1238.4" font-family="Times,serif" font-size="14.00">default_max_number_of_counting_locations_per_project :integer</text>
<text text-anchor="start" x="467" y="-1222.4" font-family="Times,serif" font-size="14.00">default_number_of_counting_day_credits_per_user :integer</text>
<text text-anchor="start" x="467" y="-1206.4" font-family="Times,serif" font-size="14.00">subscription_active_until :date</text>
</g>
<!-- Project -->
<g id="node12" class="node"><title>Project</title>
<polyline fill="none" stroke="black" points="405,-969 647,-969 "/>
<path fill="none" stroke="black" d="M647,-969C653,-969 659,-975 659,-981"/>
<polyline fill="none" stroke="black" points="659,-981 659,-1149 "/>
<path fill="none" stroke="black" d="M659,-1149C659,-1155 653,-1161 647,-1161"/>
<polyline fill="none" stroke="black" points="647,-1161 405,-1161 "/>
<path fill="none" stroke="black" d="M405,-1161C399,-1161 393,-1155 393,-1149"/>
<polyline fill="none" stroke="black" points="393,-1149 393,-981 "/>
<path fill="none" stroke="black" d="M393,-981C393,-975 399,-969 405,-969"/>
<text text-anchor="middle" x="526" y="-1144.4" font-family="Times,serif" font-size="14.00">Project</text>
<polyline fill="none" stroke="black" points="393,-1137 659,-1137 "/>
<text text-anchor="start" x="401" y="-1120.4" font-family="Times,serif" font-size="14.00">name :string</text>
<text text-anchor="start" x="401" y="-1104.4" font-family="Times,serif" font-size="14.00">kind :string</text>
<text text-anchor="start" x="401" y="-1088.4" font-family="Times,serif" font-size="14.00">created_at :datetime</text>
<text text-anchor="start" x="401" y="-1072.4" font-family="Times,serif" font-size="14.00">updated_at :datetime</text>
<text text-anchor="start" x="401" y="-1056.4" font-family="Times,serif" font-size="14.00">southwest_latitude :decimal</text>
<text text-anchor="start" x="401" y="-1040.4" font-family="Times,serif" font-size="14.00">southwest_longitude :decimal</text>
<text text-anchor="start" x="401" y="-1024.4" font-family="Times,serif" font-size="14.00">northeast_latitude :decimal</text>
<text text-anchor="start" x="401" y="-1008.4" font-family="Times,serif" font-size="14.00">northeast_longitude :decimal</text>
<text text-anchor="start" x="401" y="-992.4" font-family="Times,serif" font-size="14.00">version :integer</text>
<text text-anchor="start" x="401" y="-976.4" font-family="Times,serif" font-size="14.00">max_number_of_counting_locations :integer</text>
</g>
<!-- Organization&#45;&gt;Project -->
<g id="edge20" class="edge"><title>Organization&#45;&gt;Project</title>
<path fill="none" stroke="black" d="M576.654,-1189.55C573.731,-1182.42 570.842,-1175.37 568.014,-1168.47"/>
<polygon fill="black" stroke="black" points="576.693,-1189.64 576.323,-1200.6 578.59,-1194.27 580.487,-1198.89 580.487,-1198.89 580.487,-1198.89 578.59,-1194.27 584.65,-1197.19 576.693,-1189.64 576.693,-1189.64"/>
<ellipse fill="black" stroke="black" cx="566.488" cy="-1164.75" rx="4.00002" ry="4.00002"/>
</g>
<!-- Organization&#45;&gt;User -->
<g id="edge18" class="edge"><title>Organization&#45;&gt;User</title>
<path fill="none" stroke="black" d="M723.546,-1188.99C766.98,-1062.81 806.926,-889.403 772,-738 769.311,-726.342 765.964,-714.593 762.122,-702.895"/>
<polygon fill="black" stroke="black" points="723.434,-1189.31 715.896,-1197.28 721.79,-1194.04 720.145,-1198.76 720.145,-1198.76 720.145,-1198.76 721.79,-1194.04 724.395,-1200.24 723.434,-1189.31 723.434,-1189.31"/>
<ellipse fill="black" stroke="black" cx="760.809" cy="-699.007" rx="4.00001" ry="4.00001"/>
</g>
<!-- Project&#45;&gt;CountPlan -->
<g id="edge32" class="edge"><title>Project&#45;&gt;CountPlan</title>
<path fill="none" stroke="black" d="M499.256,-958.868C496.231,-946.976 493.172,-934.954 490.214,-923.324"/>
<polygon fill="black" stroke="black" points="499.357,-959.267 497.462,-970.068 500.59,-964.113 501.823,-968.958 501.823,-968.958 501.823,-968.958 500.59,-964.113 506.184,-967.849 499.357,-959.267 499.357,-959.267"/>
<ellipse fill="black" stroke="black" cx="489.17" cy="-919.219" rx="4.00001" ry="4.00001"/>
</g>
<!-- Project&#45;&gt;CountSession -->
<g id="edge34" class="edge"><title>Project&#45;&gt;CountSession</title>
<path fill="none" stroke="black" d="M668.285,-1019.52C708.924,-999.497 748.518,-971.248 772,-932 809.824,-868.78 847.278,-510.607 768,-300 761.764,-283.433 751.75,-267.69 740.556,-253.606"/>
<polygon fill="black" stroke="black" points="668.079,-1019.62 657.115,-1019.86 663.566,-1021.77 659.053,-1023.93 659.053,-1023.93 659.053,-1023.93 663.566,-1021.77 660.99,-1027.99 668.079,-1019.62 668.079,-1019.62"/>
<ellipse fill="black" stroke="black" cx="737.879" cy="-250.345" rx="4.00002" ry="4.00002"/>
</g>
<!-- Project&#45;&gt;GeoPoint -->
<g id="edge28" class="edge"><title>Project&#45;&gt;GeoPoint</title>
<path fill="none" stroke="black" d="M382.973,-1033.57C308.178,-1013.05 217.733,-980.656 147,-932 133.258,-922.548 120.498,-910.174 109.358,-897.469"/>
<polygon fill="black" stroke="black" points="383.295,-1033.66 391.777,-1040.61 388.122,-1034.96 392.95,-1036.26 392.95,-1036.26 392.95,-1036.26 388.122,-1034.96 394.122,-1031.92 383.295,-1033.66 383.295,-1033.66"/>
<ellipse fill="black" stroke="black" cx="106.62" cy="-894.259" rx="4.00002" ry="4.00002"/>
</g>
<!-- Project&#45;&gt;GeoPointOnSegment -->
<g id="edge30" class="edge"><title>Project&#45;&gt;GeoPointOnSegment</title>
<path fill="none" stroke="black" d="M382.835,-1045.38C310.531,-1028.23 228.144,-995.288 180,-932 136.518,-874.841 115.726,-357.526 111.043,-223.561"/>
<polygon fill="black" stroke="black" points="383.218,-1045.47 391.963,-1052.09 388.092,-1046.59 392.966,-1047.7 392.966,-1047.7 392.966,-1047.7 388.092,-1046.59 393.97,-1043.31 383.218,-1045.47 383.218,-1045.47"/>
<ellipse fill="black" stroke="black" cx="110.895" cy="-219.298" rx="4" ry="4"/>
</g>
<!-- Project&#45;&gt;ModelJob -->
<g id="edge38" class="edge"><title>Project&#45;&gt;ModelJob</title>
<path fill="none" stroke="black" d="M599.368,-960.741C604.71,-953.223 610.097,-945.641 615.434,-938.129"/>
<polygon fill="black" stroke="black" points="599.322,-960.807 589.861,-966.352 596.426,-964.883 593.53,-968.958 593.53,-968.958 593.53,-968.958 596.426,-964.883 597.198,-971.565 599.322,-960.807 599.322,-960.807"/>
<ellipse fill="black" stroke="black" cx="618.003" cy="-934.515" rx="4.00002" ry="4.00002"/>
</g>
<!-- ProjectMember -->
<g id="node13" class="node"><title>ProjectMember</title>
<polyline fill="none" stroke="black" points="785.5,-119 894.5,-119 "/>
<path fill="none" stroke="black" d="M894.5,-119C900.5,-119 906.5,-125 906.5,-131"/>
<polyline fill="none" stroke="black" points="906.5,-131 906.5,-251 "/>
<path fill="none" stroke="black" d="M906.5,-251C906.5,-257 900.5,-263 894.5,-263"/>
<polyline fill="none" stroke="black" points="894.5,-263 785.5,-263 "/>
<path fill="none" stroke="black" d="M785.5,-263C779.5,-263 773.5,-257 773.5,-251"/>
<polyline fill="none" stroke="black" points="773.5,-251 773.5,-131 "/>
<path fill="none" stroke="black" d="M773.5,-131C773.5,-125 779.5,-119 785.5,-119"/>
<text text-anchor="middle" x="840" y="-246.4" font-family="Times,serif" font-size="14.00">ProjectMember</text>
<polyline fill="none" stroke="black" points="773.5,-239 906.5,-239 "/>
<text text-anchor="start" x="781.5" y="-222.4" font-family="Times,serif" font-size="14.00">view :boolean</text>
<text text-anchor="start" x="781.5" y="-206.4" font-family="Times,serif" font-size="14.00">manage :boolean</text>
<text text-anchor="start" x="781.5" y="-190.4" font-family="Times,serif" font-size="14.00">created_at :datetime</text>
<text text-anchor="start" x="781.5" y="-174.4" font-family="Times,serif" font-size="14.00">updated_at :datetime</text>
<text text-anchor="start" x="781.5" y="-158.4" font-family="Times,serif" font-size="14.00">count :boolean</text>
<text text-anchor="start" x="781.5" y="-142.4" font-family="Times,serif" font-size="14.00">map :boolean</text>
<text text-anchor="start" x="781.5" y="-126.4" font-family="Times,serif" font-size="14.00">plan :boolean</text>
</g>
<!-- Project&#45;&gt;ProjectMember -->
<g id="edge22" class="edge"><title>Project&#45;&gt;ProjectMember</title>
<path fill="none" stroke="black" d="M668.6,-1029.5C719.848,-1009.66 772.68,-978.975 804,-932 940.382,-727.449 893.179,-415.83 860.504,-271.05"/>
<polygon fill="black" stroke="black" points="668.418,-1029.57 657.475,-1028.87 663.737,-1031.32 659.055,-1033.08 659.055,-1033.08 659.055,-1033.08 663.737,-1031.32 660.635,-1037.29 668.418,-1029.57 668.418,-1029.57"/>
<ellipse fill="black" stroke="black" cx="859.559" cy="-266.919" rx="4.00001" ry="4.00001"/>
</g>
<!-- Scenario -->
<g id="node14" class="node"><title>Scenario</title>
<polyline fill="none" stroke="black" points="201.5,-795 310.5,-795 "/>
<path fill="none" stroke="black" d="M310.5,-795C316.5,-795 322.5,-801 322.5,-807"/>
<polyline fill="none" stroke="black" points="322.5,-807 322.5,-863 "/>
<path fill="none" stroke="black" d="M322.5,-863C322.5,-869 316.5,-875 310.5,-875"/>
<polyline fill="none" stroke="black" points="310.5,-875 201.5,-875 "/>
<path fill="none" stroke="black" d="M201.5,-875C195.5,-875 189.5,-869 189.5,-863"/>
<polyline fill="none" stroke="black" points="189.5,-863 189.5,-807 "/>
<path fill="none" stroke="black" d="M189.5,-807C189.5,-801 195.5,-795 201.5,-795"/>
<text text-anchor="middle" x="256" y="-858.4" font-family="Times,serif" font-size="14.00">Scenario</text>
<polyline fill="none" stroke="black" points="189.5,-851 322.5,-851 "/>
<text text-anchor="start" x="197.5" y="-834.4" font-family="Times,serif" font-size="14.00">name :string</text>
<text text-anchor="start" x="197.5" y="-818.4" font-family="Times,serif" font-size="14.00">created_at :datetime</text>
<text text-anchor="start" x="197.5" y="-802.4" font-family="Times,serif" font-size="14.00">updated_at :datetime</text>
</g>
<!-- Project&#45;&gt;Scenario -->
<g id="edge36" class="edge"><title>Project&#45;&gt;Scenario</title>
<path fill="none" stroke="black" d="M384.796,-971.552C368.175,-958.892 351.861,-945.564 337,-932 320.506,-916.945 304.246,-898.573 290.673,-881.947"/>
<polygon fill="black" stroke="black" points="384.988,-971.696 390.269,-981.307 388.982,-974.704 392.976,-977.712 392.976,-977.712 392.976,-977.712 388.982,-974.704 395.683,-974.117 384.988,-971.696 384.988,-971.696"/>
<ellipse fill="black" stroke="black" cx="287.927" cy="-878.543" rx="4.00002" ry="4.00002"/>
</g>
<!-- Project&#45;&gt;Segment -->
<g id="edge26" class="edge"><title>Project&#45;&gt;Segment</title>
<path fill="none" stroke="black" d="M388.829,-960.788C381.964,-951.689 375.9,-942.081 371,-932 341.237,-870.769 345.236,-678.783 350.01,-573.251"/>
<polygon fill="black" stroke="black" points="388.849,-960.814 391.532,-971.446 391.954,-964.733 395.059,-968.652 395.059,-968.652 395.059,-968.652 391.954,-964.733 398.586,-965.858 388.849,-960.814 388.849,-960.814"/>
<ellipse fill="black" stroke="black" cx="350.198" cy="-569.179" rx="4" ry="4"/>
</g>
<!-- Project&#45;&gt;User -->
<g id="edge24" class="edge"><title>Project&#45;&gt;User</title>
<path fill="none" stroke="black" d="M557.963,-958.907C560.445,-949.834 562.827,-940.772 565,-932 586.147,-846.633 585.697,-824.022 604,-738 605.877,-729.177 607.813,-720.174 609.783,-711.081"/>
<polygon fill="black" stroke="black" points="557.907,-959.108 550.899,-967.542 556.571,-963.927 555.235,-968.745 555.235,-968.745 555.235,-968.745 556.571,-963.927 559.572,-969.947 557.907,-959.108 557.907,-959.108"/>
<polygon fill="black" stroke="black" points="609.81,-710.957 616.331,-702.141 610.872,-706.071 611.934,-701.185 611.934,-701.185 611.934,-701.185 610.872,-706.071 607.537,-700.229 609.81,-710.957 609.81,-710.957"/>
</g>
<!-- Scenario&#45;&gt;Segment -->
<g id="edge42" class="edge"><title>Scenario&#45;&gt;Segment</title>
<path fill="none" stroke="black" d="M270.394,-785.235C286.755,-729.81 313.629,-638.768 332.481,-574.9"/>
<polygon fill="black" stroke="black" points="270.361,-785.348 263.214,-793.665 268.946,-790.144 267.53,-794.939 267.53,-794.939 267.53,-794.939 268.946,-790.144 271.846,-796.213 270.361,-785.348 270.361,-785.348"/>
<polygon fill="black" stroke="black" points="332.488,-574.879 339.635,-566.562 333.903,-570.083 335.319,-565.288 335.319,-565.288 335.319,-565.288 333.903,-570.083 331.003,-564.014 332.488,-574.879 332.488,-574.879"/>
</g>
<!-- SegmentInScenario -->
<g id="node16" class="node"><title>SegmentInScenario</title>
<polyline fill="none" stroke="black" points="207.5,-151 316.5,-151 "/>
<path fill="none" stroke="black" d="M316.5,-151C322.5,-151 328.5,-157 328.5,-163"/>
<polyline fill="none" stroke="black" points="328.5,-163 328.5,-219 "/>
<path fill="none" stroke="black" d="M328.5,-219C328.5,-225 322.5,-231 316.5,-231"/>
<polyline fill="none" stroke="black" points="316.5,-231 207.5,-231 "/>
<path fill="none" stroke="black" d="M207.5,-231C201.5,-231 195.5,-225 195.5,-219"/>
<polyline fill="none" stroke="black" points="195.5,-219 195.5,-163 "/>
<path fill="none" stroke="black" d="M195.5,-163C195.5,-157 201.5,-151 207.5,-151"/>
<text text-anchor="middle" x="262" y="-214.4" font-family="Times,serif" font-size="14.00">SegmentInScenario</text>
<polyline fill="none" stroke="black" points="195.5,-207 328.5,-207 "/>
<text text-anchor="start" x="203.5" y="-190.4" font-family="Times,serif" font-size="14.00">status :string</text>
<text text-anchor="start" x="203.5" y="-174.4" font-family="Times,serif" font-size="14.00">created_at :datetime</text>
<text text-anchor="start" x="203.5" y="-158.4" font-family="Times,serif" font-size="14.00">updated_at :datetime</text>
</g>
<!-- Scenario&#45;&gt;SegmentInScenario -->
<g id="edge40" class="edge"><title>Scenario&#45;&gt;SegmentInScenario</title>
<path fill="none" stroke="black" d="M256.462,-784.539C257.587,-664.183 260.455,-357.294 261.558,-239.255"/>
<polygon fill="black" stroke="black" points="256.46,-784.807 251.866,-794.764 256.413,-789.807 256.366,-794.806 256.366,-794.806 256.366,-794.806 256.413,-789.807 260.866,-794.849 256.46,-784.807 256.46,-784.807"/>
<ellipse fill="black" stroke="black" cx="261.597" cy="-235.087" rx="4" ry="4"/>
</g>
<!-- Segment&#45;&gt;CountPlanSegment -->
<g id="edge44" class="edge"><title>Segment&#45;&gt;CountPlanSegment</title>
<path fill="none" stroke="black" d="M367.033,-427.013C378.616,-362.151 394.985,-270.486 403.449,-223.086"/>
<polygon fill="black" stroke="black" points="367.021,-427.084 360.833,-436.137 366.142,-432.006 365.263,-436.928 365.263,-436.928 365.263,-436.928 366.142,-432.006 369.693,-437.719 367.021,-427.084 367.021,-427.084"/>
<ellipse fill="black" stroke="black" cx="404.182" cy="-218.98" rx="4.00001" ry="4.00001"/>
</g>
<!-- Segment&#45;&gt;CountSession -->
<g id="edge46" class="edge"><title>Segment&#45;&gt;CountSession</title>
<path fill="none" stroke="black" d="M415.52,-428.9C451.654,-388.992 499.284,-339.447 546,-300 567.757,-281.629 576.814,-281.85 599,-264 603.478,-260.397 608.01,-256.585 612.514,-252.671"/>
<polygon fill="black" stroke="black" points="415.144,-429.317 405.107,-433.735 411.797,-433.032 408.45,-436.747 408.45,-436.747 408.45,-436.747 411.797,-433.032 411.794,-439.759 415.144,-429.317 415.144,-429.317"/>
<ellipse fill="black" stroke="black" cx="615.629" cy="-249.926" rx="4.00002" ry="4.00002"/>
</g>
<!-- Segment&#45;&gt;GeoPointOnSegment -->
<g id="edge50" class="edge"><title>Segment&#45;&gt;GeoPointOnSegment</title>
<path fill="none" stroke="black" d="M297.513,-428.697C245.446,-362.973 170.745,-268.678 133.287,-221.395"/>
<polygon fill="black" stroke="black" points="297.824,-429.09 300.507,-439.723 300.929,-433.009 304.034,-436.928 304.034,-436.928 304.034,-436.928 300.929,-433.009 307.561,-434.134 297.824,-429.09 297.824,-429.09"/>
<ellipse fill="black" stroke="black" cx="130.739" cy="-218.178" rx="4.00002" ry="4.00002"/>
</g>
<!-- Segment&#45;&gt;SegmentInScenario -->
<g id="edge48" class="edge"><title>Segment&#45;&gt;SegmentInScenario</title>
<path fill="none" stroke="black" d="M332.282,-427.291C314.874,-369.013 290.963,-288.962 276.001,-238.874"/>
<polygon fill="black" stroke="black" points="332.298,-427.347 330.849,-438.216 333.729,-432.138 335.16,-436.928 335.16,-436.928 335.16,-436.928 333.729,-432.138 339.472,-435.64 332.298,-427.347 332.298,-427.347"/>
<ellipse fill="black" stroke="black" cx="274.824" cy="-234.933" rx="4.00001" ry="4.00001"/>
</g>
<!-- User&#45;&gt;CountPlanUser -->
<g id="edge54" class="edge"><title>User&#45;&gt;CountPlanUser</title>
<path fill="none" stroke="black" d="M577.628,-291.054C567.612,-264.689 558.536,-240.796 551.808,-223.084"/>
<polygon fill="black" stroke="black" points="577.699,-291.241 577.043,-302.187 579.474,-295.915 581.25,-300.589 581.25,-300.589 581.25,-300.589 579.474,-295.915 585.457,-298.991 577.699,-291.241 577.699,-291.241"/>
<ellipse fill="black" stroke="black" cx="550.308" cy="-219.134" rx="4.00001" ry="4.00001"/>
</g>
<!-- User&#45;&gt;CountSession -->
<g id="edge56" class="edge"><title>User&#45;&gt;CountSession</title>
<path fill="none" stroke="black" d="M669.256,-290.287C669.978,-277.937 670.667,-266.139 671.302,-255.277"/>
<polygon fill="black" stroke="black" points="669.237,-290.606 664.162,-300.327 668.946,-295.598 668.654,-300.589 668.654,-300.589 668.654,-300.589 668.946,-295.598 673.146,-300.852 669.237,-290.606 669.237,-290.606"/>
<ellipse fill="black" stroke="black" cx="671.543" cy="-251.153" rx="4" ry="4"/>
</g>
<!-- User&#45;&gt;ProjectMember -->
<g id="edge52" class="edge"><title>User&#45;&gt;ProjectMember</title>
<path fill="none" stroke="black" d="M764.882,-318.428C774.807,-301.723 784.467,-285.465 793.373,-270.476"/>
<polygon fill="black" stroke="black" points="764.842,-318.496 755.865,-324.795 762.288,-322.795 759.734,-327.093 759.734,-327.093 759.734,-327.093 762.288,-322.795 763.602,-329.392 764.842,-318.496 764.842,-318.496"/>
<ellipse fill="black" stroke="black" cx="795.639" cy="-266.662" rx="4.00002" ry="4.00002"/>
</g>
</g>
</svg>
