<?xml version="1.0" encoding="UTF-8" standalone="no"?>
<!DOCTYPE svg PUBLIC "-//W3C//DTD SVG 1.1//EN"
 "http://www.w3.org/Graphics/SVG/1.1/DTD/svg11.dtd">
<!-- Generated by graphviz version 2.28.0 (20111007.0113)
 -->
<!-- Title: models_diagram Pages: 1 -->
<svg width="836pt" height="1470pt"
 viewBox="0.00 0.00 836.00 1470.00" xmlns="http://www.w3.org/2000/svg" xmlns:xlink="http://www.w3.org/1999/xlink">
<g id="graph1" class="graph" transform="scale(1 1) rotate(0) translate(4 1466)">
<title>models_diagram</title>
<polygon fill="white" stroke="white" points="-4,5 -4,-1466 833,-1466 833,5 -4,5"/>
<!-- _diagram_info -->
<g id="node1" class="node"><title>_diagram_info</title>
<text text-anchor="start" x="149" y="-1408.4" font-family="Times,serif" font-size="14.00">Models diagram</text>
<text text-anchor="start" x="149" y="-1392.4" font-family="Times,serif" font-size="14.00">Date: Oct 08 2011 &#45; 21:08</text>
<text text-anchor="start" x="149" y="-1376.4" font-family="Times,serif" font-size="14.00">Migration version: 20111009033555</text>
<text text-anchor="start" x="149" y="-1360.4" font-family="Times,serif" font-size="14.00">Generated by RailRoad 0.5.0</text>
</g>
<!-- Count -->
<g id="node2" class="node"><title>Count</title>
<polyline fill="none" stroke="black" points="371.5,-1 480.5,-1 "/>
<path fill="none" stroke="black" d="M480.5,-1C486.5,-1 492.5,-7 492.5,-13"/>
<polyline fill="none" stroke="black" points="492.5,-13 492.5,-69 "/>
<path fill="none" stroke="black" d="M492.5,-69C492.5,-75 486.5,-81 480.5,-81"/>
<polyline fill="none" stroke="black" points="480.5,-81 371.5,-81 "/>
<path fill="none" stroke="black" d="M371.5,-81C365.5,-81 359.5,-75 359.5,-69"/>
<polyline fill="none" stroke="black" points="359.5,-69 359.5,-13 "/>
<path fill="none" stroke="black" d="M359.5,-13C359.5,-7 365.5,-1 371.5,-1"/>
<text text-anchor="middle" x="426" y="-64.4" font-family="Times,serif" font-size="14.00">Count</text>
<polyline fill="none" stroke="black" points="359.5,-57 492.5,-57 "/>
<text text-anchor="start" x="367.5" y="-40.4" font-family="Times,serif" font-size="14.00">at :datetime</text>
<text text-anchor="start" x="367.5" y="-24.4" font-family="Times,serif" font-size="14.00">created_at :datetime</text>
<text text-anchor="start" x="367.5" y="-8.4" font-family="Times,serif" font-size="14.00">updated_at :datetime</text>
</g>
<!-- CountSession -->
<g id="node3" class="node"><title>CountSession</title>
<polyline fill="none" stroke="black" points="371.5,-119 480.5,-119 "/>
<path fill="none" stroke="black" d="M480.5,-119C486.5,-119 492.5,-125 492.5,-131"/>
<polyline fill="none" stroke="black" points="492.5,-131 492.5,-235 "/>
<path fill="none" stroke="black" d="M492.5,-235C492.5,-241 486.5,-247 480.5,-247"/>
<polyline fill="none" stroke="black" points="480.5,-247 371.5,-247 "/>
<path fill="none" stroke="black" d="M371.5,-247C365.5,-247 359.5,-241 359.5,-235"/>
<polyline fill="none" stroke="black" points="359.5,-235 359.5,-131 "/>
<path fill="none" stroke="black" d="M359.5,-131C359.5,-125 365.5,-119 371.5,-119"/>
<text text-anchor="middle" x="426" y="-230.4" font-family="Times,serif" font-size="14.00">CountSession</text>
<polyline fill="none" stroke="black" points="359.5,-223 492.5,-223 "/>
<text text-anchor="start" x="367.5" y="-206.4" font-family="Times,serif" font-size="14.00">start :datetime</text>
<text text-anchor="start" x="367.5" y="-190.4" font-family="Times,serif" font-size="14.00">stop :datetime</text>
<text text-anchor="start" x="367.5" y="-174.4" font-family="Times,serif" font-size="14.00">status :string</text>
<text text-anchor="start" x="367.5" y="-158.4" font-family="Times,serif" font-size="14.00">created_at :datetime</text>
<text text-anchor="start" x="367.5" y="-142.4" font-family="Times,serif" font-size="14.00">updated_at :datetime</text>
<text text-anchor="start" x="367.5" y="-126.4" font-family="Times,serif" font-size="14.00">count_total :integer</text>
</g>
<!-- CountSession&#45;&gt;Count -->
<g id="edge2" class="edge"><title>CountSession&#45;&gt;Count</title>
<path fill="none" stroke="black" d="M426,-108.937C426,-102.322 426,-95.7431 426,-89.4377"/>
<polygon fill="black" stroke="black" points="426,-108.962 421.5,-118.962 426,-113.962 426,-118.962 426,-118.962 426,-118.962 426,-113.962 430.5,-118.962 426,-108.962 426,-108.962"/>
<ellipse fill="black" stroke="black" cx="426" cy="-85.0312" rx="4" ry="4"/>
</g>
<!-- DataSource -->
<g id="node4" class="node"><title>DataSource</title>
<polyline fill="none" stroke="black" points="11.5,-913 120.5,-913 "/>
<path fill="none" stroke="black" d="M120.5,-913C126.5,-913 132.5,-919 132.5,-925"/>
<polyline fill="none" stroke="black" points="132.5,-925 132.5,-997 "/>
<path fill="none" stroke="black" d="M132.5,-997C132.5,-1003 126.5,-1009 120.5,-1009"/>
<polyline fill="none" stroke="black" points="120.5,-1009 11.5,-1009 "/>
<path fill="none" stroke="black" d="M11.5,-1009C5.5,-1009 -0.5,-1003 -0.5,-997"/>
<polyline fill="none" stroke="black" points="-0.5,-997 -0.5,-925 "/>
<path fill="none" stroke="black" d="M-0.5,-925C-0.5,-919 5.5,-913 11.5,-913"/>
<text text-anchor="middle" x="66" y="-992.4" font-family="Times,serif" font-size="14.00">DataSource</text>
<polyline fill="none" stroke="black" points="-0.5,-985 132.5,-985 "/>
<text text-anchor="start" x="7.5" y="-968.4" font-family="Times,serif" font-size="14.00">name :string</text>
<text text-anchor="start" x="7.5" y="-952.4" font-family="Times,serif" font-size="14.00">kind :string</text>
<text text-anchor="start" x="7.5" y="-936.4" font-family="Times,serif" font-size="14.00">created_at :datetime</text>
<text text-anchor="start" x="7.5" y="-920.4" font-family="Times,serif" font-size="14.00">updated_at :datetime</text>
</g>
<!-- GeoPoint -->
<g id="node5" class="node"><title>GeoPoint</title>
<polyline fill="none" stroke="black" points="11.5,-579 120.5,-579 "/>
<path fill="none" stroke="black" d="M120.5,-579C126.5,-579 132.5,-585 132.5,-591"/>
<polyline fill="none" stroke="black" points="132.5,-591 132.5,-679 "/>
<path fill="none" stroke="black" d="M132.5,-679C132.5,-685 126.5,-691 120.5,-691"/>
<polyline fill="none" stroke="black" points="120.5,-691 11.5,-691 "/>
<path fill="none" stroke="black" d="M11.5,-691C5.5,-691 -0.5,-685 -0.5,-679"/>
<polyline fill="none" stroke="black" points="-0.5,-679 -0.5,-591 "/>
<path fill="none" stroke="black" d="M-0.5,-591C-0.5,-585 5.5,-579 11.5,-579"/>
<text text-anchor="middle" x="66" y="-674.4" font-family="Times,serif" font-size="14.00">GeoPoint</text>
<polyline fill="none" stroke="black" points="-0.5,-667 132.5,-667 "/>
<text text-anchor="start" x="7.5" y="-650.4" font-family="Times,serif" font-size="14.00">latitude :decimal</text>
<text text-anchor="start" x="7.5" y="-634.4" font-family="Times,serif" font-size="14.00">longitude :decimal</text>
<text text-anchor="start" x="7.5" y="-618.4" font-family="Times,serif" font-size="14.00">accuracy :decimal</text>
<text text-anchor="start" x="7.5" y="-602.4" font-family="Times,serif" font-size="14.00">created_at :datetime</text>
<text text-anchor="start" x="7.5" y="-586.4" font-family="Times,serif" font-size="14.00">updated_at :datetime</text>
</g>
<!-- DataSource&#45;&gt;GeoPoint -->
<g id="edge4" class="edge"><title>DataSource&#45;&gt;GeoPoint</title>
<path fill="none" stroke="black" d="M66,-902.866C66,-845.799 66,-758.288 66,-699.18"/>
<polygon fill="black" stroke="black" points="66.0001,-902.888 61.5,-912.888 66,-907.888 66,-912.888 66,-912.888 66,-912.888 66,-907.888 70.5,-912.888 66.0001,-902.888 66.0001,-902.888"/>
<ellipse fill="black" stroke="black" cx="66" cy="-695.035" rx="4" ry="4"/>
</g>
<!-- GeoPointOnSegment -->
<g id="node6" class="node"><title>GeoPointOnSegment</title>
<polyline fill="none" stroke="black" points="67.5,-159 178.5,-159 "/>
<path fill="none" stroke="black" d="M178.5,-159C184.5,-159 190.5,-165 190.5,-171"/>
<polyline fill="none" stroke="black" points="190.5,-171 190.5,-195 "/>
<path fill="none" stroke="black" d="M190.5,-195C190.5,-201 184.5,-207 178.5,-207"/>
<polyline fill="none" stroke="black" points="178.5,-207 67.5,-207 "/>
<path fill="none" stroke="black" d="M67.5,-207C61.5,-207 55.5,-201 55.5,-195"/>
<polyline fill="none" stroke="black" points="55.5,-195 55.5,-171 "/>
<path fill="none" stroke="black" d="M55.5,-171C55.5,-165 61.5,-159 67.5,-159"/>
<text text-anchor="middle" x="123" y="-190.4" font-family="Times,serif" font-size="14.00">GeoPointOnSegment</text>
<polyline fill="none" stroke="black" points="55.5,-183 190.5,-183 "/>
</g>
<!-- GeoPoint&#45;&gt;GeoPointOnSegment -->
<g id="edge8" class="edge"><title>GeoPoint&#45;&gt;GeoPointOnSegment</title>
<path fill="none" stroke="black" d="M74.2818,-568.617C86.7256,-470.377 109.771,-288.436 119.013,-215.474"/>
<polygon fill="black" stroke="black" points="74.246,-568.9 68.525,-578.256 73.6177,-573.861 72.9893,-578.821 72.9893,-578.821 72.9893,-578.821 73.6177,-573.861 77.4536,-579.387 74.246,-568.9 74.246,-568.9"/>
<ellipse fill="black" stroke="black" cx="119.568" cy="-211.097" rx="4.00001" ry="4.00001"/>
</g>
<!-- Segment -->
<g id="node12" class="node"><title>Segment</title>
<polyline fill="none" stroke="black" points="201.5,-309 310.5,-309 "/>
<path fill="none" stroke="black" d="M310.5,-309C316.5,-309 322.5,-315 322.5,-321"/>
<polyline fill="none" stroke="black" points="322.5,-321 322.5,-361 "/>
<path fill="none" stroke="black" d="M322.5,-361C322.5,-367 316.5,-373 310.5,-373"/>
<polyline fill="none" stroke="black" points="310.5,-373 201.5,-373 "/>
<path fill="none" stroke="black" d="M201.5,-373C195.5,-373 189.5,-367 189.5,-361"/>
<polyline fill="none" stroke="black" points="189.5,-361 189.5,-321 "/>
<path fill="none" stroke="black" d="M189.5,-321C189.5,-315 195.5,-309 201.5,-309"/>
<text text-anchor="middle" x="256" y="-356.4" font-family="Times,serif" font-size="14.00">Segment</text>
<polyline fill="none" stroke="black" points="189.5,-349 322.5,-349 "/>
<text text-anchor="start" x="197.5" y="-332.4" font-family="Times,serif" font-size="14.00">created_at :datetime</text>
<text text-anchor="start" x="197.5" y="-316.4" font-family="Times,serif" font-size="14.00">updated_at :datetime</text>
</g>
<!-- GeoPoint&#45;&gt;Segment -->
<g id="edge6" class="edge"><title>GeoPoint&#45;&gt;Segment</title>
<path fill="none" stroke="black" d="M101.361,-570.166C124.093,-530.28 154.909,-478.268 185,-434 197.073,-416.239 211.381,-397.342 223.979,-381.325"/>
<polygon fill="black" stroke="black" points="101.284,-570.303 92.4328,-576.777 98.8148,-574.651 96.3461,-578.999 96.3461,-578.999 96.3461,-578.999 98.8148,-574.651 100.259,-581.221 101.284,-570.303 101.284,-570.303"/>
<polygon fill="black" stroke="black" points="224.18,-381.071 233.917,-376.027 227.285,-377.151 230.39,-373.232 230.39,-373.232 230.39,-373.232 227.285,-377.151 226.862,-370.438 224.18,-381.071 224.18,-381.071"/>
</g>
<!-- ModelJob -->
<g id="node7" class="node"><title>ModelJob</title>
<polyline fill="none" stroke="black" points="429,-539 555,-539 "/>
<path fill="none" stroke="black" d="M555,-539C561,-539 567,-545 567,-551"/>
<polyline fill="none" stroke="black" points="567,-551 567,-719 "/>
<path fill="none" stroke="black" d="M567,-719C567,-725 561,-731 555,-731"/>
<polyline fill="none" stroke="black" points="555,-731 429,-731 "/>
<path fill="none" stroke="black" d="M429,-731C423,-731 417,-725 417,-719"/>
<polyline fill="none" stroke="black" points="417,-719 417,-551 "/>
<path fill="none" stroke="black" d="M417,-551C417,-545 423,-539 429,-539"/>
<text text-anchor="middle" x="492" y="-714.4" font-family="Times,serif" font-size="14.00">ModelJob</text>
<polyline fill="none" stroke="black" points="417,-707 567,-707 "/>
<text text-anchor="start" x="425" y="-690.4" font-family="Times,serif" font-size="14.00">kind :string</text>
<text text-anchor="start" x="425" y="-674.4" font-family="Times,serif" font-size="14.00">parameters :text</text>
<text text-anchor="start" x="425" y="-658.4" font-family="Times,serif" font-size="14.00">output :text</text>
<text text-anchor="start" x="425" y="-642.4" font-family="Times,serif" font-size="14.00">started :boolean</text>
<text text-anchor="start" x="425" y="-626.4" font-family="Times,serif" font-size="14.00">finished :boolean</text>
<text text-anchor="start" x="425" y="-610.4" font-family="Times,serif" font-size="14.00">picked_up :boolean</text>
<text text-anchor="start" x="425" y="-594.4" font-family="Times,serif" font-size="14.00">seconds_to_run :integer</text>
<text text-anchor="start" x="425" y="-578.4" font-family="Times,serif" font-size="14.00">created_at :datetime</text>
<text text-anchor="start" x="425" y="-562.4" font-family="Times,serif" font-size="14.00">updated_at :datetime</text>
<text text-anchor="start" x="425" y="-546.4" font-family="Times,serif" font-size="14.00">project_version :integer</text>
</g>
<!-- Organization -->
<g id="node8" class="node"><title>Organization</title>
<polyline fill="none" stroke="black" points="393.5,-1087 502.5,-1087 "/>
<path fill="none" stroke="black" d="M502.5,-1087C508.5,-1087 514.5,-1093 514.5,-1099"/>
<polyline fill="none" stroke="black" points="514.5,-1099 514.5,-1267 "/>
<path fill="none" stroke="black" d="M514.5,-1267C514.5,-1273 508.5,-1279 502.5,-1279"/>
<polyline fill="none" stroke="black" points="502.5,-1279 393.5,-1279 "/>
<path fill="none" stroke="black" d="M393.5,-1279C387.5,-1279 381.5,-1273 381.5,-1267"/>
<polyline fill="none" stroke="black" points="381.5,-1267 381.5,-1099 "/>
<path fill="none" stroke="black" d="M381.5,-1099C381.5,-1093 387.5,-1087 393.5,-1087"/>
<text text-anchor="middle" x="448" y="-1262.4" font-family="Times,serif" font-size="14.00">Organization</text>
<polyline fill="none" stroke="black" points="381.5,-1255 514.5,-1255 "/>
<text text-anchor="start" x="389.5" y="-1238.4" font-family="Times,serif" font-size="14.00">name :string</text>
<text text-anchor="start" x="389.5" y="-1222.4" font-family="Times,serif" font-size="14.00">slug :string</text>
<text text-anchor="start" x="389.5" y="-1206.4" font-family="Times,serif" font-size="14.00">url :string</text>
<text text-anchor="start" x="389.5" y="-1190.4" font-family="Times,serif" font-size="14.00">address :string</text>
<text text-anchor="start" x="389.5" y="-1174.4" font-family="Times,serif" font-size="14.00">city :string</text>
<text text-anchor="start" x="389.5" y="-1158.4" font-family="Times,serif" font-size="14.00">state :string</text>
<text text-anchor="start" x="389.5" y="-1142.4" font-family="Times,serif" font-size="14.00">country :string</text>
<text text-anchor="start" x="389.5" y="-1126.4" font-family="Times,serif" font-size="14.00">postal_code :string</text>
<text text-anchor="start" x="389.5" y="-1110.4" font-family="Times,serif" font-size="14.00">created_at :datetime</text>
<text text-anchor="start" x="389.5" y="-1094.4" font-family="Times,serif" font-size="14.00">updated_at :datetime</text>
</g>
<!-- Project -->
<g id="node9" class="node"><title>Project</title>
<polyline fill="none" stroke="black" points="310,-873 468,-873 "/>
<path fill="none" stroke="black" d="M468,-873C474,-873 480,-879 480,-885"/>
<polyline fill="none" stroke="black" points="480,-885 480,-1037 "/>
<path fill="none" stroke="black" d="M480,-1037C480,-1043 474,-1049 468,-1049"/>
<polyline fill="none" stroke="black" points="468,-1049 310,-1049 "/>
<path fill="none" stroke="black" d="M310,-1049C304,-1049 298,-1043 298,-1037"/>
<polyline fill="none" stroke="black" points="298,-1037 298,-885 "/>
<path fill="none" stroke="black" d="M298,-885C298,-879 304,-873 310,-873"/>
<text text-anchor="middle" x="389" y="-1032.4" font-family="Times,serif" font-size="14.00">Project</text>
<polyline fill="none" stroke="black" points="298,-1025 480,-1025 "/>
<text text-anchor="start" x="306" y="-1008.4" font-family="Times,serif" font-size="14.00">name :string</text>
<text text-anchor="start" x="306" y="-992.4" font-family="Times,serif" font-size="14.00">kind :string</text>
<text text-anchor="start" x="306" y="-976.4" font-family="Times,serif" font-size="14.00">created_at :datetime</text>
<text text-anchor="start" x="306" y="-960.4" font-family="Times,serif" font-size="14.00">updated_at :datetime</text>
<text text-anchor="start" x="306" y="-944.4" font-family="Times,serif" font-size="14.00">southwest_latitude :decimal</text>
<text text-anchor="start" x="306" y="-928.4" font-family="Times,serif" font-size="14.00">southwest_longitude :decimal</text>
<text text-anchor="start" x="306" y="-912.4" font-family="Times,serif" font-size="14.00">northeast_latitude :decimal</text>
<text text-anchor="start" x="306" y="-896.4" font-family="Times,serif" font-size="14.00">northeast_longitude :decimal</text>
<text text-anchor="start" x="306" y="-880.4" font-family="Times,serif" font-size="14.00">version :integer</text>
</g>
<!-- Organization&#45;&gt;Project -->
<g id="edge12" class="edge"><title>Organization&#45;&gt;Project</title>
<path fill="none" stroke="black" d="M419.853,-1077.04C418.045,-1070.3 416.231,-1063.54 414.438,-1056.85"/>
<polygon fill="black" stroke="black" points="419.875,-1077.13 418.118,-1087.95 421.17,-1081.95 422.465,-1086.78 422.465,-1086.78 422.465,-1086.78 421.17,-1081.95 426.811,-1085.62 419.875,-1077.13 419.875,-1077.13"/>
<ellipse fill="black" stroke="black" cx="413.38" cy="-1052.91" rx="4.00001" ry="4.00001"/>
</g>
<!-- User -->
<g id="node15" class="node"><title>User</title>
<polyline fill="none" stroke="black" points="635.5,-435 816.5,-435 "/>
<path fill="none" stroke="black" d="M816.5,-435C822.5,-435 828.5,-441 828.5,-447"/>
<polyline fill="none" stroke="black" points="828.5,-447 828.5,-823 "/>
<path fill="none" stroke="black" d="M828.5,-823C828.5,-829 822.5,-835 816.5,-835"/>
<polyline fill="none" stroke="black" points="816.5,-835 635.5,-835 "/>
<path fill="none" stroke="black" d="M635.5,-835C629.5,-835 623.5,-829 623.5,-823"/>
<polyline fill="none" stroke="black" points="623.5,-823 623.5,-447 "/>
<path fill="none" stroke="black" d="M623.5,-447C623.5,-441 629.5,-435 635.5,-435"/>
<text text-anchor="middle" x="726" y="-818.4" font-family="Times,serif" font-size="14.00">User</text>
<polyline fill="none" stroke="black" points="623.5,-811 828.5,-811 "/>
<text text-anchor="start" x="631.5" y="-794.4" font-family="Times,serif" font-size="14.00">first_name :string</text>
<text text-anchor="start" x="631.5" y="-778.4" font-family="Times,serif" font-size="14.00">last_name :string</text>
<text text-anchor="start" x="631.5" y="-762.4" font-family="Times,serif" font-size="14.00">email :string</text>
<text text-anchor="start" x="631.5" y="-746.4" font-family="Times,serif" font-size="14.00">phone_number :string</text>
<text text-anchor="start" x="631.5" y="-730.4" font-family="Times,serif" font-size="14.00">organization_billing :boolean</text>
<text text-anchor="start" x="631.5" y="-714.4" font-family="Times,serif" font-size="14.00">organization_manager :boolean</text>
<text text-anchor="start" x="631.5" y="-698.4" font-family="Times,serif" font-size="14.00">orgup_admin :boolean</text>
<text text-anchor="start" x="631.5" y="-682.4" font-family="Times,serif" font-size="14.00">orgup_api :boolean</text>
<text text-anchor="start" x="631.5" y="-666.4" font-family="Times,serif" font-size="14.00">encrypted_password :string</text>
<text text-anchor="start" x="631.5" y="-650.4" font-family="Times,serif" font-size="14.00">invitation_token :string</text>
<text text-anchor="start" x="631.5" y="-634.4" font-family="Times,serif" font-size="14.00">invitation_sent_at :datetime</text>
<text text-anchor="start" x="631.5" y="-618.4" font-family="Times,serif" font-size="14.00">invitation_accepted_at :datetime</text>
<text text-anchor="start" x="631.5" y="-602.4" font-family="Times,serif" font-size="14.00">invitation_limit :integer</text>
<text text-anchor="start" x="631.5" y="-586.4" font-family="Times,serif" font-size="14.00">invited_by_type :string</text>
<text text-anchor="start" x="631.5" y="-570.4" font-family="Times,serif" font-size="14.00">reset_password_token :string</text>
<text text-anchor="start" x="631.5" y="-554.4" font-family="Times,serif" font-size="14.00">reset_password_sent_at :datetime</text>
<text text-anchor="start" x="631.5" y="-538.4" font-family="Times,serif" font-size="14.00">remember_created_at :datetime</text>
<text text-anchor="start" x="631.5" y="-522.4" font-family="Times,serif" font-size="14.00">current_sign_in_at :datetime</text>
<text text-anchor="start" x="631.5" y="-506.4" font-family="Times,serif" font-size="14.00">last_sign_in_at :datetime</text>
<text text-anchor="start" x="631.5" y="-490.4" font-family="Times,serif" font-size="14.00">current_sign_in_ip :string</text>
<text text-anchor="start" x="631.5" y="-474.4" font-family="Times,serif" font-size="14.00">last_sign_in_ip :string</text>
<text text-anchor="start" x="631.5" y="-458.4" font-family="Times,serif" font-size="14.00">created_at :datetime</text>
<text text-anchor="start" x="631.5" y="-442.4" font-family="Times,serif" font-size="14.00">updated_at :datetime</text>
</g>
<!-- Organization&#45;&gt;User -->
<g id="edge10" class="edge"><title>Organization&#45;&gt;User</title>
<path fill="none" stroke="black" d="M501.051,-1077.81C534.927,-1011.27 580.013,-922.723 620.923,-842.374"/>
<polygon fill="black" stroke="black" points="500.961,-1077.98 492.414,-1084.85 498.693,-1082.44 496.424,-1086.89 496.424,-1086.89 496.424,-1086.89 498.693,-1082.44 500.434,-1088.94 500.961,-1077.98 500.961,-1077.98"/>
<ellipse fill="black" stroke="black" cx="622.801" cy="-838.687" rx="4.00002" ry="4.00002"/>
</g>
<!-- Project&#45;&gt;CountSession -->
<g id="edge24" class="edge"><title>Project&#45;&gt;CountSession</title>
<path fill="none" stroke="black" d="M391.467,-862.932C394.392,-757.344 399.915,-583.608 408,-434 411.259,-373.7 416.274,-305.311 420.184,-255.323"/>
<polygon fill="black" stroke="black" points="391.466,-862.938 386.693,-872.81 391.329,-867.936 391.192,-872.934 391.192,-872.934 391.192,-872.934 391.329,-867.936 395.69,-873.058 391.466,-862.938 391.466,-862.938"/>
<ellipse fill="black" stroke="black" cx="420.512" cy="-251.137" rx="4" ry="4"/>
</g>
<!-- Project&#45;&gt;GeoPoint -->
<g id="edge20" class="edge"><title>Project&#45;&gt;GeoPoint</title>
<path fill="none" stroke="black" d="M288.201,-927.23C240.155,-907.302 185.018,-877.549 147,-836 111.884,-797.623 91.032,-742.036 79.3011,-699.2"/>
<polygon fill="black" stroke="black" points="288.441,-927.327 296.017,-935.255 293.075,-929.206 297.708,-931.085 297.708,-931.085 297.708,-931.085 293.075,-929.206 299.399,-926.915 288.441,-927.327 288.441,-927.327"/>
<ellipse fill="black" stroke="black" cx="78.2435" cy="-695.222" rx="4.00001" ry="4.00001"/>
</g>
<!-- Project&#45;&gt;GeoPointOnSegment -->
<g id="edge22" class="edge"><title>Project&#45;&gt;GeoPointOnSegment</title>
<path fill="none" stroke="black" d="M288.704,-919.629C252.334,-899.874 214.657,-872.363 192,-836 175.358,-809.292 135.971,-342.086 125.56,-215.443"/>
<polygon fill="black" stroke="black" points="289.067,-919.82 295.814,-928.465 293.49,-922.152 297.913,-924.485 297.913,-924.485 297.913,-924.485 293.49,-922.152 300.012,-920.504 289.067,-919.82 289.067,-919.82"/>
<ellipse fill="black" stroke="black" cx="125.216" cy="-211.249" rx="4" ry="4"/>
</g>
<!-- Project&#45;&gt;ModelJob -->
<g id="edge28" class="edge"><title>Project&#45;&gt;ModelJob</title>
<path fill="none" stroke="black" d="M419.798,-863.12C432.246,-823.964 446.63,-778.718 459.267,-738.966"/>
<polygon fill="black" stroke="black" points="419.767,-863.218 412.449,-871.384 418.252,-867.983 416.738,-872.748 416.738,-872.748 416.738,-872.748 418.252,-867.983 421.026,-874.111 419.767,-863.218 419.767,-863.218"/>
<ellipse fill="black" stroke="black" cx="460.558" cy="-734.905" rx="4.00001" ry="4.00001"/>
</g>
<!-- ProjectMember -->
<g id="node10" class="node"><title>ProjectMember</title>
<polyline fill="none" stroke="black" points="549.5,-285 658.5,-285 "/>
<path fill="none" stroke="black" d="M658.5,-285C664.5,-285 670.5,-291 670.5,-297"/>
<polyline fill="none" stroke="black" points="670.5,-297 670.5,-385 "/>
<path fill="none" stroke="black" d="M670.5,-385C670.5,-391 664.5,-397 658.5,-397"/>
<polyline fill="none" stroke="black" points="658.5,-397 549.5,-397 "/>
<path fill="none" stroke="black" d="M549.5,-397C543.5,-397 537.5,-391 537.5,-385"/>
<polyline fill="none" stroke="black" points="537.5,-385 537.5,-297 "/>
<path fill="none" stroke="black" d="M537.5,-297C537.5,-291 543.5,-285 549.5,-285"/>
<text text-anchor="middle" x="604" y="-380.4" font-family="Times,serif" font-size="14.00">ProjectMember</text>
<polyline fill="none" stroke="black" points="537.5,-373 670.5,-373 "/>
<text text-anchor="start" x="545.5" y="-356.4" font-family="Times,serif" font-size="14.00">view :boolean</text>
<text text-anchor="start" x="545.5" y="-340.4" font-family="Times,serif" font-size="14.00">edit :boolean</text>
<text text-anchor="start" x="545.5" y="-324.4" font-family="Times,serif" font-size="14.00">manage :boolean</text>
<text text-anchor="start" x="545.5" y="-308.4" font-family="Times,serif" font-size="14.00">created_at :datetime</text>
<text text-anchor="start" x="545.5" y="-292.4" font-family="Times,serif" font-size="14.00">updated_at :datetime</text>
</g>
<!-- Project&#45;&gt;ProjectMember -->
<g id="edge14" class="edge"><title>Project&#45;&gt;ProjectMember</title>
<path fill="none" stroke="black" d="M489.231,-916.722C522.591,-897.093 556.245,-870.427 576,-836 617.073,-764.422 612.265,-522.012 607.31,-405.524"/>
<polygon fill="black" stroke="black" points="488.991,-916.86 478.075,-917.908 484.648,-919.338 480.305,-921.816 480.305,-921.816 480.305,-921.816 484.648,-919.338 482.536,-925.725 488.991,-916.86 488.991,-916.86"/>
<ellipse fill="black" stroke="black" cx="607.128" cy="-401.355" rx="4" ry="4"/>
</g>
<!-- Scenario -->
<g id="node11" class="node"><title>Scenario</title>
<polyline fill="none" stroke="black" points="239.5,-595 348.5,-595 "/>
<path fill="none" stroke="black" d="M348.5,-595C354.5,-595 360.5,-601 360.5,-607"/>
<polyline fill="none" stroke="black" points="360.5,-607 360.5,-663 "/>
<path fill="none" stroke="black" d="M360.5,-663C360.5,-669 354.5,-675 348.5,-675"/>
<polyline fill="none" stroke="black" points="348.5,-675 239.5,-675 "/>
<path fill="none" stroke="black" d="M239.5,-675C233.5,-675 227.5,-669 227.5,-663"/>
<polyline fill="none" stroke="black" points="227.5,-663 227.5,-607 "/>
<path fill="none" stroke="black" d="M227.5,-607C227.5,-601 233.5,-595 239.5,-595"/>
<text text-anchor="middle" x="294" y="-658.4" font-family="Times,serif" font-size="14.00">Scenario</text>
<polyline fill="none" stroke="black" points="227.5,-651 360.5,-651 "/>
<text text-anchor="start" x="235.5" y="-634.4" font-family="Times,serif" font-size="14.00">name :string</text>
<text text-anchor="start" x="235.5" y="-618.4" font-family="Times,serif" font-size="14.00">created_at :datetime</text>
<text text-anchor="start" x="235.5" y="-602.4" font-family="Times,serif" font-size="14.00">updated_at :datetime</text>
</g>
<!-- Project&#45;&gt;Scenario -->
<g id="edge26" class="edge"><title>Project&#45;&gt;Scenario</title>
<path fill="none" stroke="black" d="M360.502,-862.806C343.088,-803.415 321.594,-730.11 307.842,-683.208"/>
<polygon fill="black" stroke="black" points="360.603,-863.152 359.099,-874.014 362.01,-867.95 363.417,-872.748 363.417,-872.748 363.417,-872.748 362.01,-867.95 367.735,-871.482 360.603,-863.152 360.603,-863.152"/>
<ellipse fill="black" stroke="black" cx="306.661" cy="-679.179" rx="4.00001" ry="4.00001"/>
</g>
<!-- Project&#45;&gt;Segment -->
<g id="edge18" class="edge"><title>Project&#45;&gt;Segment</title>
<path fill="none" stroke="black" d="M289.233,-910.891C260.996,-891.688 233.697,-866.773 218,-836 177.407,-756.422 200.616,-521.626 218,-434 221.584,-415.937 228.768,-396.971 235.935,-380.983"/>
<polygon fill="black" stroke="black" points="289.262,-910.909 295.137,-920.168 293.437,-913.66 297.612,-916.41 297.612,-916.41 297.612,-916.41 293.437,-913.66 300.088,-912.653 289.262,-910.909 289.262,-910.909"/>
<ellipse fill="black" stroke="black" cx="237.761" cy="-377.023" rx="4.00002" ry="4.00002"/>
</g>
<!-- Project&#45;&gt;User -->
<g id="edge16" class="edge"><title>Project&#45;&gt;User</title>
<path fill="none" stroke="black" d="M489.353,-917.588C529.801,-897.095 574.863,-869.593 609,-836 611.437,-833.602 613.841,-831.142 616.212,-828.628"/>
<polygon fill="black" stroke="black" points="489.213,-917.658 478.256,-918.089 484.738,-919.887 480.262,-922.117 480.262,-922.117 480.262,-922.117 484.738,-919.887 482.269,-926.145 489.213,-917.658 489.213,-917.658"/>
<polygon fill="black" stroke="black" points="616.491,-828.322 626.552,-823.959 619.858,-824.626 623.225,-820.929 623.225,-820.929 623.225,-820.929 619.858,-824.626 619.898,-817.899 616.491,-828.322 616.491,-828.322"/>
</g>
<!-- Scenario&#45;&gt;Segment -->
<g id="edge32" class="edge"><title>Scenario&#45;&gt;Segment</title>
<path fill="none" stroke="black" d="M287.607,-584.872C280.245,-528.303 268.282,-436.378 261.378,-383.329"/>
<polygon fill="black" stroke="black" points="287.624,-585.006 284.452,-595.503 288.269,-589.964 288.915,-594.923 288.915,-594.923 288.915,-594.923 288.269,-589.964 293.377,-594.342 287.624,-585.006 287.624,-585.006"/>
<polygon fill="black" stroke="black" points="261.359,-383.176 264.53,-372.679 260.713,-378.218 260.068,-373.259 260.068,-373.259 260.068,-373.259 260.713,-378.218 255.606,-373.84 261.359,-383.176 261.359,-383.176"/>
</g>
<!-- SegmentInScenario -->
<g id="node13" class="node"><title>SegmentInScenario</title>
<polyline fill="none" stroke="black" points="220.5,-143 329.5,-143 "/>
<path fill="none" stroke="black" d="M329.5,-143C335.5,-143 341.5,-149 341.5,-155"/>
<polyline fill="none" stroke="black" points="341.5,-155 341.5,-211 "/>
<path fill="none" stroke="black" d="M341.5,-211C341.5,-217 335.5,-223 329.5,-223"/>
<polyline fill="none" stroke="black" points="329.5,-223 220.5,-223 "/>
<path fill="none" stroke="black" d="M220.5,-223C214.5,-223 208.5,-217 208.5,-211"/>
<polyline fill="none" stroke="black" points="208.5,-211 208.5,-155 "/>
<path fill="none" stroke="black" d="M208.5,-155C208.5,-149 214.5,-143 220.5,-143"/>
<text text-anchor="middle" x="275" y="-206.4" font-family="Times,serif" font-size="14.00">SegmentInScenario</text>
<polyline fill="none" stroke="black" points="208.5,-199 341.5,-199 "/>
<text text-anchor="start" x="216.5" y="-182.4" font-family="Times,serif" font-size="14.00">status :string</text>
<text text-anchor="start" x="216.5" y="-166.4" font-family="Times,serif" font-size="14.00">created_at :datetime</text>
<text text-anchor="start" x="216.5" y="-150.4" font-family="Times,serif" font-size="14.00">updated_at :datetime</text>
</g>
<!-- Scenario&#45;&gt;SegmentInScenario -->
<g id="edge30" class="edge"><title>Scenario&#45;&gt;SegmentInScenario</title>
<path fill="none" stroke="black" d="M309.941,-585.354C329.924,-516.992 358.423,-389.096 331,-284 326.164,-265.467 317.048,-246.733 307.553,-230.569"/>
<polygon fill="black" stroke="black" points="309.922,-585.416 302.75,-593.711 308.492,-590.207 307.062,-594.998 307.062,-594.998 307.062,-594.998 308.492,-590.207 311.374,-596.285 309.922,-585.416 309.922,-585.416"/>
<ellipse fill="black" stroke="black" cx="305.248" cy="-226.757" rx="4.00002" ry="4.00002"/>
</g>
<!-- Segment&#45;&gt;CountSession -->
<g id="edge34" class="edge"><title>Segment&#45;&gt;CountSession</title>
<path fill="none" stroke="black" d="M297.703,-301.731C314.381,-286.427 334.091,-268.34 352.995,-250.993"/>
<polygon fill="black" stroke="black" points="297.361,-302.045 286.951,-305.49 293.677,-305.425 289.993,-308.806 289.993,-308.806 289.993,-308.806 293.677,-305.425 293.036,-312.122 297.361,-302.045 297.361,-302.045"/>
<ellipse fill="black" stroke="black" cx="356.422" cy="-247.848" rx="4.00002" ry="4.00002"/>
</g>
<!-- Segment&#45;&gt;GeoPointOnSegment -->
<g id="edge38" class="edge"><title>Segment&#45;&gt;GeoPointOnSegment</title>
<path fill="none" stroke="black" d="M222.862,-301.131C199.694,-273.957 169.235,-238.23 148.075,-213.411"/>
<polygon fill="black" stroke="black" points="222.917,-301.196 225.981,-311.726 226.161,-305.001 229.405,-308.806 229.405,-308.806 229.405,-308.806 226.161,-305.001 232.83,-305.886 222.917,-301.196 222.917,-301.196"/>
<ellipse fill="black" stroke="black" cx="145.232" cy="-210.077" rx="4.00002" ry="4.00002"/>
</g>
<!-- Segment&#45;&gt;SegmentInScenario -->
<g id="edge36" class="edge"><title>Segment&#45;&gt;SegmentInScenario</title>
<path fill="none" stroke="black" d="M261.015,-298.827C263.543,-278.065 266.622,-252.785 269.247,-231.235"/>
<polygon fill="black" stroke="black" points="261.008,-298.879 255.332,-308.262 260.404,-303.843 259.799,-308.806 259.799,-308.806 259.799,-308.806 260.404,-303.843 264.266,-309.35 261.008,-298.879 261.008,-298.879"/>
<ellipse fill="black" stroke="black" cx="269.745" cy="-227.146" rx="4.00001" ry="4.00001"/>
</g>
<!-- Subscription -->
<g id="node14" class="node"><title>Subscription</title>
<polyline fill="none" stroke="black" points="391.5,-1317 504.5,-1317 "/>
<path fill="none" stroke="black" d="M504.5,-1317C510.5,-1317 516.5,-1323 516.5,-1329"/>
<polyline fill="none" stroke="black" points="516.5,-1329 516.5,-1449 "/>
<path fill="none" stroke="black" d="M516.5,-1449C516.5,-1455 510.5,-1461 504.5,-1461"/>
<polyline fill="none" stroke="black" points="504.5,-1461 391.5,-1461 "/>
<path fill="none" stroke="black" d="M391.5,-1461C385.5,-1461 379.5,-1455 379.5,-1449"/>
<polyline fill="none" stroke="black" points="379.5,-1449 379.5,-1329 "/>
<path fill="none" stroke="black" d="M379.5,-1329C379.5,-1323 385.5,-1317 391.5,-1317"/>
<text text-anchor="middle" x="448" y="-1444.4" font-family="Times,serif" font-size="14.00">Subscription</text>
<polyline fill="none" stroke="black" points="379.5,-1437 516.5,-1437 "/>
<text text-anchor="start" x="387.5" y="-1420.4" font-family="Times,serif" font-size="14.00">name :string</text>
<text text-anchor="start" x="387.5" y="-1404.4" font-family="Times,serif" font-size="14.00">uses_ped :boolean</text>
<text text-anchor="start" x="387.5" y="-1388.4" font-family="Times,serif" font-size="14.00">uses_sign :boolean</text>
<text text-anchor="start" x="387.5" y="-1372.4" font-family="Times,serif" font-size="14.00">max_users :integer</text>
<text text-anchor="start" x="387.5" y="-1356.4" font-family="Times,serif" font-size="14.00">max_projects :integer</text>
<text text-anchor="start" x="387.5" y="-1340.4" font-family="Times,serif" font-size="14.00">created_at :datetime</text>
<text text-anchor="start" x="387.5" y="-1324.4" font-family="Times,serif" font-size="14.00">updated_at :datetime</text>
</g>
<!-- Subscription&#45;&gt;Organization -->
<g id="edge40" class="edge"><title>Subscription&#45;&gt;Organization</title>
<path fill="none" stroke="black" d="M448,-1306.81C448,-1300.43 448,-1293.94 448,-1287.44"/>
<polygon fill="black" stroke="black" points="448,-1306.94 443.5,-1316.94 448,-1311.94 448,-1316.94 448,-1316.94 448,-1316.94 448,-1311.94 452.5,-1316.94 448,-1306.94 448,-1306.94"/>
<ellipse fill="black" stroke="black" cx="448" cy="-1283.21" rx="4" ry="4"/>
</g>
<!-- User&#45;&gt;CountSession -->
<g id="edge44" class="edge"><title>User&#45;&gt;CountSession</title>
<path fill="none" stroke="black" d="M733.509,-424.939C726.22,-374.632 710.257,-323.949 679,-284 636.054,-229.112 558.559,-204.275 500.612,-193.082"/>
<polygon fill="black" stroke="black" points="733.528,-425.081 730.393,-435.589 734.191,-430.037 734.853,-434.993 734.853,-434.993 734.853,-434.993 734.191,-430.037 739.314,-434.396 733.528,-425.081 733.528,-425.081"/>
<ellipse fill="black" stroke="black" cx="496.504" cy="-192.321" rx="4.00001" ry="4.00001"/>
</g>
<!-- User&#45;&gt;ProjectMember -->
<g id="edge42" class="edge"><title>User&#45;&gt;ProjectMember</title>
<path fill="none" stroke="black" d="M638.86,-425.435C635.842,-418.213 632.93,-411.243 630.162,-404.618"/>
<polygon fill="black" stroke="black" points="638.914,-425.565 638.617,-436.527 640.842,-430.178 642.769,-434.792 642.769,-434.792 642.769,-434.792 640.842,-430.178 646.921,-433.057 638.914,-425.565 638.914,-425.565"/>
<ellipse fill="black" stroke="black" cx="628.523" cy="-400.696" rx="4.00001" ry="4.00001"/>
</g>
</g>
</svg>
