<?xml version="1.0" encoding="UTF-8" standalone="no"?>
<!DOCTYPE svg PUBLIC "-//W3C//DTD SVG 1.1//EN"
 "http://www.w3.org/Graphics/SVG/1.1/DTD/svg11.dtd">
<!-- Generated by graphviz version 2.26.3 (20100126.1600)
 -->
<!-- Title: models_diagram Pages: 1 -->
<svg width="538pt" height="648pt"
 viewBox="0.00 0.00 538.00 648.00" xmlns="http://www.w3.org/2000/svg" xmlns:xlink="http://www.w3.org/1999/xlink">
<g id="graph1" class="graph" transform="scale(1 1) rotate(0) translate(4 644)">
<title>models_diagram</title>
<polygon fill="white" stroke="white" points="-4,5 -4,-644 535,-644 535,5 -4,5"/>
<!-- _diagram_info -->
<g id="node1" class="node"><title>_diagram_info</title>
<text text-anchor="start" x="8" y="-610.4" font-family="Times,serif" font-size="14.00">Models diagram</text>
<text text-anchor="start" x="8" y="-594.4" font-family="Times,serif" font-size="14.00">Date: Aug 25 2011 &#45; 16:44</text>
<text text-anchor="start" x="8" y="-578.4" font-family="Times,serif" font-size="14.00">Migration version: 20110825195412</text>
<text text-anchor="start" x="8" y="-562.4" font-family="Times,serif" font-size="14.00">Generated by RailRoad 0.5.0</text>
</g>
<!-- Count -->
<g id="node2" class="node"><title>Count</title>
<polyline fill="none" stroke="black" points="356.5,-1 465.5,-1 "/>
<path fill="none" stroke="black" d="M465.5,-1C471.5,-1 477.5,-7 477.5,-13"/>
<polyline fill="none" stroke="black" points="477.5,-13 477.5,-69 "/>
<path fill="none" stroke="black" d="M477.5,-69C477.5,-75 471.5,-81 465.5,-81"/>
<polyline fill="none" stroke="black" points="465.5,-81 356.5,-81 "/>
<path fill="none" stroke="black" d="M356.5,-81C350.5,-81 344.5,-75 344.5,-69"/>
<polyline fill="none" stroke="black" points="344.5,-69 344.5,-13 "/>
<path fill="none" stroke="black" d="M344.5,-13C344.5,-7 350.5,-1 356.5,-1"/>
<text text-anchor="middle" x="411" y="-64.4" font-family="Times,serif" font-size="14.00">Count</text>
<polyline fill="none" stroke="black" points="344.5,-57 477.5,-57 "/>
<text text-anchor="start" x="352.5" y="-40.4" font-family="Times,serif" font-size="14.00">at :datetime</text>
<text text-anchor="start" x="352.5" y="-24.4" font-family="Times,serif" font-size="14.00">created_at :datetime</text>
<text text-anchor="start" x="352.5" y="-8.4" font-family="Times,serif" font-size="14.00">updated_at :datetime</text>
</g>
<!-- CountSession -->
<g id="node3" class="node"><title>CountSession</title>
<polyline fill="none" stroke="black" points="356.5,-121 465.5,-121 "/>
<path fill="none" stroke="black" d="M465.5,-121C471.5,-121 477.5,-127 477.5,-133"/>
<polyline fill="none" stroke="black" points="477.5,-133 477.5,-221 "/>
<path fill="none" stroke="black" d="M477.5,-221C477.5,-227 471.5,-233 465.5,-233"/>
<polyline fill="none" stroke="black" points="465.5,-233 356.5,-233 "/>
<path fill="none" stroke="black" d="M356.5,-233C350.5,-233 344.5,-227 344.5,-221"/>
<polyline fill="none" stroke="black" points="344.5,-221 344.5,-133 "/>
<path fill="none" stroke="black" d="M344.5,-133C344.5,-127 350.5,-121 356.5,-121"/>
<text text-anchor="middle" x="411" y="-216.4" font-family="Times,serif" font-size="14.00">CountSession</text>
<polyline fill="none" stroke="black" points="344.5,-209 477.5,-209 "/>
<text text-anchor="start" x="352.5" y="-192.4" font-family="Times,serif" font-size="14.00">start :datetime</text>
<text text-anchor="start" x="352.5" y="-176.4" font-family="Times,serif" font-size="14.00">stop :datetime</text>
<text text-anchor="start" x="352.5" y="-160.4" font-family="Times,serif" font-size="14.00">status :string</text>
<text text-anchor="start" x="352.5" y="-144.4" font-family="Times,serif" font-size="14.00">created_at :datetime</text>
<text text-anchor="start" x="352.5" y="-128.4" font-family="Times,serif" font-size="14.00">updated_at :datetime</text>
</g>
<!-- CountSession&#45;&gt;Count -->
<g id="edge2" class="edge"><title>CountSession&#45;&gt;Count</title>
<path fill="none" stroke="black" d="M411,-110.826C411,-103.55 411,-96.2459 411,-89.2474"/>
<polygon fill="black" stroke="black" points="411,-110.898 406.5,-120.898 411,-115.898 411,-120.898 411,-120.898 411,-120.898 411,-115.898 415.5,-120.898 411,-110.898 411,-110.898"/>
<ellipse fill="black" stroke="black" cx="411" cy="-85.1922" rx="4" ry="4"/>
</g>
<!-- DataSource -->
<g id="node4" class="node"><title>DataSource</title>
<polyline fill="none" stroke="black" points="409.5,-543 518.5,-543 "/>
<path fill="none" stroke="black" d="M518.5,-543C524.5,-543 530.5,-549 530.5,-555"/>
<polyline fill="none" stroke="black" points="530.5,-555 530.5,-627 "/>
<path fill="none" stroke="black" d="M530.5,-627C530.5,-633 524.5,-639 518.5,-639"/>
<polyline fill="none" stroke="black" points="518.5,-639 409.5,-639 "/>
<path fill="none" stroke="black" d="M409.5,-639C403.5,-639 397.5,-633 397.5,-627"/>
<polyline fill="none" stroke="black" points="397.5,-627 397.5,-555 "/>
<path fill="none" stroke="black" d="M397.5,-555C397.5,-549 403.5,-543 409.5,-543"/>
<text text-anchor="middle" x="464" y="-622.4" font-family="Times,serif" font-size="14.00">DataSource</text>
<polyline fill="none" stroke="black" points="397.5,-615 530.5,-615 "/>
<text text-anchor="start" x="405.5" y="-598.4" font-family="Times,serif" font-size="14.00">name :string</text>
<text text-anchor="start" x="405.5" y="-582.4" font-family="Times,serif" font-size="14.00">kind :string</text>
<text text-anchor="start" x="405.5" y="-566.4" font-family="Times,serif" font-size="14.00">created_at :datetime</text>
<text text-anchor="start" x="405.5" y="-550.4" font-family="Times,serif" font-size="14.00">updated_at :datetime</text>
</g>
<!-- GeoPoint -->
<g id="node5" class="node"><title>GeoPoint</title>
<polyline fill="none" stroke="black" points="409.5,-391 518.5,-391 "/>
<path fill="none" stroke="black" d="M518.5,-391C524.5,-391 530.5,-397 530.5,-403"/>
<polyline fill="none" stroke="black" points="530.5,-403 530.5,-491 "/>
<path fill="none" stroke="black" d="M530.5,-491C530.5,-497 524.5,-503 518.5,-503"/>
<polyline fill="none" stroke="black" points="518.5,-503 409.5,-503 "/>
<path fill="none" stroke="black" d="M409.5,-503C403.5,-503 397.5,-497 397.5,-491"/>
<polyline fill="none" stroke="black" points="397.5,-491 397.5,-403 "/>
<path fill="none" stroke="black" d="M397.5,-403C397.5,-397 403.5,-391 409.5,-391"/>
<text text-anchor="middle" x="464" y="-486.4" font-family="Times,serif" font-size="14.00">GeoPoint</text>
<polyline fill="none" stroke="black" points="397.5,-479 530.5,-479 "/>
<text text-anchor="start" x="405.5" y="-462.4" font-family="Times,serif" font-size="14.00">latitude :decimal</text>
<text text-anchor="start" x="405.5" y="-446.4" font-family="Times,serif" font-size="14.00">longitude :decimal</text>
<text text-anchor="start" x="405.5" y="-430.4" font-family="Times,serif" font-size="14.00">accuracy :decimal</text>
<text text-anchor="start" x="405.5" y="-414.4" font-family="Times,serif" font-size="14.00">created_at :datetime</text>
<text text-anchor="start" x="405.5" y="-398.4" font-family="Times,serif" font-size="14.00">updated_at :datetime</text>
</g>
<!-- DataSource&#45;&gt;GeoPoint -->
<g id="edge4" class="edge"><title>DataSource&#45;&gt;GeoPoint</title>
<path fill="none" stroke="black" d="M464,-532.359C464,-525.435 464,-518.339 464,-511.341"/>
<polygon fill="black" stroke="black" points="464,-532.649 459.5,-542.649 464,-537.649 464,-542.649 464,-542.649 464,-542.649 464,-537.649 468.5,-542.65 464,-532.649 464,-532.649"/>
<ellipse fill="black" stroke="black" cx="464" cy="-507.187" rx="4" ry="4"/>
</g>
<!-- Segment -->
<g id="node8" class="node"><title>Segment</title>
<polyline fill="none" stroke="black" points="316.5,-273 425.5,-273 "/>
<path fill="none" stroke="black" d="M425.5,-273C431.5,-273 437.5,-279 437.5,-285"/>
<polyline fill="none" stroke="black" points="437.5,-285 437.5,-325 "/>
<path fill="none" stroke="black" d="M437.5,-325C437.5,-331 431.5,-337 425.5,-337"/>
<polyline fill="none" stroke="black" points="425.5,-337 316.5,-337 "/>
<path fill="none" stroke="black" d="M316.5,-337C310.5,-337 304.5,-331 304.5,-325"/>
<polyline fill="none" stroke="black" points="304.5,-325 304.5,-285 "/>
<path fill="none" stroke="black" d="M304.5,-285C304.5,-279 310.5,-273 316.5,-273"/>
<text text-anchor="middle" x="371" y="-320.4" font-family="Times,serif" font-size="14.00">Segment</text>
<polyline fill="none" stroke="black" points="304.5,-313 437.5,-313 "/>
<text text-anchor="start" x="312.5" y="-296.4" font-family="Times,serif" font-size="14.00">created_at :datetime</text>
<text text-anchor="start" x="312.5" y="-280.4" font-family="Times,serif" font-size="14.00">updated_at :datetime</text>
</g>
<!-- GeoPoint&#45;&gt;Segment -->
<g id="edge6" class="edge"><title>GeoPoint&#45;&gt;Segment</title>
<path fill="none" stroke="black" d="M465.6,-380.919C463.737,-372.102 460.706,-363.522 456,-356 452.663,-350.666 448.545,-345.815 443.938,-341.418"/>
<polygon fill="black" stroke="black" points="465.624,-381.061 462.794,-391.656 466.429,-385.996 467.235,-390.93 467.235,-390.93 467.235,-390.93 466.429,-385.996 471.677,-390.205 465.624,-381.061 465.624,-381.061"/>
<ellipse fill="black" stroke="black" cx="440.869" cy="-338.727" rx="4.00002" ry="4.00002"/>
<text text-anchor="middle" x="496" y="-359.4" font-family="Times,serif" font-size="14.00">segments_a</text>
</g>
<!-- GeoPoint&#45;&gt;Segment -->
<g id="edge8" class="edge"><title>GeoPoint&#45;&gt;Segment</title>
<path fill="none" stroke="black" d="M391.506,-382.356C389.15,-378.979 386.964,-375.523 385,-372 380.434,-363.812 377.353,-354.308 375.275,-345.076"/>
<polygon fill="black" stroke="black" points="391.677,-382.583 394.087,-393.281 394.681,-386.58 397.685,-390.577 397.685,-390.577 397.685,-390.577 394.681,-386.58 401.282,-387.873 391.677,-382.583 391.677,-382.583"/>
<ellipse fill="black" stroke="black" cx="374.47" cy="-340.998" rx="4.00001" ry="4.00001"/>
<text text-anchor="middle" x="418.5" y="-359.4" font-family="Times,serif" font-size="14.00">segments_b</text>
</g>
<!-- PedProject -->
<g id="node6" class="node"><title>PedProject</title>
<polyline fill="none" stroke="black" points="249.5,-551 358.5,-551 "/>
<path fill="none" stroke="black" d="M358.5,-551C364.5,-551 370.5,-557 370.5,-563"/>
<polyline fill="none" stroke="black" points="370.5,-563 370.5,-619 "/>
<path fill="none" stroke="black" d="M370.5,-619C370.5,-625 364.5,-631 358.5,-631"/>
<polyline fill="none" stroke="black" points="358.5,-631 249.5,-631 "/>
<path fill="none" stroke="black" d="M249.5,-631C243.5,-631 237.5,-625 237.5,-619"/>
<polyline fill="none" stroke="black" points="237.5,-619 237.5,-563 "/>
<path fill="none" stroke="black" d="M237.5,-563C237.5,-557 243.5,-551 249.5,-551"/>
<text text-anchor="middle" x="304" y="-614.4" font-family="Times,serif" font-size="14.00">PedProject</text>
<polyline fill="none" stroke="black" points="237.5,-607 370.5,-607 "/>
<text text-anchor="start" x="245.5" y="-590.4" font-family="Times,serif" font-size="14.00">name :string</text>
<text text-anchor="start" x="245.5" y="-574.4" font-family="Times,serif" font-size="14.00">created_at :datetime</text>
<text text-anchor="start" x="245.5" y="-558.4" font-family="Times,serif" font-size="14.00">updated_at :datetime</text>
</g>
<!-- Scenario -->
<g id="node7" class="node"><title>Scenario</title>
<polyline fill="none" stroke="black" points="206.5,-407 315.5,-407 "/>
<path fill="none" stroke="black" d="M315.5,-407C321.5,-407 327.5,-413 327.5,-419"/>
<polyline fill="none" stroke="black" points="327.5,-419 327.5,-475 "/>
<path fill="none" stroke="black" d="M327.5,-475C327.5,-481 321.5,-487 315.5,-487"/>
<polyline fill="none" stroke="black" points="315.5,-487 206.5,-487 "/>
<path fill="none" stroke="black" d="M206.5,-487C200.5,-487 194.5,-481 194.5,-475"/>
<polyline fill="none" stroke="black" points="194.5,-475 194.5,-419 "/>
<path fill="none" stroke="black" d="M194.5,-419C194.5,-413 200.5,-407 206.5,-407"/>
<text text-anchor="middle" x="261" y="-470.4" font-family="Times,serif" font-size="14.00">Scenario</text>
<polyline fill="none" stroke="black" points="194.5,-463 327.5,-463 "/>
<text text-anchor="start" x="202.5" y="-446.4" font-family="Times,serif" font-size="14.00">name :string</text>
<text text-anchor="start" x="202.5" y="-430.4" font-family="Times,serif" font-size="14.00">created_at :datetime</text>
<text text-anchor="start" x="202.5" y="-414.4" font-family="Times,serif" font-size="14.00">updated_at :datetime</text>
</g>
<!-- PedProject&#45;&gt;Scenario -->
<g id="edge12" class="edge"><title>PedProject&#45;&gt;Scenario</title>
<path fill="none" stroke="black" d="M289.158,-541.298C284.702,-526.374 279.822,-510.033 275.395,-495.208"/>
<polygon fill="black" stroke="black" points="289.161,-541.306 287.71,-552.176 290.591,-546.097 292.022,-550.888 292.022,-550.888 292.022,-550.888 290.591,-546.097 296.334,-549.6 289.161,-541.306 289.161,-541.306"/>
<ellipse fill="black" stroke="black" cx="274.133" cy="-490.979" rx="4.00001" ry="4.00001"/>
</g>
<!-- PedProject&#45;&gt;Segment -->
<g id="edge10" class="edge"><title>PedProject&#45;&gt;Segment</title>
<path fill="none" stroke="black" d="M324.009,-541.304C328.388,-529.229 332.695,-516.261 336,-504 350.605,-449.815 360.624,-385.639 366.086,-345.119"/>
<polygon fill="black" stroke="black" points="323.978,-541.389 316.281,-549.2 322.239,-546.077 320.5,-550.765 320.5,-550.765 320.5,-550.765 322.239,-546.077 324.72,-552.33 323.978,-541.389 323.978,-541.389"/>
<ellipse fill="black" stroke="black" cx="366.624" cy="-341.057" rx="4.00001" ry="4.00001"/>
</g>
<!-- Scenario&#45;&gt;Segment -->
<g id="edge16" class="edge"><title>Scenario&#45;&gt;Segment</title>
<path fill="none" stroke="black" d="M298.353,-398.781C311.847,-381.361 326.926,-361.896 339.833,-345.233"/>
<polygon fill="black" stroke="black" points="298.351,-398.783 288.67,-403.933 295.289,-402.736 292.227,-406.688 292.227,-406.688 292.227,-406.688 295.289,-402.736 295.785,-409.444 298.351,-398.783 298.351,-398.783"/>
<polygon fill="black" stroke="black" points="339.855,-345.205 349.537,-340.056 342.917,-341.252 345.979,-337.3 345.979,-337.3 345.979,-337.3 342.917,-341.252 342.422,-334.544 339.855,-345.205 339.855,-345.205"/>
</g>
<!-- SegmentInScenario -->
<g id="node9" class="node"><title>SegmentInScenario</title>
<polyline fill="none" stroke="black" points="206.5,-137 315.5,-137 "/>
<path fill="none" stroke="black" d="M315.5,-137C321.5,-137 327.5,-143 327.5,-149"/>
<polyline fill="none" stroke="black" points="327.5,-149 327.5,-205 "/>
<path fill="none" stroke="black" d="M327.5,-205C327.5,-211 321.5,-217 315.5,-217"/>
<polyline fill="none" stroke="black" points="315.5,-217 206.5,-217 "/>
<path fill="none" stroke="black" d="M206.5,-217C200.5,-217 194.5,-211 194.5,-205"/>
<polyline fill="none" stroke="black" points="194.5,-205 194.5,-149 "/>
<path fill="none" stroke="black" d="M194.5,-149C194.5,-143 200.5,-137 206.5,-137"/>
<text text-anchor="middle" x="261" y="-200.4" font-family="Times,serif" font-size="14.00">SegmentInScenario</text>
<polyline fill="none" stroke="black" points="194.5,-193 327.5,-193 "/>
<text text-anchor="start" x="202.5" y="-176.4" font-family="Times,serif" font-size="14.00">status :string</text>
<text text-anchor="start" x="202.5" y="-160.4" font-family="Times,serif" font-size="14.00">created_at :datetime</text>
<text text-anchor="start" x="202.5" y="-144.4" font-family="Times,serif" font-size="14.00">updated_at :datetime</text>
</g>
<!-- Scenario&#45;&gt;SegmentInScenario -->
<g id="edge14" class="edge"><title>Scenario&#45;&gt;SegmentInScenario</title>
<path fill="none" stroke="black" d="M261,-396.578C261,-347.605 261,-273.765 261,-225.467"/>
<polygon fill="black" stroke="black" points="261,-396.87 256.5,-406.87 261,-401.87 261,-406.87 261,-406.87 261,-406.87 261,-401.87 265.5,-406.87 261,-396.87 261,-396.87"/>
<ellipse fill="black" stroke="black" cx="261" cy="-221.35" rx="4" ry="4"/>
</g>
<!-- Segment&#45;&gt;CountSession -->
<g id="edge18" class="edge"><title>Segment&#45;&gt;CountSession</title>
<path fill="none" stroke="black" d="M384.104,-263.066C386.295,-256.057 388.611,-248.646 390.928,-241.23"/>
<polygon fill="black" stroke="black" points="384.077,-263.155 376.799,-271.358 382.585,-267.928 381.094,-272.7 381.094,-272.7 381.094,-272.7 382.585,-267.928 385.389,-274.042 384.077,-263.155 384.077,-263.155"/>
<ellipse fill="black" stroke="black" cx="392.244" cy="-237.019" rx="4.00001" ry="4.00001"/>
</g>
<!-- Segment&#45;&gt;SegmentInScenario -->
<g id="edge20" class="edge"><title>Segment&#45;&gt;SegmentInScenario</title>
<path fill="none" stroke="black" d="M336.576,-264.943C325.214,-251.721 312.483,-236.907 300.755,-223.261"/>
<polygon fill="black" stroke="black" points="336.725,-265.116 339.829,-275.633 339.984,-268.908 343.242,-272.7 343.242,-272.7 343.242,-272.7 339.984,-268.908 346.655,-269.767 336.725,-265.116 336.725,-265.116"/>
<ellipse fill="black" stroke="black" cx="298.053" cy="-220.117" rx="4.00002" ry="4.00002"/>
</g>
</g>
</svg>
