<?xml version="1.0" encoding="UTF-8" standalone="no"?>
<!DOCTYPE svg PUBLIC "-//W3C//DTD SVG 1.1//EN"
 "http://www.w3.org/Graphics/SVG/1.1/DTD/svg11.dtd">
<!-- Generated by graphviz version 2.26.3 (20100126.1600)
 -->
<!-- Title: models_diagram Pages: 1 -->
<svg width="636pt" height="626pt"
 viewBox="0.00 0.00 636.00 626.00" xmlns="http://www.w3.org/2000/svg" xmlns:xlink="http://www.w3.org/1999/xlink">
<g id="graph1" class="graph" transform="scale(1 1) rotate(0) translate(4 622)">
<title>models_diagram</title>
<polygon fill="white" stroke="white" points="-4,5 -4,-622 633,-622 633,5 -4,5"/>
<!-- _diagram_info -->
<g id="node1" class="node"><title>_diagram_info</title>
<text text-anchor="start" x="8" y="-588.4" font-family="Times,serif" font-size="14.00">Models diagram</text>
<text text-anchor="start" x="8" y="-572.4" font-family="Times,serif" font-size="14.00">Date: Sep 14 2011 &#45; 14:19</text>
<text text-anchor="start" x="8" y="-556.4" font-family="Times,serif" font-size="14.00">Migration version: 20110825195412</text>
<text text-anchor="start" x="8" y="-540.4" font-family="Times,serif" font-size="14.00">Generated by RailRoad 0.5.0</text>
</g>
<!-- Count -->
<g id="node2" class="node"><title>Count</title>
<polyline fill="none" stroke="black" points="357.5,-1 466.5,-1 "/>
<path fill="none" stroke="black" d="M466.5,-1C472.5,-1 478.5,-7 478.5,-13"/>
<polyline fill="none" stroke="black" points="478.5,-13 478.5,-69 "/>
<path fill="none" stroke="black" d="M478.5,-69C478.5,-75 472.5,-81 466.5,-81"/>
<polyline fill="none" stroke="black" points="466.5,-81 357.5,-81 "/>
<path fill="none" stroke="black" d="M357.5,-81C351.5,-81 345.5,-75 345.5,-69"/>
<polyline fill="none" stroke="black" points="345.5,-69 345.5,-13 "/>
<path fill="none" stroke="black" d="M345.5,-13C345.5,-7 351.5,-1 357.5,-1"/>
<text text-anchor="middle" x="412" y="-64.4" font-family="Times,serif" font-size="14.00">Count</text>
<polyline fill="none" stroke="black" points="345.5,-57 478.5,-57 "/>
<text text-anchor="start" x="353.5" y="-40.4" font-family="Times,serif" font-size="14.00">at :datetime</text>
<text text-anchor="start" x="353.5" y="-24.4" font-family="Times,serif" font-size="14.00">created_at :datetime</text>
<text text-anchor="start" x="353.5" y="-8.4" font-family="Times,serif" font-size="14.00">updated_at :datetime</text>
</g>
<!-- CountSession -->
<g id="node3" class="node"><title>CountSession</title>
<polyline fill="none" stroke="black" points="357.5,-119 466.5,-119 "/>
<path fill="none" stroke="black" d="M466.5,-119C472.5,-119 478.5,-125 478.5,-131"/>
<polyline fill="none" stroke="black" points="478.5,-131 478.5,-219 "/>
<path fill="none" stroke="black" d="M478.5,-219C478.5,-225 472.5,-231 466.5,-231"/>
<polyline fill="none" stroke="black" points="466.5,-231 357.5,-231 "/>
<path fill="none" stroke="black" d="M357.5,-231C351.5,-231 345.5,-225 345.5,-219"/>
<polyline fill="none" stroke="black" points="345.5,-219 345.5,-131 "/>
<path fill="none" stroke="black" d="M345.5,-131C345.5,-125 351.5,-119 357.5,-119"/>
<text text-anchor="middle" x="412" y="-214.4" font-family="Times,serif" font-size="14.00">CountSession</text>
<polyline fill="none" stroke="black" points="345.5,-207 478.5,-207 "/>
<text text-anchor="start" x="353.5" y="-190.4" font-family="Times,serif" font-size="14.00">start :datetime</text>
<text text-anchor="start" x="353.5" y="-174.4" font-family="Times,serif" font-size="14.00">stop :datetime</text>
<text text-anchor="start" x="353.5" y="-158.4" font-family="Times,serif" font-size="14.00">status :string</text>
<text text-anchor="start" x="353.5" y="-142.4" font-family="Times,serif" font-size="14.00">created_at :datetime</text>
<text text-anchor="start" x="353.5" y="-126.4" font-family="Times,serif" font-size="14.00">updated_at :datetime</text>
</g>
<!-- CountSession&#45;&gt;Count -->
<g id="edge2" class="edge"><title>CountSession&#45;&gt;Count</title>
<path fill="none" stroke="black" d="M412,-108.812C412,-102.362 412,-95.9029 412,-89.6724"/>
<polygon fill="black" stroke="black" points="412,-108.948 407.5,-118.948 412,-113.948 412,-118.948 412,-118.948 412,-118.948 412,-113.948 416.5,-118.948 412,-108.948 412,-108.948"/>
<ellipse fill="black" stroke="black" cx="412" cy="-85.3407" rx="4" ry="4"/>
</g>
<!-- DataSource -->
<g id="node4" class="node"><title>DataSource</title>
<polyline fill="none" stroke="black" points="249.5,-521 358.5,-521 "/>
<path fill="none" stroke="black" d="M358.5,-521C364.5,-521 370.5,-527 370.5,-533"/>
<polyline fill="none" stroke="black" points="370.5,-533 370.5,-605 "/>
<path fill="none" stroke="black" d="M370.5,-605C370.5,-611 364.5,-617 358.5,-617"/>
<polyline fill="none" stroke="black" points="358.5,-617 249.5,-617 "/>
<path fill="none" stroke="black" d="M249.5,-617C243.5,-617 237.5,-611 237.5,-605"/>
<polyline fill="none" stroke="black" points="237.5,-605 237.5,-533 "/>
<path fill="none" stroke="black" d="M237.5,-533C237.5,-527 243.5,-521 249.5,-521"/>
<text text-anchor="middle" x="304" y="-600.4" font-family="Times,serif" font-size="14.00">DataSource</text>
<polyline fill="none" stroke="black" points="237.5,-593 370.5,-593 "/>
<text text-anchor="start" x="245.5" y="-576.4" font-family="Times,serif" font-size="14.00">name :string</text>
<text text-anchor="start" x="245.5" y="-560.4" font-family="Times,serif" font-size="14.00">kind :string</text>
<text text-anchor="start" x="245.5" y="-544.4" font-family="Times,serif" font-size="14.00">created_at :datetime</text>
<text text-anchor="start" x="245.5" y="-528.4" font-family="Times,serif" font-size="14.00">updated_at :datetime</text>
</g>
<!-- GeoPoint -->
<g id="node5" class="node"><title>GeoPoint</title>
<polyline fill="none" stroke="black" points="249.5,-371 358.5,-371 "/>
<path fill="none" stroke="black" d="M358.5,-371C364.5,-371 370.5,-377 370.5,-383"/>
<polyline fill="none" stroke="black" points="370.5,-383 370.5,-471 "/>
<path fill="none" stroke="black" d="M370.5,-471C370.5,-477 364.5,-483 358.5,-483"/>
<polyline fill="none" stroke="black" points="358.5,-483 249.5,-483 "/>
<path fill="none" stroke="black" d="M249.5,-483C243.5,-483 237.5,-477 237.5,-471"/>
<polyline fill="none" stroke="black" points="237.5,-471 237.5,-383 "/>
<path fill="none" stroke="black" d="M237.5,-383C237.5,-377 243.5,-371 249.5,-371"/>
<text text-anchor="middle" x="304" y="-466.4" font-family="Times,serif" font-size="14.00">GeoPoint</text>
<polyline fill="none" stroke="black" points="237.5,-459 370.5,-459 "/>
<text text-anchor="start" x="245.5" y="-442.4" font-family="Times,serif" font-size="14.00">latitude :decimal</text>
<text text-anchor="start" x="245.5" y="-426.4" font-family="Times,serif" font-size="14.00">longitude :decimal</text>
<text text-anchor="start" x="245.5" y="-410.4" font-family="Times,serif" font-size="14.00">accuracy :decimal</text>
<text text-anchor="start" x="245.5" y="-394.4" font-family="Times,serif" font-size="14.00">created_at :datetime</text>
<text text-anchor="start" x="245.5" y="-378.4" font-family="Times,serif" font-size="14.00">updated_at :datetime</text>
</g>
<!-- DataSource&#45;&gt;GeoPoint -->
<g id="edge4" class="edge"><title>DataSource&#45;&gt;GeoPoint</title>
<path fill="none" stroke="black" d="M304,-510.836C304,-504.455 304,-497.932 304,-491.481"/>
<polygon fill="black" stroke="black" points="304,-510.925 299.5,-520.925 304,-515.925 304,-520.925 304,-520.925 304,-520.925 304,-515.925 308.5,-520.925 304,-510.925 304,-510.925"/>
<ellipse fill="black" stroke="black" cx="304" cy="-487.364" rx="4" ry="4"/>
</g>
<!-- GeoPointOnSegment -->
<g id="node6" class="node"><title>GeoPointOnSegment</title>
<polyline fill="none" stroke="black" points="205.5,-151 316.5,-151 "/>
<path fill="none" stroke="black" d="M316.5,-151C322.5,-151 328.5,-157 328.5,-163"/>
<polyline fill="none" stroke="black" points="328.5,-163 328.5,-187 "/>
<path fill="none" stroke="black" d="M328.5,-187C328.5,-193 322.5,-199 316.5,-199"/>
<polyline fill="none" stroke="black" points="316.5,-199 205.5,-199 "/>
<path fill="none" stroke="black" d="M205.5,-199C199.5,-199 193.5,-193 193.5,-187"/>
<polyline fill="none" stroke="black" points="193.5,-187 193.5,-163 "/>
<path fill="none" stroke="black" d="M193.5,-163C193.5,-157 199.5,-151 205.5,-151"/>
<text text-anchor="middle" x="261" y="-182.4" font-family="Times,serif" font-size="14.00">GeoPointOnSegment</text>
<polyline fill="none" stroke="black" points="193.5,-175 328.5,-175 "/>
</g>
<!-- GeoPoint&#45;&gt;GeoPointOnSegment -->
<g id="edge8" class="edge"><title>GeoPoint&#45;&gt;GeoPointOnSegment</title>
<path fill="none" stroke="black" d="M292.691,-360.726C284.259,-311.306 273.104,-245.938 266.526,-207.386"/>
<polygon fill="black" stroke="black" points="292.721,-360.902 289.968,-371.517 293.562,-365.831 294.403,-370.76 294.403,-370.76 294.403,-370.76 293.562,-365.831 298.839,-370.003 292.721,-360.902 292.721,-360.902"/>
<ellipse fill="black" stroke="black" cx="265.788" cy="-203.061" rx="4.00001" ry="4.00001"/>
</g>
<!-- Segment -->
<g id="node9" class="node"><title>Segment</title>
<polyline fill="none" stroke="black" points="357.5,-269 466.5,-269 "/>
<path fill="none" stroke="black" d="M466.5,-269C472.5,-269 478.5,-275 478.5,-281"/>
<polyline fill="none" stroke="black" points="478.5,-281 478.5,-321 "/>
<path fill="none" stroke="black" d="M478.5,-321C478.5,-327 472.5,-333 466.5,-333"/>
<polyline fill="none" stroke="black" points="466.5,-333 357.5,-333 "/>
<path fill="none" stroke="black" d="M357.5,-333C351.5,-333 345.5,-327 345.5,-321"/>
<polyline fill="none" stroke="black" points="345.5,-321 345.5,-281 "/>
<path fill="none" stroke="black" d="M345.5,-281C345.5,-275 351.5,-269 357.5,-269"/>
<text text-anchor="middle" x="412" y="-316.4" font-family="Times,serif" font-size="14.00">Segment</text>
<polyline fill="none" stroke="black" points="345.5,-309 478.5,-309 "/>
<text text-anchor="start" x="353.5" y="-292.4" font-family="Times,serif" font-size="14.00">created_at :datetime</text>
<text text-anchor="start" x="353.5" y="-276.4" font-family="Times,serif" font-size="14.00">updated_at :datetime</text>
</g>
<!-- GeoPoint&#45;&gt;Segment -->
<g id="edge6" class="edge"><title>GeoPoint&#45;&gt;Segment</title>
<path fill="none" stroke="black" d="M359.046,-362.78C365.381,-355.389 371.697,-348.02 377.645,-341.081"/>
<polygon fill="black" stroke="black" points="358.822,-363.041 348.897,-367.705 355.568,-366.837 352.314,-370.634 352.314,-370.634 352.314,-370.634 355.568,-366.837 355.731,-373.562 358.822,-363.041 358.822,-363.041"/>
<polygon fill="black" stroke="black" points="377.929,-340.749 387.854,-336.085 381.183,-336.953 384.437,-333.157 384.437,-333.157 384.437,-333.157 381.183,-336.953 381.02,-330.228 377.929,-340.749 377.929,-340.749"/>
</g>
<!-- PedProject -->
<g id="node7" class="node"><title>PedProject</title>
<polyline fill="none" stroke="black" points="425.5,-529 534.5,-529 "/>
<path fill="none" stroke="black" d="M534.5,-529C540.5,-529 546.5,-535 546.5,-541"/>
<polyline fill="none" stroke="black" points="546.5,-541 546.5,-597 "/>
<path fill="none" stroke="black" d="M546.5,-597C546.5,-603 540.5,-609 534.5,-609"/>
<polyline fill="none" stroke="black" points="534.5,-609 425.5,-609 "/>
<path fill="none" stroke="black" d="M425.5,-609C419.5,-609 413.5,-603 413.5,-597"/>
<polyline fill="none" stroke="black" points="413.5,-597 413.5,-541 "/>
<path fill="none" stroke="black" d="M413.5,-541C413.5,-535 419.5,-529 425.5,-529"/>
<text text-anchor="middle" x="480" y="-592.4" font-family="Times,serif" font-size="14.00">PedProject</text>
<polyline fill="none" stroke="black" points="413.5,-585 546.5,-585 "/>
<text text-anchor="start" x="421.5" y="-568.4" font-family="Times,serif" font-size="14.00">name :string</text>
<text text-anchor="start" x="421.5" y="-552.4" font-family="Times,serif" font-size="14.00">created_at :datetime</text>
<text text-anchor="start" x="421.5" y="-536.4" font-family="Times,serif" font-size="14.00">updated_at :datetime</text>
</g>
<!-- Scenario -->
<g id="node8" class="node"><title>Scenario</title>
<polyline fill="none" stroke="black" points="451.5,-387 560.5,-387 "/>
<path fill="none" stroke="black" d="M560.5,-387C566.5,-387 572.5,-393 572.5,-399"/>
<polyline fill="none" stroke="black" points="572.5,-399 572.5,-455 "/>
<path fill="none" stroke="black" d="M572.5,-455C572.5,-461 566.5,-467 560.5,-467"/>
<polyline fill="none" stroke="black" points="560.5,-467 451.5,-467 "/>
<path fill="none" stroke="black" d="M451.5,-467C445.5,-467 439.5,-461 439.5,-455"/>
<polyline fill="none" stroke="black" points="439.5,-455 439.5,-399 "/>
<path fill="none" stroke="black" d="M439.5,-399C439.5,-393 445.5,-387 451.5,-387"/>
<text text-anchor="middle" x="506" y="-450.4" font-family="Times,serif" font-size="14.00">Scenario</text>
<polyline fill="none" stroke="black" points="439.5,-443 572.5,-443 "/>
<text text-anchor="start" x="447.5" y="-426.4" font-family="Times,serif" font-size="14.00">name :string</text>
<text text-anchor="start" x="447.5" y="-410.4" font-family="Times,serif" font-size="14.00">created_at :datetime</text>
<text text-anchor="start" x="447.5" y="-394.4" font-family="Times,serif" font-size="14.00">updated_at :datetime</text>
</g>
<!-- PedProject&#45;&gt;Scenario -->
<g id="edge12" class="edge"><title>PedProject&#45;&gt;Scenario</title>
<path fill="none" stroke="black" d="M489.246,-518.505C491.811,-504.492 494.59,-489.315 497.134,-475.424"/>
<polygon fill="black" stroke="black" points="489.182,-518.852 482.955,-527.878 488.282,-523.77 487.381,-528.688 487.381,-528.688 487.381,-528.688 488.282,-523.77 491.807,-529.499 489.182,-518.852 489.182,-518.852"/>
<ellipse fill="black" stroke="black" cx="497.88" cy="-471.347" rx="4.00001" ry="4.00001"/>
</g>
<!-- PedProject&#45;&gt;Segment -->
<g id="edge10" class="edge"><title>PedProject&#45;&gt;Segment</title>
<path fill="none" stroke="black" d="M447.046,-519.821C440.765,-508.469 434.934,-496.147 431,-484 415.675,-436.679 411.964,-379.215 411.408,-341.457"/>
<polygon fill="black" stroke="black" points="447.164,-520.027 448.25,-530.939 449.658,-524.361 452.151,-528.695 452.151,-528.695 452.151,-528.695 449.658,-524.361 456.052,-526.451 447.164,-520.027 447.164,-520.027"/>
<ellipse fill="black" stroke="black" cx="411.369" cy="-337.241" rx="4" ry="4"/>
</g>
<!-- Scenario&#45;&gt;Segment -->
<g id="edge16" class="edge"><title>Scenario&#45;&gt;Segment</title>
<path fill="none" stroke="black" d="M469.828,-378.514C460.732,-366.321 451.063,-353.361 442.288,-341.599"/>
<polygon fill="black" stroke="black" points="470.02,-378.771 472.392,-389.477 473.01,-382.779 475.999,-386.786 475.999,-386.786 475.999,-386.786 473.01,-382.779 479.606,-384.096 470.02,-378.771 470.02,-378.771"/>
<polygon fill="black" stroke="black" points="442.057,-341.29 439.685,-330.583 439.067,-337.282 436.078,-333.274 436.078,-333.274 436.078,-333.274 439.067,-337.282 432.471,-335.965 442.057,-341.29 442.057,-341.29"/>
</g>
<!-- SegmentInScenario -->
<g id="node10" class="node"><title>SegmentInScenario</title>
<polyline fill="none" stroke="black" points="507.5,-135 616.5,-135 "/>
<path fill="none" stroke="black" d="M616.5,-135C622.5,-135 628.5,-141 628.5,-147"/>
<polyline fill="none" stroke="black" points="628.5,-147 628.5,-203 "/>
<path fill="none" stroke="black" d="M628.5,-203C628.5,-209 622.5,-215 616.5,-215"/>
<polyline fill="none" stroke="black" points="616.5,-215 507.5,-215 "/>
<path fill="none" stroke="black" d="M507.5,-215C501.5,-215 495.5,-209 495.5,-203"/>
<polyline fill="none" stroke="black" points="495.5,-203 495.5,-147 "/>
<path fill="none" stroke="black" d="M495.5,-147C495.5,-141 501.5,-135 507.5,-135"/>
<text text-anchor="middle" x="562" y="-198.4" font-family="Times,serif" font-size="14.00">SegmentInScenario</text>
<polyline fill="none" stroke="black" points="495.5,-191 628.5,-191 "/>
<text text-anchor="start" x="503.5" y="-174.4" font-family="Times,serif" font-size="14.00">status :string</text>
<text text-anchor="start" x="503.5" y="-158.4" font-family="Times,serif" font-size="14.00">created_at :datetime</text>
<text text-anchor="start" x="503.5" y="-142.4" font-family="Times,serif" font-size="14.00">updated_at :datetime</text>
</g>
<!-- Scenario&#45;&gt;SegmentInScenario -->
<g id="edge14" class="edge"><title>Scenario&#45;&gt;SegmentInScenario</title>
<path fill="none" stroke="black" d="M517.106,-377.021C527.044,-332.3 541.517,-267.173 551.322,-223.05"/>
<polygon fill="black" stroke="black" points="517.105,-377.029 510.542,-385.815 516.02,-381.91 514.935,-386.791 514.935,-386.791 514.935,-386.791 516.02,-381.91 519.328,-387.767 517.105,-377.029 517.105,-377.029"/>
<ellipse fill="black" stroke="black" cx="552.229" cy="-218.97" rx="4.00001" ry="4.00001"/>
</g>
<!-- Segment&#45;&gt;CountSession -->
<g id="edge18" class="edge"><title>Segment&#45;&gt;CountSession</title>
<path fill="none" stroke="black" d="M412,-258.774C412,-252.521 412,-245.96 412,-239.38"/>
<polygon fill="black" stroke="black" points="412,-258.879 407.5,-268.879 412,-263.879 412,-268.879 412,-268.879 412,-268.879 412,-263.879 416.5,-268.879 412,-258.879 412,-258.879"/>
<ellipse fill="black" stroke="black" cx="412" cy="-235.055" rx="4" ry="4"/>
</g>
<!-- Segment&#45;&gt;GeoPointOnSegment -->
<g id="edge22" class="edge"><title>Segment&#45;&gt;GeoPointOnSegment</title>
<path fill="none" stroke="black" d="M365.671,-262.341C343.271,-243.65 316.823,-221.581 296.118,-204.303"/>
<polygon fill="black" stroke="black" points="365.828,-262.472 370.623,-272.334 369.667,-265.675 373.506,-268.879 373.506,-268.879 373.506,-268.879 369.667,-265.675 376.389,-265.424 365.828,-262.472 365.828,-262.472"/>
<ellipse fill="black" stroke="black" cx="292.958" cy="-201.667" rx="4.00002" ry="4.00002"/>
</g>
<!-- Segment&#45;&gt;SegmentInScenario -->
<g id="edge20" class="edge"><title>Segment&#45;&gt;SegmentInScenario</title>
<path fill="none" stroke="black" d="M458.2,-262.192C473.874,-249.026 491.526,-234.198 507.767,-220.556"/>
<polygon fill="black" stroke="black" points="457.897,-262.447 447.345,-265.433 454.068,-265.663 450.239,-268.879 450.239,-268.879 450.239,-268.879 454.068,-265.663 453.134,-272.325 457.897,-262.447 457.897,-262.447"/>
<ellipse fill="black" stroke="black" cx="511.09" cy="-217.765" rx="4.00002" ry="4.00002"/>
</g>
</g>
</svg>
