<?xml version="1.0" encoding="UTF-8" standalone="no"?>
<!DOCTYPE svg PUBLIC "-//W3C//DTD SVG 1.1//EN"
 "http://www.w3.org/Graphics/SVG/1.1/DTD/svg11.dtd">
<!-- Generated by graphviz version 2.28.0 (20111007.0113)
 -->
<!-- Title: models_diagram Pages: 1 -->
<svg width="836pt" height="1454pt"
 viewBox="0.00 0.00 836.00 1454.00" xmlns="http://www.w3.org/2000/svg" xmlns:xlink="http://www.w3.org/1999/xlink">
<g id="graph1" class="graph" transform="scale(1 1) rotate(0) translate(4 1450)">
<title>models_diagram</title>
<polygon fill="white" stroke="white" points="-4,5 -4,-1450 833,-1450 833,5 -4,5"/>
<!-- _diagram_info -->
<g id="node1" class="node"><title>_diagram_info</title>
<text text-anchor="start" x="149" y="-1392.4" font-family="Times,serif" font-size="14.00">Models diagram</text>
<text text-anchor="start" x="149" y="-1376.4" font-family="Times,serif" font-size="14.00">Date: Oct 07 2011 &#45; 18:52</text>
<text text-anchor="start" x="149" y="-1360.4" font-family="Times,serif" font-size="14.00">Migration version: 20111008011257</text>
<text text-anchor="start" x="149" y="-1344.4" font-family="Times,serif" font-size="14.00">Generated by RailRoad 0.5.0</text>
</g>
<!-- Count -->
<g id="node2" class="node"><title>Count</title>
<polyline fill="none" stroke="black" points="371.5,-1 480.5,-1 "/>
<path fill="none" stroke="black" d="M480.5,-1C486.5,-1 492.5,-7 492.5,-13"/>
<polyline fill="none" stroke="black" points="492.5,-13 492.5,-69 "/>
<path fill="none" stroke="black" d="M492.5,-69C492.5,-75 486.5,-81 480.5,-81"/>
<polyline fill="none" stroke="black" points="480.5,-81 371.5,-81 "/>
<path fill="none" stroke="black" d="M371.5,-81C365.5,-81 359.5,-75 359.5,-69"/>
<polyline fill="none" stroke="black" points="359.5,-69 359.5,-13 "/>
<path fill="none" stroke="black" d="M359.5,-13C359.5,-7 365.5,-1 371.5,-1"/>
<text text-anchor="middle" x="426" y="-64.4" font-family="Times,serif" font-size="14.00">Count</text>
<polyline fill="none" stroke="black" points="359.5,-57 492.5,-57 "/>
<text text-anchor="start" x="367.5" y="-40.4" font-family="Times,serif" font-size="14.00">at :datetime</text>
<text text-anchor="start" x="367.5" y="-24.4" font-family="Times,serif" font-size="14.00">created_at :datetime</text>
<text text-anchor="start" x="367.5" y="-8.4" font-family="Times,serif" font-size="14.00">updated_at :datetime</text>
</g>
<!-- CountSession -->
<g id="node3" class="node"><title>CountSession</title>
<polyline fill="none" stroke="black" points="371.5,-119 480.5,-119 "/>
<path fill="none" stroke="black" d="M480.5,-119C486.5,-119 492.5,-125 492.5,-131"/>
<polyline fill="none" stroke="black" points="492.5,-131 492.5,-219 "/>
<path fill="none" stroke="black" d="M492.5,-219C492.5,-225 486.5,-231 480.5,-231"/>
<polyline fill="none" stroke="black" points="480.5,-231 371.5,-231 "/>
<path fill="none" stroke="black" d="M371.5,-231C365.5,-231 359.5,-225 359.5,-219"/>
<polyline fill="none" stroke="black" points="359.5,-219 359.5,-131 "/>
<path fill="none" stroke="black" d="M359.5,-131C359.5,-125 365.5,-119 371.5,-119"/>
<text text-anchor="middle" x="426" y="-214.4" font-family="Times,serif" font-size="14.00">CountSession</text>
<polyline fill="none" stroke="black" points="359.5,-207 492.5,-207 "/>
<text text-anchor="start" x="367.5" y="-190.4" font-family="Times,serif" font-size="14.00">start :datetime</text>
<text text-anchor="start" x="367.5" y="-174.4" font-family="Times,serif" font-size="14.00">stop :datetime</text>
<text text-anchor="start" x="367.5" y="-158.4" font-family="Times,serif" font-size="14.00">status :string</text>
<text text-anchor="start" x="367.5" y="-142.4" font-family="Times,serif" font-size="14.00">created_at :datetime</text>
<text text-anchor="start" x="367.5" y="-126.4" font-family="Times,serif" font-size="14.00">updated_at :datetime</text>
</g>
<!-- CountSession&#45;&gt;Count -->
<g id="edge2" class="edge"><title>CountSession&#45;&gt;Count</title>
<path fill="none" stroke="black" d="M426,-108.686C426,-102.26 426,-95.8261 426,-89.6268"/>
<polygon fill="black" stroke="black" points="426,-108.785 421.5,-118.785 426,-113.785 426,-118.785 426,-118.785 426,-118.785 426,-113.785 430.5,-118.785 426,-108.785 426,-108.785"/>
<ellipse fill="black" stroke="black" cx="426" cy="-85.3418" rx="4" ry="4"/>
</g>
<!-- DataSource -->
<g id="node4" class="node"><title>DataSource</title>
<polyline fill="none" stroke="black" points="11.5,-897 120.5,-897 "/>
<path fill="none" stroke="black" d="M120.5,-897C126.5,-897 132.5,-903 132.5,-909"/>
<polyline fill="none" stroke="black" points="132.5,-909 132.5,-981 "/>
<path fill="none" stroke="black" d="M132.5,-981C132.5,-987 126.5,-993 120.5,-993"/>
<polyline fill="none" stroke="black" points="120.5,-993 11.5,-993 "/>
<path fill="none" stroke="black" d="M11.5,-993C5.5,-993 -0.5,-987 -0.5,-981"/>
<polyline fill="none" stroke="black" points="-0.5,-981 -0.5,-909 "/>
<path fill="none" stroke="black" d="M-0.5,-909C-0.5,-903 5.5,-897 11.5,-897"/>
<text text-anchor="middle" x="66" y="-976.4" font-family="Times,serif" font-size="14.00">DataSource</text>
<polyline fill="none" stroke="black" points="-0.5,-969 132.5,-969 "/>
<text text-anchor="start" x="7.5" y="-952.4" font-family="Times,serif" font-size="14.00">name :string</text>
<text text-anchor="start" x="7.5" y="-936.4" font-family="Times,serif" font-size="14.00">kind :string</text>
<text text-anchor="start" x="7.5" y="-920.4" font-family="Times,serif" font-size="14.00">created_at :datetime</text>
<text text-anchor="start" x="7.5" y="-904.4" font-family="Times,serif" font-size="14.00">updated_at :datetime</text>
</g>
<!-- GeoPoint -->
<g id="node5" class="node"><title>GeoPoint</title>
<polyline fill="none" stroke="black" points="11.5,-563 120.5,-563 "/>
<path fill="none" stroke="black" d="M120.5,-563C126.5,-563 132.5,-569 132.5,-575"/>
<polyline fill="none" stroke="black" points="132.5,-575 132.5,-663 "/>
<path fill="none" stroke="black" d="M132.5,-663C132.5,-669 126.5,-675 120.5,-675"/>
<polyline fill="none" stroke="black" points="120.5,-675 11.5,-675 "/>
<path fill="none" stroke="black" d="M11.5,-675C5.5,-675 -0.5,-669 -0.5,-663"/>
<polyline fill="none" stroke="black" points="-0.5,-663 -0.5,-575 "/>
<path fill="none" stroke="black" d="M-0.5,-575C-0.5,-569 5.5,-563 11.5,-563"/>
<text text-anchor="middle" x="66" y="-658.4" font-family="Times,serif" font-size="14.00">GeoPoint</text>
<polyline fill="none" stroke="black" points="-0.5,-651 132.5,-651 "/>
<text text-anchor="start" x="7.5" y="-634.4" font-family="Times,serif" font-size="14.00">latitude :decimal</text>
<text text-anchor="start" x="7.5" y="-618.4" font-family="Times,serif" font-size="14.00">longitude :decimal</text>
<text text-anchor="start" x="7.5" y="-602.4" font-family="Times,serif" font-size="14.00">accuracy :decimal</text>
<text text-anchor="start" x="7.5" y="-586.4" font-family="Times,serif" font-size="14.00">created_at :datetime</text>
<text text-anchor="start" x="7.5" y="-570.4" font-family="Times,serif" font-size="14.00">updated_at :datetime</text>
</g>
<!-- DataSource&#45;&gt;GeoPoint -->
<g id="edge4" class="edge"><title>DataSource&#45;&gt;GeoPoint</title>
<path fill="none" stroke="black" d="M66,-886.866C66,-829.799 66,-742.288 66,-683.18"/>
<polygon fill="black" stroke="black" points="66.0001,-886.888 61.5,-896.888 66,-891.888 66,-896.888 66,-896.888 66,-896.888 66,-891.888 70.5,-896.888 66.0001,-886.888 66.0001,-886.888"/>
<ellipse fill="black" stroke="black" cx="66" cy="-679.035" rx="4" ry="4"/>
</g>
<!-- GeoPointOnSegment -->
<g id="node6" class="node"><title>GeoPointOnSegment</title>
<polyline fill="none" stroke="black" points="67.5,-151 178.5,-151 "/>
<path fill="none" stroke="black" d="M178.5,-151C184.5,-151 190.5,-157 190.5,-163"/>
<polyline fill="none" stroke="black" points="190.5,-163 190.5,-187 "/>
<path fill="none" stroke="black" d="M190.5,-187C190.5,-193 184.5,-199 178.5,-199"/>
<polyline fill="none" stroke="black" points="178.5,-199 67.5,-199 "/>
<path fill="none" stroke="black" d="M67.5,-199C61.5,-199 55.5,-193 55.5,-187"/>
<polyline fill="none" stroke="black" points="55.5,-187 55.5,-163 "/>
<path fill="none" stroke="black" d="M55.5,-163C55.5,-157 61.5,-151 67.5,-151"/>
<text text-anchor="middle" x="123" y="-182.4" font-family="Times,serif" font-size="14.00">GeoPointOnSegment</text>
<polyline fill="none" stroke="black" points="55.5,-175 190.5,-175 "/>
</g>
<!-- GeoPoint&#45;&gt;GeoPointOnSegment -->
<g id="edge8" class="edge"><title>GeoPoint&#45;&gt;GeoPointOnSegment</title>
<path fill="none" stroke="black" d="M74.3975,-552.883C86.8458,-456.354 109.718,-278.99 118.964,-207.296"/>
<polygon fill="black" stroke="black" points="74.3829,-552.996 68.6408,-562.338 73.7434,-557.955 73.1038,-562.914 73.1038,-562.914 73.1038,-562.914 73.7434,-557.955 77.5669,-563.49 74.3829,-552.996 74.3829,-552.996"/>
<ellipse fill="black" stroke="black" cx="119.511" cy="-203.057" rx="4.00001" ry="4.00001"/>
</g>
<!-- Segment -->
<g id="node12" class="node"><title>Segment</title>
<polyline fill="none" stroke="black" points="201.5,-293 310.5,-293 "/>
<path fill="none" stroke="black" d="M310.5,-293C316.5,-293 322.5,-299 322.5,-305"/>
<polyline fill="none" stroke="black" points="322.5,-305 322.5,-345 "/>
<path fill="none" stroke="black" d="M322.5,-345C322.5,-351 316.5,-357 310.5,-357"/>
<polyline fill="none" stroke="black" points="310.5,-357 201.5,-357 "/>
<path fill="none" stroke="black" d="M201.5,-357C195.5,-357 189.5,-351 189.5,-345"/>
<polyline fill="none" stroke="black" points="189.5,-345 189.5,-305 "/>
<path fill="none" stroke="black" d="M189.5,-305C189.5,-299 195.5,-293 201.5,-293"/>
<text text-anchor="middle" x="256" y="-340.4" font-family="Times,serif" font-size="14.00">Segment</text>
<polyline fill="none" stroke="black" points="189.5,-333 322.5,-333 "/>
<text text-anchor="start" x="197.5" y="-316.4" font-family="Times,serif" font-size="14.00">created_at :datetime</text>
<text text-anchor="start" x="197.5" y="-300.4" font-family="Times,serif" font-size="14.00">updated_at :datetime</text>
</g>
<!-- GeoPoint&#45;&gt;Segment -->
<g id="edge6" class="edge"><title>GeoPoint&#45;&gt;Segment</title>
<path fill="none" stroke="black" d="M101.361,-554.166C124.093,-514.28 154.909,-462.268 185,-418 197.073,-400.239 211.381,-381.342 223.979,-365.325"/>
<polygon fill="black" stroke="black" points="101.284,-554.303 92.4328,-560.777 98.8148,-558.651 96.3461,-562.999 96.3461,-562.999 96.3461,-562.999 98.8148,-558.651 100.259,-565.221 101.284,-554.303 101.284,-554.303"/>
<polygon fill="black" stroke="black" points="224.18,-365.071 233.917,-360.027 227.285,-361.151 230.39,-357.232 230.39,-357.232 230.39,-357.232 227.285,-361.151 226.862,-354.438 224.18,-365.071 224.18,-365.071"/>
</g>
<!-- ModelJob -->
<g id="node7" class="node"><title>ModelJob</title>
<polyline fill="none" stroke="black" points="429,-523 555,-523 "/>
<path fill="none" stroke="black" d="M555,-523C561,-523 567,-529 567,-535"/>
<polyline fill="none" stroke="black" points="567,-535 567,-703 "/>
<path fill="none" stroke="black" d="M567,-703C567,-709 561,-715 555,-715"/>
<polyline fill="none" stroke="black" points="555,-715 429,-715 "/>
<path fill="none" stroke="black" d="M429,-715C423,-715 417,-709 417,-703"/>
<polyline fill="none" stroke="black" points="417,-703 417,-535 "/>
<path fill="none" stroke="black" d="M417,-535C417,-529 423,-523 429,-523"/>
<text text-anchor="middle" x="492" y="-698.4" font-family="Times,serif" font-size="14.00">ModelJob</text>
<polyline fill="none" stroke="black" points="417,-691 567,-691 "/>
<text text-anchor="start" x="425" y="-674.4" font-family="Times,serif" font-size="14.00">kind :string</text>
<text text-anchor="start" x="425" y="-658.4" font-family="Times,serif" font-size="14.00">parameters :text</text>
<text text-anchor="start" x="425" y="-642.4" font-family="Times,serif" font-size="14.00">output :text</text>
<text text-anchor="start" x="425" y="-626.4" font-family="Times,serif" font-size="14.00">started :boolean</text>
<text text-anchor="start" x="425" y="-610.4" font-family="Times,serif" font-size="14.00">finished :boolean</text>
<text text-anchor="start" x="425" y="-594.4" font-family="Times,serif" font-size="14.00">picked_up :boolean</text>
<text text-anchor="start" x="425" y="-578.4" font-family="Times,serif" font-size="14.00">seconds_to_run :integer</text>
<text text-anchor="start" x="425" y="-562.4" font-family="Times,serif" font-size="14.00">created_at :datetime</text>
<text text-anchor="start" x="425" y="-546.4" font-family="Times,serif" font-size="14.00">updated_at :datetime</text>
<text text-anchor="start" x="425" y="-530.4" font-family="Times,serif" font-size="14.00">project_version :integer</text>
</g>
<!-- Organization -->
<g id="node8" class="node"><title>Organization</title>
<polyline fill="none" stroke="black" points="393.5,-1071 502.5,-1071 "/>
<path fill="none" stroke="black" d="M502.5,-1071C508.5,-1071 514.5,-1077 514.5,-1083"/>
<polyline fill="none" stroke="black" points="514.5,-1083 514.5,-1251 "/>
<path fill="none" stroke="black" d="M514.5,-1251C514.5,-1257 508.5,-1263 502.5,-1263"/>
<polyline fill="none" stroke="black" points="502.5,-1263 393.5,-1263 "/>
<path fill="none" stroke="black" d="M393.5,-1263C387.5,-1263 381.5,-1257 381.5,-1251"/>
<polyline fill="none" stroke="black" points="381.5,-1251 381.5,-1083 "/>
<path fill="none" stroke="black" d="M381.5,-1083C381.5,-1077 387.5,-1071 393.5,-1071"/>
<text text-anchor="middle" x="448" y="-1246.4" font-family="Times,serif" font-size="14.00">Organization</text>
<polyline fill="none" stroke="black" points="381.5,-1239 514.5,-1239 "/>
<text text-anchor="start" x="389.5" y="-1222.4" font-family="Times,serif" font-size="14.00">name :string</text>
<text text-anchor="start" x="389.5" y="-1206.4" font-family="Times,serif" font-size="14.00">slug :string</text>
<text text-anchor="start" x="389.5" y="-1190.4" font-family="Times,serif" font-size="14.00">url :string</text>
<text text-anchor="start" x="389.5" y="-1174.4" font-family="Times,serif" font-size="14.00">address :string</text>
<text text-anchor="start" x="389.5" y="-1158.4" font-family="Times,serif" font-size="14.00">city :string</text>
<text text-anchor="start" x="389.5" y="-1142.4" font-family="Times,serif" font-size="14.00">state :string</text>
<text text-anchor="start" x="389.5" y="-1126.4" font-family="Times,serif" font-size="14.00">country :string</text>
<text text-anchor="start" x="389.5" y="-1110.4" font-family="Times,serif" font-size="14.00">postal_code :string</text>
<text text-anchor="start" x="389.5" y="-1094.4" font-family="Times,serif" font-size="14.00">created_at :datetime</text>
<text text-anchor="start" x="389.5" y="-1078.4" font-family="Times,serif" font-size="14.00">updated_at :datetime</text>
</g>
<!-- Project -->
<g id="node9" class="node"><title>Project</title>
<polyline fill="none" stroke="black" points="310,-857 468,-857 "/>
<path fill="none" stroke="black" d="M468,-857C474,-857 480,-863 480,-869"/>
<polyline fill="none" stroke="black" points="480,-869 480,-1021 "/>
<path fill="none" stroke="black" d="M480,-1021C480,-1027 474,-1033 468,-1033"/>
<polyline fill="none" stroke="black" points="468,-1033 310,-1033 "/>
<path fill="none" stroke="black" d="M310,-1033C304,-1033 298,-1027 298,-1021"/>
<polyline fill="none" stroke="black" points="298,-1021 298,-869 "/>
<path fill="none" stroke="black" d="M298,-869C298,-863 304,-857 310,-857"/>
<text text-anchor="middle" x="389" y="-1016.4" font-family="Times,serif" font-size="14.00">Project</text>
<polyline fill="none" stroke="black" points="298,-1009 480,-1009 "/>
<text text-anchor="start" x="306" y="-992.4" font-family="Times,serif" font-size="14.00">name :string</text>
<text text-anchor="start" x="306" y="-976.4" font-family="Times,serif" font-size="14.00">kind :string</text>
<text text-anchor="start" x="306" y="-960.4" font-family="Times,serif" font-size="14.00">created_at :datetime</text>
<text text-anchor="start" x="306" y="-944.4" font-family="Times,serif" font-size="14.00">updated_at :datetime</text>
<text text-anchor="start" x="306" y="-928.4" font-family="Times,serif" font-size="14.00">southwest_latitude :decimal</text>
<text text-anchor="start" x="306" y="-912.4" font-family="Times,serif" font-size="14.00">southwest_longitude :decimal</text>
<text text-anchor="start" x="306" y="-896.4" font-family="Times,serif" font-size="14.00">northeast_latitude :decimal</text>
<text text-anchor="start" x="306" y="-880.4" font-family="Times,serif" font-size="14.00">northeast_longitude :decimal</text>
<text text-anchor="start" x="306" y="-864.4" font-family="Times,serif" font-size="14.00">version :integer</text>
</g>
<!-- Organization&#45;&gt;Project -->
<g id="edge12" class="edge"><title>Organization&#45;&gt;Project</title>
<path fill="none" stroke="black" d="M419.853,-1061.04C418.045,-1054.3 416.231,-1047.54 414.438,-1040.85"/>
<polygon fill="black" stroke="black" points="419.875,-1061.13 418.118,-1071.95 421.17,-1065.95 422.465,-1070.78 422.465,-1070.78 422.465,-1070.78 421.17,-1065.95 426.811,-1069.62 419.875,-1061.13 419.875,-1061.13"/>
<ellipse fill="black" stroke="black" cx="413.38" cy="-1036.91" rx="4.00001" ry="4.00001"/>
</g>
<!-- User -->
<g id="node15" class="node"><title>User</title>
<polyline fill="none" stroke="black" points="635.5,-419 816.5,-419 "/>
<path fill="none" stroke="black" d="M816.5,-419C822.5,-419 828.5,-425 828.5,-431"/>
<polyline fill="none" stroke="black" points="828.5,-431 828.5,-807 "/>
<path fill="none" stroke="black" d="M828.5,-807C828.5,-813 822.5,-819 816.5,-819"/>
<polyline fill="none" stroke="black" points="816.5,-819 635.5,-819 "/>
<path fill="none" stroke="black" d="M635.5,-819C629.5,-819 623.5,-813 623.5,-807"/>
<polyline fill="none" stroke="black" points="623.5,-807 623.5,-431 "/>
<path fill="none" stroke="black" d="M623.5,-431C623.5,-425 629.5,-419 635.5,-419"/>
<text text-anchor="middle" x="726" y="-802.4" font-family="Times,serif" font-size="14.00">User</text>
<polyline fill="none" stroke="black" points="623.5,-795 828.5,-795 "/>
<text text-anchor="start" x="631.5" y="-778.4" font-family="Times,serif" font-size="14.00">first_name :string</text>
<text text-anchor="start" x="631.5" y="-762.4" font-family="Times,serif" font-size="14.00">last_name :string</text>
<text text-anchor="start" x="631.5" y="-746.4" font-family="Times,serif" font-size="14.00">email :string</text>
<text text-anchor="start" x="631.5" y="-730.4" font-family="Times,serif" font-size="14.00">phone_number :string</text>
<text text-anchor="start" x="631.5" y="-714.4" font-family="Times,serif" font-size="14.00">organization_billing :boolean</text>
<text text-anchor="start" x="631.5" y="-698.4" font-family="Times,serif" font-size="14.00">organization_manager :boolean</text>
<text text-anchor="start" x="631.5" y="-682.4" font-family="Times,serif" font-size="14.00">orgup_admin :boolean</text>
<text text-anchor="start" x="631.5" y="-666.4" font-family="Times,serif" font-size="14.00">orgup_api :boolean</text>
<text text-anchor="start" x="631.5" y="-650.4" font-family="Times,serif" font-size="14.00">encrypted_password :string</text>
<text text-anchor="start" x="631.5" y="-634.4" font-family="Times,serif" font-size="14.00">invitation_token :string</text>
<text text-anchor="start" x="631.5" y="-618.4" font-family="Times,serif" font-size="14.00">invitation_sent_at :datetime</text>
<text text-anchor="start" x="631.5" y="-602.4" font-family="Times,serif" font-size="14.00">invitation_accepted_at :datetime</text>
<text text-anchor="start" x="631.5" y="-586.4" font-family="Times,serif" font-size="14.00">invitation_limit :integer</text>
<text text-anchor="start" x="631.5" y="-570.4" font-family="Times,serif" font-size="14.00">invited_by_type :string</text>
<text text-anchor="start" x="631.5" y="-554.4" font-family="Times,serif" font-size="14.00">reset_password_token :string</text>
<text text-anchor="start" x="631.5" y="-538.4" font-family="Times,serif" font-size="14.00">reset_password_sent_at :datetime</text>
<text text-anchor="start" x="631.5" y="-522.4" font-family="Times,serif" font-size="14.00">remember_created_at :datetime</text>
<text text-anchor="start" x="631.5" y="-506.4" font-family="Times,serif" font-size="14.00">current_sign_in_at :datetime</text>
<text text-anchor="start" x="631.5" y="-490.4" font-family="Times,serif" font-size="14.00">last_sign_in_at :datetime</text>
<text text-anchor="start" x="631.5" y="-474.4" font-family="Times,serif" font-size="14.00">current_sign_in_ip :string</text>
<text text-anchor="start" x="631.5" y="-458.4" font-family="Times,serif" font-size="14.00">last_sign_in_ip :string</text>
<text text-anchor="start" x="631.5" y="-442.4" font-family="Times,serif" font-size="14.00">created_at :datetime</text>
<text text-anchor="start" x="631.5" y="-426.4" font-family="Times,serif" font-size="14.00">updated_at :datetime</text>
</g>
<!-- Organization&#45;&gt;User -->
<g id="edge10" class="edge"><title>Organization&#45;&gt;User</title>
<path fill="none" stroke="black" d="M501.051,-1061.81C534.927,-995.274 580.013,-906.723 620.923,-826.374"/>
<polygon fill="black" stroke="black" points="500.961,-1061.98 492.414,-1068.85 498.693,-1066.44 496.424,-1070.89 496.424,-1070.89 496.424,-1070.89 498.693,-1066.44 500.434,-1072.94 500.961,-1061.98 500.961,-1061.98"/>
<ellipse fill="black" stroke="black" cx="622.801" cy="-822.687" rx="4.00002" ry="4.00002"/>
</g>
<!-- Project&#45;&gt;CountSession -->
<g id="edge24" class="edge"><title>Project&#45;&gt;CountSession</title>
<path fill="none" stroke="black" d="M391.398,-846.928C394.265,-741.337 399.738,-567.598 408,-418 411.349,-357.358 416.634,-288.273 420.613,-239.485"/>
<polygon fill="black" stroke="black" points="391.398,-846.934 386.63,-856.809 391.263,-851.932 391.129,-856.93 391.129,-856.93 391.129,-856.93 391.263,-851.932 395.627,-857.052 391.398,-846.934 391.398,-846.934"/>
<ellipse fill="black" stroke="black" cx="420.963" cy="-235.213" rx="4" ry="4"/>
</g>
<!-- Project&#45;&gt;GeoPoint -->
<g id="edge20" class="edge"><title>Project&#45;&gt;GeoPoint</title>
<path fill="none" stroke="black" d="M288.201,-911.23C240.155,-891.302 185.018,-861.549 147,-820 111.884,-781.623 91.032,-726.036 79.3011,-683.2"/>
<polygon fill="black" stroke="black" points="288.441,-911.327 296.017,-919.255 293.075,-913.206 297.708,-915.085 297.708,-915.085 297.708,-915.085 293.075,-913.206 299.399,-910.915 288.441,-911.327 288.441,-911.327"/>
<ellipse fill="black" stroke="black" cx="78.2435" cy="-679.222" rx="4.00001" ry="4.00001"/>
</g>
<!-- Project&#45;&gt;GeoPointOnSegment -->
<g id="edge22" class="edge"><title>Project&#45;&gt;GeoPointOnSegment</title>
<path fill="none" stroke="black" d="M288.729,-903.613C252.361,-883.857 214.681,-856.348 192,-820 175.561,-793.656 136.108,-333.168 125.605,-207.474"/>
<polygon fill="black" stroke="black" points="289.091,-903.805 295.837,-912.45 293.514,-906.137 297.936,-908.47 297.936,-908.47 297.936,-908.47 293.514,-906.137 300.036,-904.49 289.091,-903.805 289.091,-903.805"/>
<ellipse fill="black" stroke="black" cx="125.26" cy="-203.335" rx="4" ry="4"/>
</g>
<!-- Project&#45;&gt;ModelJob -->
<g id="edge28" class="edge"><title>Project&#45;&gt;ModelJob</title>
<path fill="none" stroke="black" d="M419.798,-847.12C432.246,-807.964 446.63,-762.718 459.267,-722.966"/>
<polygon fill="black" stroke="black" points="419.767,-847.218 412.449,-855.384 418.252,-851.983 416.738,-856.748 416.738,-856.748 416.738,-856.748 418.252,-851.983 421.026,-858.111 419.767,-847.218 419.767,-847.218"/>
<ellipse fill="black" stroke="black" cx="460.558" cy="-718.905" rx="4.00001" ry="4.00001"/>
</g>
<!-- ProjectMember -->
<g id="node10" class="node"><title>ProjectMember</title>
<polyline fill="none" stroke="black" points="549.5,-269 658.5,-269 "/>
<path fill="none" stroke="black" d="M658.5,-269C664.5,-269 670.5,-275 670.5,-281"/>
<polyline fill="none" stroke="black" points="670.5,-281 670.5,-369 "/>
<path fill="none" stroke="black" d="M670.5,-369C670.5,-375 664.5,-381 658.5,-381"/>
<polyline fill="none" stroke="black" points="658.5,-381 549.5,-381 "/>
<path fill="none" stroke="black" d="M549.5,-381C543.5,-381 537.5,-375 537.5,-369"/>
<polyline fill="none" stroke="black" points="537.5,-369 537.5,-281 "/>
<path fill="none" stroke="black" d="M537.5,-281C537.5,-275 543.5,-269 549.5,-269"/>
<text text-anchor="middle" x="604" y="-364.4" font-family="Times,serif" font-size="14.00">ProjectMember</text>
<polyline fill="none" stroke="black" points="537.5,-357 670.5,-357 "/>
<text text-anchor="start" x="545.5" y="-340.4" font-family="Times,serif" font-size="14.00">view :boolean</text>
<text text-anchor="start" x="545.5" y="-324.4" font-family="Times,serif" font-size="14.00">edit :boolean</text>
<text text-anchor="start" x="545.5" y="-308.4" font-family="Times,serif" font-size="14.00">manage :boolean</text>
<text text-anchor="start" x="545.5" y="-292.4" font-family="Times,serif" font-size="14.00">created_at :datetime</text>
<text text-anchor="start" x="545.5" y="-276.4" font-family="Times,serif" font-size="14.00">updated_at :datetime</text>
</g>
<!-- Project&#45;&gt;ProjectMember -->
<g id="edge14" class="edge"><title>Project&#45;&gt;ProjectMember</title>
<path fill="none" stroke="black" d="M489.231,-900.722C522.591,-881.093 556.245,-854.427 576,-820 617.073,-748.422 612.265,-506.012 607.31,-389.524"/>
<polygon fill="black" stroke="black" points="488.991,-900.86 478.075,-901.908 484.648,-903.338 480.305,-905.816 480.305,-905.816 480.305,-905.816 484.648,-903.338 482.536,-909.725 488.991,-900.86 488.991,-900.86"/>
<ellipse fill="black" stroke="black" cx="607.128" cy="-385.355" rx="4" ry="4"/>
</g>
<!-- Scenario -->
<g id="node11" class="node"><title>Scenario</title>
<polyline fill="none" stroke="black" points="239.5,-579 348.5,-579 "/>
<path fill="none" stroke="black" d="M348.5,-579C354.5,-579 360.5,-585 360.5,-591"/>
<polyline fill="none" stroke="black" points="360.5,-591 360.5,-647 "/>
<path fill="none" stroke="black" d="M360.5,-647C360.5,-653 354.5,-659 348.5,-659"/>
<polyline fill="none" stroke="black" points="348.5,-659 239.5,-659 "/>
<path fill="none" stroke="black" d="M239.5,-659C233.5,-659 227.5,-653 227.5,-647"/>
<polyline fill="none" stroke="black" points="227.5,-647 227.5,-591 "/>
<path fill="none" stroke="black" d="M227.5,-591C227.5,-585 233.5,-579 239.5,-579"/>
<text text-anchor="middle" x="294" y="-642.4" font-family="Times,serif" font-size="14.00">Scenario</text>
<polyline fill="none" stroke="black" points="227.5,-635 360.5,-635 "/>
<text text-anchor="start" x="235.5" y="-618.4" font-family="Times,serif" font-size="14.00">name :string</text>
<text text-anchor="start" x="235.5" y="-602.4" font-family="Times,serif" font-size="14.00">created_at :datetime</text>
<text text-anchor="start" x="235.5" y="-586.4" font-family="Times,serif" font-size="14.00">updated_at :datetime</text>
</g>
<!-- Project&#45;&gt;Scenario -->
<g id="edge26" class="edge"><title>Project&#45;&gt;Scenario</title>
<path fill="none" stroke="black" d="M360.502,-846.806C343.088,-787.415 321.594,-714.11 307.842,-667.208"/>
<polygon fill="black" stroke="black" points="360.603,-847.152 359.099,-858.014 362.01,-851.95 363.417,-856.748 363.417,-856.748 363.417,-856.748 362.01,-851.95 367.735,-855.482 360.603,-847.152 360.603,-847.152"/>
<ellipse fill="black" stroke="black" cx="306.661" cy="-663.179" rx="4.00001" ry="4.00001"/>
</g>
<!-- Project&#45;&gt;Segment -->
<g id="edge18" class="edge"><title>Project&#45;&gt;Segment</title>
<path fill="none" stroke="black" d="M289.233,-894.891C260.996,-875.688 233.697,-850.773 218,-820 177.407,-740.422 200.616,-505.626 218,-418 221.584,-399.937 228.768,-380.971 235.935,-364.983"/>
<polygon fill="black" stroke="black" points="289.262,-894.909 295.137,-904.168 293.437,-897.66 297.612,-900.41 297.612,-900.41 297.612,-900.41 293.437,-897.66 300.088,-896.653 289.262,-894.909 289.262,-894.909"/>
<ellipse fill="black" stroke="black" cx="237.761" cy="-361.023" rx="4.00002" ry="4.00002"/>
</g>
<!-- Project&#45;&gt;User -->
<g id="edge16" class="edge"><title>Project&#45;&gt;User</title>
<path fill="none" stroke="black" d="M489.353,-901.588C529.801,-881.095 574.863,-853.593 609,-820 611.437,-817.602 613.841,-815.142 616.212,-812.628"/>
<polygon fill="black" stroke="black" points="489.213,-901.658 478.256,-902.089 484.738,-903.887 480.262,-906.117 480.262,-906.117 480.262,-906.117 484.738,-903.887 482.269,-910.145 489.213,-901.658 489.213,-901.658"/>
<polygon fill="black" stroke="black" points="616.491,-812.322 626.552,-807.959 619.858,-808.626 623.225,-804.929 623.225,-804.929 623.225,-804.929 619.858,-808.626 619.898,-801.899 616.491,-812.322 616.491,-812.322"/>
</g>
<!-- Scenario&#45;&gt;Segment -->
<g id="edge32" class="edge"><title>Scenario&#45;&gt;Segment</title>
<path fill="none" stroke="black" d="M287.607,-568.872C280.245,-512.303 268.282,-420.378 261.378,-367.329"/>
<polygon fill="black" stroke="black" points="287.624,-569.006 284.452,-579.503 288.269,-573.964 288.915,-578.923 288.915,-578.923 288.915,-578.923 288.269,-573.964 293.377,-578.342 287.624,-569.006 287.624,-569.006"/>
<polygon fill="black" stroke="black" points="261.359,-367.176 264.53,-356.679 260.713,-362.218 260.068,-357.259 260.068,-357.259 260.068,-357.259 260.713,-362.218 255.606,-357.84 261.359,-367.176 261.359,-367.176"/>
</g>
<!-- SegmentInScenario -->
<g id="node13" class="node"><title>SegmentInScenario</title>
<polyline fill="none" stroke="black" points="220.5,-135 329.5,-135 "/>
<path fill="none" stroke="black" d="M329.5,-135C335.5,-135 341.5,-141 341.5,-147"/>
<polyline fill="none" stroke="black" points="341.5,-147 341.5,-203 "/>
<path fill="none" stroke="black" d="M341.5,-203C341.5,-209 335.5,-215 329.5,-215"/>
<polyline fill="none" stroke="black" points="329.5,-215 220.5,-215 "/>
<path fill="none" stroke="black" d="M220.5,-215C214.5,-215 208.5,-209 208.5,-203"/>
<polyline fill="none" stroke="black" points="208.5,-203 208.5,-147 "/>
<path fill="none" stroke="black" d="M208.5,-147C208.5,-141 214.5,-135 220.5,-135"/>
<text text-anchor="middle" x="275" y="-198.4" font-family="Times,serif" font-size="14.00">SegmentInScenario</text>
<polyline fill="none" stroke="black" points="208.5,-191 341.5,-191 "/>
<text text-anchor="start" x="216.5" y="-174.4" font-family="Times,serif" font-size="14.00">status :string</text>
<text text-anchor="start" x="216.5" y="-158.4" font-family="Times,serif" font-size="14.00">created_at :datetime</text>
<text text-anchor="start" x="216.5" y="-142.4" font-family="Times,serif" font-size="14.00">updated_at :datetime</text>
</g>
<!-- Scenario&#45;&gt;SegmentInScenario -->
<g id="edge30" class="edge"><title>Scenario&#45;&gt;SegmentInScenario</title>
<path fill="none" stroke="black" d="M310.474,-569.21C331.087,-500.677 360.326,-372.58 331,-268 326.572,-252.208 318.604,-236.438 310.042,-222.528"/>
<polygon fill="black" stroke="black" points="310.44,-569.32 303.202,-577.557 308.972,-574.099 307.504,-578.879 307.504,-578.879 307.504,-578.879 308.972,-574.099 311.805,-580.2 310.44,-569.32 310.44,-569.32"/>
<ellipse fill="black" stroke="black" cx="307.674" cy="-218.808" rx="4.00002" ry="4.00002"/>
</g>
<!-- Segment&#45;&gt;CountSession -->
<g id="edge34" class="edge"><title>Segment&#45;&gt;CountSession</title>
<path fill="none" stroke="black" d="M299.345,-286.265C316.671,-271.181 337.065,-253.426 356.365,-236.623"/>
<polygon fill="black" stroke="black" points="299.18,-286.408 288.683,-289.58 295.409,-289.691 291.638,-292.974 291.638,-292.974 291.638,-292.974 295.409,-289.691 294.592,-296.368 299.18,-286.408 299.18,-286.408"/>
<ellipse fill="black" stroke="black" cx="359.571" cy="-233.832" rx="4.00002" ry="4.00002"/>
</g>
<!-- Segment&#45;&gt;GeoPointOnSegment -->
<g id="edge38" class="edge"><title>Segment&#45;&gt;GeoPointOnSegment</title>
<path fill="none" stroke="black" d="M221.405,-285.503C198.939,-260.503 170.106,-228.419 149.468,-205.453"/>
<polygon fill="black" stroke="black" points="221.435,-285.536 224.772,-295.982 224.777,-289.255 228.119,-292.974 228.119,-292.974 228.119,-292.974 224.777,-289.255 231.466,-289.966 221.435,-285.536 221.435,-285.536"/>
<ellipse fill="black" stroke="black" cx="146.55" cy="-202.206" rx="4.00002" ry="4.00002"/>
</g>
<!-- Segment&#45;&gt;SegmentInScenario -->
<g id="edge36" class="edge"><title>Segment&#45;&gt;SegmentInScenario</title>
<path fill="none" stroke="black" d="M261.266,-282.981C263.645,-264.446 266.47,-242.441 268.938,-223.222"/>
<polygon fill="black" stroke="black" points="261.256,-283.056 255.52,-292.401 260.62,-288.015 259.983,-292.974 259.983,-292.974 259.983,-292.974 260.62,-288.015 264.446,-293.547 261.256,-283.056 261.256,-283.056"/>
<ellipse fill="black" stroke="black" cx="269.462" cy="-219.141" rx="4.00001" ry="4.00001"/>
</g>
<!-- Subscription -->
<g id="node14" class="node"><title>Subscription</title>
<polyline fill="none" stroke="black" points="391.5,-1301 504.5,-1301 "/>
<path fill="none" stroke="black" d="M504.5,-1301C510.5,-1301 516.5,-1307 516.5,-1313"/>
<polyline fill="none" stroke="black" points="516.5,-1313 516.5,-1433 "/>
<path fill="none" stroke="black" d="M516.5,-1433C516.5,-1439 510.5,-1445 504.5,-1445"/>
<polyline fill="none" stroke="black" points="504.5,-1445 391.5,-1445 "/>
<path fill="none" stroke="black" d="M391.5,-1445C385.5,-1445 379.5,-1439 379.5,-1433"/>
<polyline fill="none" stroke="black" points="379.5,-1433 379.5,-1313 "/>
<path fill="none" stroke="black" d="M379.5,-1313C379.5,-1307 385.5,-1301 391.5,-1301"/>
<text text-anchor="middle" x="448" y="-1428.4" font-family="Times,serif" font-size="14.00">Subscription</text>
<polyline fill="none" stroke="black" points="379.5,-1421 516.5,-1421 "/>
<text text-anchor="start" x="387.5" y="-1404.4" font-family="Times,serif" font-size="14.00">name :string</text>
<text text-anchor="start" x="387.5" y="-1388.4" font-family="Times,serif" font-size="14.00">uses_ped :boolean</text>
<text text-anchor="start" x="387.5" y="-1372.4" font-family="Times,serif" font-size="14.00">uses_sign :boolean</text>
<text text-anchor="start" x="387.5" y="-1356.4" font-family="Times,serif" font-size="14.00">max_users :integer</text>
<text text-anchor="start" x="387.5" y="-1340.4" font-family="Times,serif" font-size="14.00">max_projects :integer</text>
<text text-anchor="start" x="387.5" y="-1324.4" font-family="Times,serif" font-size="14.00">created_at :datetime</text>
<text text-anchor="start" x="387.5" y="-1308.4" font-family="Times,serif" font-size="14.00">updated_at :datetime</text>
</g>
<!-- Subscription&#45;&gt;Organization -->
<g id="edge40" class="edge"><title>Subscription&#45;&gt;Organization</title>
<path fill="none" stroke="black" d="M448,-1290.81C448,-1284.43 448,-1277.94 448,-1271.44"/>
<polygon fill="black" stroke="black" points="448,-1290.94 443.5,-1300.94 448,-1295.94 448,-1300.94 448,-1300.94 448,-1300.94 448,-1295.94 452.5,-1300.94 448,-1290.94 448,-1290.94"/>
<ellipse fill="black" stroke="black" cx="448" cy="-1267.21" rx="4" ry="4"/>
</g>
<!-- User&#45;&gt;CountSession -->
<g id="edge44" class="edge"><title>User&#45;&gt;CountSession</title>
<path fill="none" stroke="black" d="M734.326,-408.768C727.055,-358.329 710.896,-307.625 679,-268 635.825,-214.364 558.557,-191.993 500.733,-182.664"/>
<polygon fill="black" stroke="black" points="734.348,-408.936 731.202,-419.441 735.005,-413.892 735.663,-418.849 735.663,-418.849 735.663,-418.849 735.005,-413.892 740.124,-418.257 734.348,-408.936 734.348,-408.936"/>
<ellipse fill="black" stroke="black" cx="496.662" cy="-182.04" rx="4.00001" ry="4.00001"/>
</g>
<!-- User&#45;&gt;ProjectMember -->
<g id="edge42" class="edge"><title>User&#45;&gt;ProjectMember</title>
<path fill="none" stroke="black" d="M638.86,-409.435C635.842,-402.213 632.93,-395.243 630.162,-388.618"/>
<polygon fill="black" stroke="black" points="638.914,-409.565 638.617,-420.527 640.842,-414.178 642.769,-418.792 642.769,-418.792 642.769,-418.792 640.842,-414.178 646.921,-417.057 638.914,-409.565 638.914,-409.565"/>
<ellipse fill="black" stroke="black" cx="628.523" cy="-384.696" rx="4.00001" ry="4.00001"/>
</g>
</g>
</svg>
