<?xml version="1.0" encoding="UTF-8" standalone="no"?>
<!DOCTYPE svg PUBLIC "-//W3C//DTD SVG 1.1//EN"
 "http://www.w3.org/Graphics/SVG/1.1/DTD/svg11.dtd">
<!-- Generated by graphviz version 2.26.3 (20100126.1600)
 -->
<!-- Title: models_diagram Pages: 1 -->
<svg width="736pt" height="1438pt"
 viewBox="0.00 0.00 736.00 1438.00" xmlns="http://www.w3.org/2000/svg" xmlns:xlink="http://www.w3.org/1999/xlink">
<g id="graph1" class="graph" transform="scale(1 1) rotate(0) translate(4 1434)">
<title>models_diagram</title>
<polygon fill="white" stroke="white" points="-4,5 -4,-1434 733,-1434 733,5 -4,5"/>
<!-- _diagram_info -->
<g id="node1" class="node"><title>_diagram_info</title>
<text text-anchor="start" x="8" y="-1376.4" font-family="Times,serif" font-size="14.00">Models diagram</text>
<text text-anchor="start" x="8" y="-1360.4" font-family="Times,serif" font-size="14.00">Date: Oct 02 2011 &#45; 18:37</text>
<text text-anchor="start" x="8" y="-1344.4" font-family="Times,serif" font-size="14.00">Migration version: 20111002234624</text>
<text text-anchor="start" x="8" y="-1328.4" font-family="Times,serif" font-size="14.00">Generated by RailRoad 0.5.0</text>
</g>
<!-- Count -->
<g id="node2" class="node"><title>Count</title>
<polyline fill="none" stroke="black" points="240.5,-1 349.5,-1 "/>
<path fill="none" stroke="black" d="M349.5,-1C355.5,-1 361.5,-7 361.5,-13"/>
<polyline fill="none" stroke="black" points="361.5,-13 361.5,-69 "/>
<path fill="none" stroke="black" d="M361.5,-69C361.5,-75 355.5,-81 349.5,-81"/>
<polyline fill="none" stroke="black" points="349.5,-81 240.5,-81 "/>
<path fill="none" stroke="black" d="M240.5,-81C234.5,-81 228.5,-75 228.5,-69"/>
<polyline fill="none" stroke="black" points="228.5,-69 228.5,-13 "/>
<path fill="none" stroke="black" d="M228.5,-13C228.5,-7 234.5,-1 240.5,-1"/>
<text text-anchor="middle" x="295" y="-64.4" font-family="Times,serif" font-size="14.00">Count</text>
<polyline fill="none" stroke="black" points="228.5,-57 361.5,-57 "/>
<text text-anchor="start" x="236.5" y="-40.4" font-family="Times,serif" font-size="14.00">at :datetime</text>
<text text-anchor="start" x="236.5" y="-24.4" font-family="Times,serif" font-size="14.00">created_at :datetime</text>
<text text-anchor="start" x="236.5" y="-8.4" font-family="Times,serif" font-size="14.00">updated_at :datetime</text>
</g>
<!-- CountSession -->
<g id="node3" class="node"><title>CountSession</title>
<polyline fill="none" stroke="black" points="240.5,-119 349.5,-119 "/>
<path fill="none" stroke="black" d="M349.5,-119C355.5,-119 361.5,-125 361.5,-131"/>
<polyline fill="none" stroke="black" points="361.5,-131 361.5,-219 "/>
<path fill="none" stroke="black" d="M361.5,-219C361.5,-225 355.5,-231 349.5,-231"/>
<polyline fill="none" stroke="black" points="349.5,-231 240.5,-231 "/>
<path fill="none" stroke="black" d="M240.5,-231C234.5,-231 228.5,-225 228.5,-219"/>
<polyline fill="none" stroke="black" points="228.5,-219 228.5,-131 "/>
<path fill="none" stroke="black" d="M228.5,-131C228.5,-125 234.5,-119 240.5,-119"/>
<text text-anchor="middle" x="295" y="-214.4" font-family="Times,serif" font-size="14.00">CountSession</text>
<polyline fill="none" stroke="black" points="228.5,-207 361.5,-207 "/>
<text text-anchor="start" x="236.5" y="-190.4" font-family="Times,serif" font-size="14.00">start :datetime</text>
<text text-anchor="start" x="236.5" y="-174.4" font-family="Times,serif" font-size="14.00">stop :datetime</text>
<text text-anchor="start" x="236.5" y="-158.4" font-family="Times,serif" font-size="14.00">status :string</text>
<text text-anchor="start" x="236.5" y="-142.4" font-family="Times,serif" font-size="14.00">created_at :datetime</text>
<text text-anchor="start" x="236.5" y="-126.4" font-family="Times,serif" font-size="14.00">updated_at :datetime</text>
</g>
<!-- CountSession&#45;&gt;Count -->
<g id="edge2" class="edge"><title>CountSession&#45;&gt;Count</title>
<path fill="none" stroke="black" d="M295,-108.812C295,-102.362 295,-95.9029 295,-89.6724"/>
<polygon fill="black" stroke="black" points="295,-108.948 290.5,-118.948 295,-113.948 295,-118.948 295,-118.948 295,-118.948 295,-113.948 299.5,-118.948 295,-108.948 295,-108.948"/>
<ellipse fill="black" stroke="black" cx="295" cy="-85.3407" rx="4" ry="4"/>
</g>
<!-- DataSource -->
<g id="node4" class="node"><title>DataSource</title>
<polyline fill="none" stroke="black" points="607.5,-889 716.5,-889 "/>
<path fill="none" stroke="black" d="M716.5,-889C722.5,-889 728.5,-895 728.5,-901"/>
<polyline fill="none" stroke="black" points="728.5,-901 728.5,-973 "/>
<path fill="none" stroke="black" d="M728.5,-973C728.5,-979 722.5,-985 716.5,-985"/>
<polyline fill="none" stroke="black" points="716.5,-985 607.5,-985 "/>
<path fill="none" stroke="black" d="M607.5,-985C601.5,-985 595.5,-979 595.5,-973"/>
<polyline fill="none" stroke="black" points="595.5,-973 595.5,-901 "/>
<path fill="none" stroke="black" d="M595.5,-901C595.5,-895 601.5,-889 607.5,-889"/>
<text text-anchor="middle" x="662" y="-968.4" font-family="Times,serif" font-size="14.00">DataSource</text>
<polyline fill="none" stroke="black" points="595.5,-961 728.5,-961 "/>
<text text-anchor="start" x="603.5" y="-944.4" font-family="Times,serif" font-size="14.00">name :string</text>
<text text-anchor="start" x="603.5" y="-928.4" font-family="Times,serif" font-size="14.00">kind :string</text>
<text text-anchor="start" x="603.5" y="-912.4" font-family="Times,serif" font-size="14.00">created_at :datetime</text>
<text text-anchor="start" x="603.5" y="-896.4" font-family="Times,serif" font-size="14.00">updated_at :datetime</text>
</g>
<!-- GeoPoint -->
<g id="node5" class="node"><title>GeoPoint</title>
<polyline fill="none" stroke="black" points="607.5,-563 716.5,-563 "/>
<path fill="none" stroke="black" d="M716.5,-563C722.5,-563 728.5,-569 728.5,-575"/>
<polyline fill="none" stroke="black" points="728.5,-575 728.5,-663 "/>
<path fill="none" stroke="black" d="M728.5,-663C728.5,-669 722.5,-675 716.5,-675"/>
<polyline fill="none" stroke="black" points="716.5,-675 607.5,-675 "/>
<path fill="none" stroke="black" d="M607.5,-675C601.5,-675 595.5,-669 595.5,-663"/>
<polyline fill="none" stroke="black" points="595.5,-663 595.5,-575 "/>
<path fill="none" stroke="black" d="M595.5,-575C595.5,-569 601.5,-563 607.5,-563"/>
<text text-anchor="middle" x="662" y="-658.4" font-family="Times,serif" font-size="14.00">GeoPoint</text>
<polyline fill="none" stroke="black" points="595.5,-651 728.5,-651 "/>
<text text-anchor="start" x="603.5" y="-634.4" font-family="Times,serif" font-size="14.00">latitude :decimal</text>
<text text-anchor="start" x="603.5" y="-618.4" font-family="Times,serif" font-size="14.00">longitude :decimal</text>
<text text-anchor="start" x="603.5" y="-602.4" font-family="Times,serif" font-size="14.00">accuracy :decimal</text>
<text text-anchor="start" x="603.5" y="-586.4" font-family="Times,serif" font-size="14.00">created_at :datetime</text>
<text text-anchor="start" x="603.5" y="-570.4" font-family="Times,serif" font-size="14.00">updated_at :datetime</text>
</g>
<!-- DataSource&#45;&gt;GeoPoint -->
<g id="edge4" class="edge"><title>DataSource&#45;&gt;GeoPoint</title>
<path fill="none" stroke="black" d="M662,-878.606C662,-823.379 662,-740.668 662,-683.515"/>
<polygon fill="black" stroke="black" points="662,-878.703 657.5,-888.703 662,-883.703 662,-888.703 662,-888.703 662,-888.703 662,-883.703 666.5,-888.703 662,-878.703 662,-878.703"/>
<ellipse fill="black" stroke="black" cx="662" cy="-679.274" rx="4" ry="4"/>
</g>
<!-- GeoPointOnSegment -->
<g id="node6" class="node"><title>GeoPointOnSegment</title>
<polyline fill="none" stroke="black" points="540.5,-151 651.5,-151 "/>
<path fill="none" stroke="black" d="M651.5,-151C657.5,-151 663.5,-157 663.5,-163"/>
<polyline fill="none" stroke="black" points="663.5,-163 663.5,-187 "/>
<path fill="none" stroke="black" d="M663.5,-187C663.5,-193 657.5,-199 651.5,-199"/>
<polyline fill="none" stroke="black" points="651.5,-199 540.5,-199 "/>
<path fill="none" stroke="black" d="M540.5,-199C534.5,-199 528.5,-193 528.5,-187"/>
<polyline fill="none" stroke="black" points="528.5,-187 528.5,-163 "/>
<path fill="none" stroke="black" d="M528.5,-163C528.5,-157 534.5,-151 540.5,-151"/>
<text text-anchor="middle" x="596" y="-182.4" font-family="Times,serif" font-size="14.00">GeoPointOnSegment</text>
<polyline fill="none" stroke="black" points="528.5,-175 663.5,-175 "/>
</g>
<!-- GeoPoint&#45;&gt;GeoPointOnSegment -->
<g id="edge8" class="edge"><title>GeoPoint&#45;&gt;GeoPointOnSegment</title>
<path fill="none" stroke="black" d="M652.146,-552.707C637.764,-455.958 611.569,-279.739 600.81,-207.356"/>
<polygon fill="black" stroke="black" points="652.171,-552.876 649.19,-563.429 652.906,-557.821 653.641,-562.767 653.641,-562.767 653.641,-562.767 652.906,-557.821 658.092,-562.105 652.171,-552.876 652.171,-552.876"/>
<ellipse fill="black" stroke="black" cx="600.164" cy="-203.012" rx="4.00001" ry="4.00001"/>
</g>
<!-- Segment -->
<g id="node11" class="node"><title>Segment</title>
<polyline fill="none" stroke="black" points="419.5,-293 528.5,-293 "/>
<path fill="none" stroke="black" d="M528.5,-293C534.5,-293 540.5,-299 540.5,-305"/>
<polyline fill="none" stroke="black" points="540.5,-305 540.5,-345 "/>
<path fill="none" stroke="black" d="M540.5,-345C540.5,-351 534.5,-357 528.5,-357"/>
<polyline fill="none" stroke="black" points="528.5,-357 419.5,-357 "/>
<path fill="none" stroke="black" d="M419.5,-357C413.5,-357 407.5,-351 407.5,-345"/>
<polyline fill="none" stroke="black" points="407.5,-345 407.5,-305 "/>
<path fill="none" stroke="black" d="M407.5,-305C407.5,-299 413.5,-293 419.5,-293"/>
<text text-anchor="middle" x="474" y="-340.4" font-family="Times,serif" font-size="14.00">Segment</text>
<polyline fill="none" stroke="black" points="407.5,-333 540.5,-333 "/>
<text text-anchor="start" x="415.5" y="-316.4" font-family="Times,serif" font-size="14.00">created_at :datetime</text>
<text text-anchor="start" x="415.5" y="-300.4" font-family="Times,serif" font-size="14.00">updated_at :datetime</text>
</g>
<!-- GeoPoint&#45;&gt;Segment -->
<g id="edge6" class="edge"><title>GeoPoint&#45;&gt;Segment</title>
<path fill="none" stroke="black" d="M626.39,-554.081C603.869,-514.138 573.529,-462.29 544,-418 532.163,-400.245 518.181,-381.315 505.838,-365.199"/>
<polygon fill="black" stroke="black" points="626.463,-554.213 627.438,-565.135 628.912,-558.572 631.361,-562.931 631.361,-562.931 631.361,-562.931 628.912,-558.572 635.285,-560.727 626.463,-554.213 626.463,-554.213"/>
<polygon fill="black" stroke="black" points="505.66,-364.968 503.116,-354.301 502.606,-361.009 499.553,-357.049 499.553,-357.049 499.553,-357.049 502.606,-361.009 495.989,-359.798 505.66,-364.968 505.66,-364.968"/>
</g>
<!-- Organization -->
<g id="node7" class="node"><title>Organization</title>
<polyline fill="none" stroke="black" points="251.5,-1055 360.5,-1055 "/>
<path fill="none" stroke="black" d="M360.5,-1055C366.5,-1055 372.5,-1061 372.5,-1067"/>
<polyline fill="none" stroke="black" points="372.5,-1067 372.5,-1235 "/>
<path fill="none" stroke="black" d="M372.5,-1235C372.5,-1241 366.5,-1247 360.5,-1247"/>
<polyline fill="none" stroke="black" points="360.5,-1247 251.5,-1247 "/>
<path fill="none" stroke="black" d="M251.5,-1247C245.5,-1247 239.5,-1241 239.5,-1235"/>
<polyline fill="none" stroke="black" points="239.5,-1235 239.5,-1067 "/>
<path fill="none" stroke="black" d="M239.5,-1067C239.5,-1061 245.5,-1055 251.5,-1055"/>
<text text-anchor="middle" x="306" y="-1230.4" font-family="Times,serif" font-size="14.00">Organization</text>
<polyline fill="none" stroke="black" points="239.5,-1223 372.5,-1223 "/>
<text text-anchor="start" x="247.5" y="-1206.4" font-family="Times,serif" font-size="14.00">name :string</text>
<text text-anchor="start" x="247.5" y="-1190.4" font-family="Times,serif" font-size="14.00">slug :string</text>
<text text-anchor="start" x="247.5" y="-1174.4" font-family="Times,serif" font-size="14.00">url :string</text>
<text text-anchor="start" x="247.5" y="-1158.4" font-family="Times,serif" font-size="14.00">address :string</text>
<text text-anchor="start" x="247.5" y="-1142.4" font-family="Times,serif" font-size="14.00">city :string</text>
<text text-anchor="start" x="247.5" y="-1126.4" font-family="Times,serif" font-size="14.00">state :string</text>
<text text-anchor="start" x="247.5" y="-1110.4" font-family="Times,serif" font-size="14.00">country :string</text>
<text text-anchor="start" x="247.5" y="-1094.4" font-family="Times,serif" font-size="14.00">postal_code :string</text>
<text text-anchor="start" x="247.5" y="-1078.4" font-family="Times,serif" font-size="14.00">created_at :datetime</text>
<text text-anchor="start" x="247.5" y="-1062.4" font-family="Times,serif" font-size="14.00">updated_at :datetime</text>
</g>
<!-- Project -->
<g id="node8" class="node"><title>Project</title>
<polyline fill="none" stroke="black" points="310,-857 468,-857 "/>
<path fill="none" stroke="black" d="M468,-857C474,-857 480,-863 480,-869"/>
<polyline fill="none" stroke="black" points="480,-869 480,-1005 "/>
<path fill="none" stroke="black" d="M480,-1005C480,-1011 474,-1017 468,-1017"/>
<polyline fill="none" stroke="black" points="468,-1017 310,-1017 "/>
<path fill="none" stroke="black" d="M310,-1017C304,-1017 298,-1011 298,-1005"/>
<polyline fill="none" stroke="black" points="298,-1005 298,-869 "/>
<path fill="none" stroke="black" d="M298,-869C298,-863 304,-857 310,-857"/>
<text text-anchor="middle" x="389" y="-1000.4" font-family="Times,serif" font-size="14.00">Project</text>
<polyline fill="none" stroke="black" points="298,-993 480,-993 "/>
<text text-anchor="start" x="306" y="-976.4" font-family="Times,serif" font-size="14.00">name :string</text>
<text text-anchor="start" x="306" y="-960.4" font-family="Times,serif" font-size="14.00">kind :string</text>
<text text-anchor="start" x="306" y="-944.4" font-family="Times,serif" font-size="14.00">created_at :datetime</text>
<text text-anchor="start" x="306" y="-928.4" font-family="Times,serif" font-size="14.00">updated_at :datetime</text>
<text text-anchor="start" x="306" y="-912.4" font-family="Times,serif" font-size="14.00">southwest_latitude :decimal</text>
<text text-anchor="start" x="306" y="-896.4" font-family="Times,serif" font-size="14.00">southwest_longitude :decimal</text>
<text text-anchor="start" x="306" y="-880.4" font-family="Times,serif" font-size="14.00">northeast_latitude :decimal</text>
<text text-anchor="start" x="306" y="-864.4" font-family="Times,serif" font-size="14.00">northeast_longitude :decimal</text>
</g>
<!-- Organization&#45;&gt;Project -->
<g id="edge12" class="edge"><title>Organization&#45;&gt;Project</title>
<path fill="none" stroke="black" d="M346.947,-1045.43C349.607,-1038.57 352.271,-1031.7 354.894,-1024.94"/>
<polygon fill="black" stroke="black" points="346.867,-1045.63 339.056,-1053.33 345.059,-1050.29 343.251,-1054.95 343.251,-1054.95 343.251,-1054.95 345.059,-1050.29 347.447,-1056.58 346.867,-1045.63 346.867,-1045.63"/>
<ellipse fill="black" stroke="black" cx="356.505" cy="-1020.78" rx="4.00001" ry="4.00001"/>
</g>
<!-- User -->
<g id="node14" class="node"><title>User</title>
<polyline fill="none" stroke="black" points="83.5,-419 264.5,-419 "/>
<path fill="none" stroke="black" d="M264.5,-419C270.5,-419 276.5,-425 276.5,-431"/>
<polyline fill="none" stroke="black" points="276.5,-431 276.5,-807 "/>
<path fill="none" stroke="black" d="M276.5,-807C276.5,-813 270.5,-819 264.5,-819"/>
<polyline fill="none" stroke="black" points="264.5,-819 83.5,-819 "/>
<path fill="none" stroke="black" d="M83.5,-819C77.5,-819 71.5,-813 71.5,-807"/>
<polyline fill="none" stroke="black" points="71.5,-807 71.5,-431 "/>
<path fill="none" stroke="black" d="M71.5,-431C71.5,-425 77.5,-419 83.5,-419"/>
<text text-anchor="middle" x="174" y="-802.4" font-family="Times,serif" font-size="14.00">User</text>
<polyline fill="none" stroke="black" points="71.5,-795 276.5,-795 "/>
<text text-anchor="start" x="79.5" y="-778.4" font-family="Times,serif" font-size="14.00">first_name :string</text>
<text text-anchor="start" x="79.5" y="-762.4" font-family="Times,serif" font-size="14.00">last_name :string</text>
<text text-anchor="start" x="79.5" y="-746.4" font-family="Times,serif" font-size="14.00">email :string</text>
<text text-anchor="start" x="79.5" y="-730.4" font-family="Times,serif" font-size="14.00">phone_number :string</text>
<text text-anchor="start" x="79.5" y="-714.4" font-family="Times,serif" font-size="14.00">organization_billing :boolean</text>
<text text-anchor="start" x="79.5" y="-698.4" font-family="Times,serif" font-size="14.00">organization_manager :boolean</text>
<text text-anchor="start" x="79.5" y="-682.4" font-family="Times,serif" font-size="14.00">orgup_admin :boolean</text>
<text text-anchor="start" x="79.5" y="-666.4" font-family="Times,serif" font-size="14.00">orgup_api :boolean</text>
<text text-anchor="start" x="79.5" y="-650.4" font-family="Times,serif" font-size="14.00">encrypted_password :string</text>
<text text-anchor="start" x="79.5" y="-634.4" font-family="Times,serif" font-size="14.00">invitation_token :string</text>
<text text-anchor="start" x="79.5" y="-618.4" font-family="Times,serif" font-size="14.00">invitation_sent_at :datetime</text>
<text text-anchor="start" x="79.5" y="-602.4" font-family="Times,serif" font-size="14.00">invitation_accepted_at :datetime</text>
<text text-anchor="start" x="79.5" y="-586.4" font-family="Times,serif" font-size="14.00">invitation_limit :integer</text>
<text text-anchor="start" x="79.5" y="-570.4" font-family="Times,serif" font-size="14.00">invited_by_type :string</text>
<text text-anchor="start" x="79.5" y="-554.4" font-family="Times,serif" font-size="14.00">reset_password_token :string</text>
<text text-anchor="start" x="79.5" y="-538.4" font-family="Times,serif" font-size="14.00">reset_password_sent_at :datetime</text>
<text text-anchor="start" x="79.5" y="-522.4" font-family="Times,serif" font-size="14.00">remember_created_at :datetime</text>
<text text-anchor="start" x="79.5" y="-506.4" font-family="Times,serif" font-size="14.00">current_sign_in_at :datetime</text>
<text text-anchor="start" x="79.5" y="-490.4" font-family="Times,serif" font-size="14.00">last_sign_in_at :datetime</text>
<text text-anchor="start" x="79.5" y="-474.4" font-family="Times,serif" font-size="14.00">current_sign_in_ip :string</text>
<text text-anchor="start" x="79.5" y="-458.4" font-family="Times,serif" font-size="14.00">last_sign_in_ip :string</text>
<text text-anchor="start" x="79.5" y="-442.4" font-family="Times,serif" font-size="14.00">created_at :datetime</text>
<text text-anchor="start" x="79.5" y="-426.4" font-family="Times,serif" font-size="14.00">updated_at :datetime</text>
</g>
<!-- Organization&#45;&gt;User -->
<g id="edge10" class="edge"><title>Organization&#45;&gt;User</title>
<path fill="none" stroke="black" d="M279.746,-1045.19C264.293,-982.91 244.209,-901.963 225.7,-827.368"/>
<polygon fill="black" stroke="black" points="279.764,-1045.26 277.805,-1056.05 280.968,-1050.11 282.172,-1054.97 282.172,-1054.97 282.172,-1054.97 280.968,-1050.11 286.54,-1053.88 279.764,-1045.26 279.764,-1045.26"/>
<ellipse fill="black" stroke="black" cx="224.647" cy="-823.123" rx="4.00001" ry="4.00001"/>
</g>
<!-- Project&#45;&gt;CountSession -->
<g id="edge24" class="edge"><title>Project&#45;&gt;CountSession</title>
<path fill="none" stroke="black" d="M365.872,-846.972C364.018,-837.9 362.345,-828.794 361,-820 323.81,-576.914 367.168,-509.915 323,-268 321.256,-258.445 318.879,-248.482 316.242,-238.778"/>
<polygon fill="black" stroke="black" points="365.879,-847.002 363.546,-857.717 366.913,-851.894 367.948,-856.786 367.948,-856.786 367.948,-856.786 366.913,-851.894 372.351,-855.854 365.879,-847.002 365.879,-847.002"/>
<ellipse fill="black" stroke="black" cx="315.159" cy="-234.915" rx="4.00001" ry="4.00001"/>
</g>
<!-- Project&#45;&gt;GeoPoint -->
<g id="edge20" class="edge"><title>Project&#45;&gt;GeoPoint</title>
<path fill="none" stroke="black" d="M488.861,-892.708C521.982,-874.111 556.79,-849.791 582,-820 615.347,-780.594 635.947,-725.562 647.875,-683.042"/>
<polygon fill="black" stroke="black" points="488.796,-892.743 477.865,-893.611 484.413,-895.15 480.03,-897.556 480.03,-897.556 480.03,-897.556 484.413,-895.15 482.196,-901.501 488.796,-892.743 488.796,-892.743"/>
<ellipse fill="black" stroke="black" cx="648.948" cy="-679.114" rx="4.00001" ry="4.00001"/>
</g>
<!-- Project&#45;&gt;GeoPointOnSegment -->
<g id="edge22" class="edge"><title>Project&#45;&gt;GeoPointOnSegment</title>
<path fill="none" stroke="black" d="M488.377,-882.266C510.605,-865.259 531.553,-844.434 545,-820 574.717,-766.002 590.966,-330.484 594.997,-207.333"/>
<polygon fill="black" stroke="black" points="488.18,-882.412 477.465,-884.742 484.161,-885.386 480.141,-888.359 480.141,-888.359 480.141,-888.359 484.161,-885.386 482.818,-891.977 488.18,-882.412 488.18,-882.412"/>
<ellipse fill="black" stroke="black" cx="595.137" cy="-203.013" rx="4" ry="4"/>
</g>
<!-- ProjectMember -->
<g id="node9" class="node"><title>ProjectMember</title>
<polyline fill="none" stroke="black" points="193.5,-269 302.5,-269 "/>
<path fill="none" stroke="black" d="M302.5,-269C308.5,-269 314.5,-275 314.5,-281"/>
<polyline fill="none" stroke="black" points="314.5,-281 314.5,-369 "/>
<path fill="none" stroke="black" d="M314.5,-369C314.5,-375 308.5,-381 302.5,-381"/>
<polyline fill="none" stroke="black" points="302.5,-381 193.5,-381 "/>
<path fill="none" stroke="black" d="M193.5,-381C187.5,-381 181.5,-375 181.5,-369"/>
<polyline fill="none" stroke="black" points="181.5,-369 181.5,-281 "/>
<path fill="none" stroke="black" d="M181.5,-281C181.5,-275 187.5,-269 193.5,-269"/>
<text text-anchor="middle" x="248" y="-364.4" font-family="Times,serif" font-size="14.00">ProjectMember</text>
<polyline fill="none" stroke="black" points="181.5,-357 314.5,-357 "/>
<text text-anchor="start" x="189.5" y="-340.4" font-family="Times,serif" font-size="14.00">view :boolean</text>
<text text-anchor="start" x="189.5" y="-324.4" font-family="Times,serif" font-size="14.00">edit :boolean</text>
<text text-anchor="start" x="189.5" y="-308.4" font-family="Times,serif" font-size="14.00">manage :boolean</text>
<text text-anchor="start" x="189.5" y="-292.4" font-family="Times,serif" font-size="14.00">created_at :datetime</text>
<text text-anchor="start" x="189.5" y="-276.4" font-family="Times,serif" font-size="14.00">updated_at :datetime</text>
</g>
<!-- Project&#45;&gt;ProjectMember -->
<g id="edge14" class="edge"><title>Project&#45;&gt;ProjectMember</title>
<path fill="none" stroke="black" d="M338.101,-847.434C334.224,-838.352 330.755,-829.114 328,-820 276.003,-648.002 328.166,-592.424 285,-418 282.628,-408.417 279.487,-398.507 276.035,-388.887"/>
<polygon fill="black" stroke="black" points="338.216,-847.692 338.165,-858.658 340.246,-852.262 342.277,-856.831 342.277,-856.831 342.277,-856.831 340.246,-852.262 346.389,-855.003 338.216,-847.692 338.216,-847.692"/>
<ellipse fill="black" stroke="black" cx="274.596" cy="-384.998" rx="4.00001" ry="4.00001"/>
</g>
<!-- Scenario -->
<g id="node10" class="node"><title>Scenario</title>
<polyline fill="none" stroke="black" points="381.5,-579 490.5,-579 "/>
<path fill="none" stroke="black" d="M490.5,-579C496.5,-579 502.5,-585 502.5,-591"/>
<polyline fill="none" stroke="black" points="502.5,-591 502.5,-647 "/>
<path fill="none" stroke="black" d="M502.5,-647C502.5,-653 496.5,-659 490.5,-659"/>
<polyline fill="none" stroke="black" points="490.5,-659 381.5,-659 "/>
<path fill="none" stroke="black" d="M381.5,-659C375.5,-659 369.5,-653 369.5,-647"/>
<polyline fill="none" stroke="black" points="369.5,-647 369.5,-591 "/>
<path fill="none" stroke="black" d="M369.5,-591C369.5,-585 375.5,-579 381.5,-579"/>
<text text-anchor="middle" x="436" y="-642.4" font-family="Times,serif" font-size="14.00">Scenario</text>
<polyline fill="none" stroke="black" points="369.5,-635 502.5,-635 "/>
<text text-anchor="start" x="377.5" y="-618.4" font-family="Times,serif" font-size="14.00">name :string</text>
<text text-anchor="start" x="377.5" y="-602.4" font-family="Times,serif" font-size="14.00">created_at :datetime</text>
<text text-anchor="start" x="377.5" y="-586.4" font-family="Times,serif" font-size="14.00">updated_at :datetime</text>
</g>
<!-- Project&#45;&gt;Scenario -->
<g id="edge26" class="edge"><title>Project&#45;&gt;Scenario</title>
<path fill="none" stroke="black" d="M402.357,-846.625C410.972,-788.341 421.836,-714.833 428.849,-667.382"/>
<polygon fill="black" stroke="black" points="402.322,-846.863 396.408,-856.097 401.591,-851.809 400.86,-856.755 400.86,-856.755 400.86,-856.755 401.591,-851.809 405.312,-857.413 402.322,-846.863 402.322,-846.863"/>
<ellipse fill="black" stroke="black" cx="429.442" cy="-663.373" rx="4.00001" ry="4.00001"/>
</g>
<!-- Project&#45;&gt;Segment -->
<g id="edge18" class="edge"><title>Project&#45;&gt;Segment</title>
<path fill="none" stroke="black" d="M486.721,-859.038C496.53,-847.036 505.05,-833.95 511,-820 581.095,-655.658 544.624,-593.474 511,-418 507.543,-399.96 500.633,-380.963 493.711,-364.873"/>
<polygon fill="black" stroke="black" points="486.607,-859.171 476.685,-863.84 483.355,-862.969 480.103,-866.767 480.103,-866.767 480.103,-866.767 483.355,-862.969 483.521,-869.694 486.607,-859.171 486.607,-859.171"/>
<ellipse fill="black" stroke="black" cx="491.945" cy="-360.884" rx="4.00002" ry="4.00002"/>
</g>
<!-- Project&#45;&gt;User -->
<g id="edge16" class="edge"><title>Project&#45;&gt;User</title>
<path fill="none" stroke="black" d="M311.695,-848.976C304.125,-839.381 296.756,-829.608 290,-820 287.387,-816.284 284.78,-812.506 282.182,-808.679"/>
<polygon fill="black" stroke="black" points="311.853,-849.173 314.577,-859.795 314.973,-853.08 318.093,-856.987 318.093,-856.987 318.093,-856.987 314.973,-853.08 321.609,-854.179 311.853,-849.173 311.853,-849.173"/>
<polygon fill="black" stroke="black" points="282.082,-808.529 280.25,-797.718 279.298,-804.377 276.513,-800.224 276.513,-800.224 276.513,-800.224 279.298,-804.377 272.775,-802.73 282.082,-808.529 282.082,-808.529"/>
</g>
<!-- Scenario&#45;&gt;Segment -->
<g id="edge30" class="edge"><title>Scenario&#45;&gt;Segment</title>
<path fill="none" stroke="black" d="M442.51,-568.633C449.853,-511.825 461.663,-420.448 468.542,-367.226"/>
<polygon fill="black" stroke="black" points="442.486,-568.82 436.741,-578.16 441.845,-573.778 441.204,-578.737 441.204,-578.737 441.204,-578.737 441.845,-573.778 445.667,-579.314 442.486,-568.82 442.486,-568.82"/>
<polygon fill="black" stroke="black" points="468.568,-367.029 474.312,-357.689 469.209,-362.07 469.85,-357.112 469.85,-357.112 469.85,-357.112 469.209,-362.07 465.387,-356.535 468.568,-367.029 468.568,-367.029"/>
</g>
<!-- SegmentInScenario -->
<g id="node12" class="node"><title>SegmentInScenario</title>
<polyline fill="none" stroke="black" points="390.5,-135 499.5,-135 "/>
<path fill="none" stroke="black" d="M499.5,-135C505.5,-135 511.5,-141 511.5,-147"/>
<polyline fill="none" stroke="black" points="511.5,-147 511.5,-203 "/>
<path fill="none" stroke="black" d="M511.5,-203C511.5,-209 505.5,-215 499.5,-215"/>
<polyline fill="none" stroke="black" points="499.5,-215 390.5,-215 "/>
<path fill="none" stroke="black" d="M390.5,-215C384.5,-215 378.5,-209 378.5,-203"/>
<polyline fill="none" stroke="black" points="378.5,-203 378.5,-147 "/>
<path fill="none" stroke="black" d="M378.5,-147C378.5,-141 384.5,-135 390.5,-135"/>
<text text-anchor="middle" x="445" y="-198.4" font-family="Times,serif" font-size="14.00">SegmentInScenario</text>
<polyline fill="none" stroke="black" points="378.5,-191 511.5,-191 "/>
<text text-anchor="start" x="386.5" y="-174.4" font-family="Times,serif" font-size="14.00">status :string</text>
<text text-anchor="start" x="386.5" y="-158.4" font-family="Times,serif" font-size="14.00">created_at :datetime</text>
<text text-anchor="start" x="386.5" y="-142.4" font-family="Times,serif" font-size="14.00">updated_at :datetime</text>
</g>
<!-- Scenario&#45;&gt;SegmentInScenario -->
<g id="edge28" class="edge"><title>Scenario&#45;&gt;SegmentInScenario</title>
<path fill="none" stroke="black" d="M420.487,-569.297C401.389,-500.693 374.336,-373.493 399,-268 402.632,-252.466 409.256,-236.55 416.367,-222.375"/>
<polygon fill="black" stroke="black" points="420.506,-569.365 418.911,-580.214 421.873,-574.175 423.24,-578.984 423.24,-578.984 423.24,-578.984 421.873,-574.175 427.568,-577.754 420.506,-569.365 420.506,-569.365"/>
<ellipse fill="black" stroke="black" cx="418.278" cy="-218.684" rx="4.00002" ry="4.00002"/>
</g>
<!-- Segment&#45;&gt;CountSession -->
<g id="edge32" class="edge"><title>Segment&#45;&gt;CountSession</title>
<path fill="none" stroke="black" d="M427.784,-286.272C409.502,-270.951 388.045,-252.971 367.775,-235.985"/>
<polygon fill="black" stroke="black" points="427.935,-286.398 432.71,-296.27 431.768,-289.61 435.6,-292.821 435.6,-292.821 435.6,-292.821 431.768,-289.61 438.49,-289.372 427.935,-286.398 427.935,-286.398"/>
<ellipse fill="black" stroke="black" cx="364.594" cy="-233.319" rx="4.00002" ry="4.00002"/>
</g>
<!-- Segment&#45;&gt;GeoPointOnSegment -->
<g id="edge36" class="edge"><title>Segment&#45;&gt;GeoPointOnSegment</title>
<path fill="none" stroke="black" d="M506.545,-284.985C526.851,-260.019 552.578,-228.388 571.224,-205.462"/>
<polygon fill="black" stroke="black" points="506.482,-285.063 496.681,-289.982 503.327,-288.942 500.172,-292.821 500.172,-292.821 500.172,-292.821 503.327,-288.942 503.663,-295.661 506.482,-285.063 506.482,-285.063"/>
<ellipse fill="black" stroke="black" cx="573.761" cy="-202.343" rx="4.00002" ry="4.00002"/>
</g>
<!-- Segment&#45;&gt;SegmentInScenario -->
<g id="edge34" class="edge"><title>Segment&#45;&gt;SegmentInScenario</title>
<path fill="none" stroke="black" d="M465.842,-282.805C462.257,-264.259 458.027,-242.379 454.317,-223.194"/>
<polygon fill="black" stroke="black" points="465.881,-283.003 463.361,-293.675 466.83,-287.912 467.779,-292.821 467.779,-292.821 467.779,-292.821 466.83,-287.912 472.197,-291.967 465.881,-283.003 465.881,-283.003"/>
<ellipse fill="black" stroke="black" cx="453.522" cy="-219.081" rx="4.00001" ry="4.00001"/>
</g>
<!-- Subscription -->
<g id="node13" class="node"><title>Subscription</title>
<polyline fill="none" stroke="black" points="249.5,-1285 362.5,-1285 "/>
<path fill="none" stroke="black" d="M362.5,-1285C368.5,-1285 374.5,-1291 374.5,-1297"/>
<polyline fill="none" stroke="black" points="374.5,-1297 374.5,-1417 "/>
<path fill="none" stroke="black" d="M374.5,-1417C374.5,-1423 368.5,-1429 362.5,-1429"/>
<polyline fill="none" stroke="black" points="362.5,-1429 249.5,-1429 "/>
<path fill="none" stroke="black" d="M249.5,-1429C243.5,-1429 237.5,-1423 237.5,-1417"/>
<polyline fill="none" stroke="black" points="237.5,-1417 237.5,-1297 "/>
<path fill="none" stroke="black" d="M237.5,-1297C237.5,-1291 243.5,-1285 249.5,-1285"/>
<text text-anchor="middle" x="306" y="-1412.4" font-family="Times,serif" font-size="14.00">Subscription</text>
<polyline fill="none" stroke="black" points="237.5,-1405 374.5,-1405 "/>
<text text-anchor="start" x="245.5" y="-1388.4" font-family="Times,serif" font-size="14.00">name :string</text>
<text text-anchor="start" x="245.5" y="-1372.4" font-family="Times,serif" font-size="14.00">uses_ped :boolean</text>
<text text-anchor="start" x="245.5" y="-1356.4" font-family="Times,serif" font-size="14.00">uses_sign :boolean</text>
<text text-anchor="start" x="245.5" y="-1340.4" font-family="Times,serif" font-size="14.00">max_users :integer</text>
<text text-anchor="start" x="245.5" y="-1324.4" font-family="Times,serif" font-size="14.00">max_projects :integer</text>
<text text-anchor="start" x="245.5" y="-1308.4" font-family="Times,serif" font-size="14.00">created_at :datetime</text>
<text text-anchor="start" x="245.5" y="-1292.4" font-family="Times,serif" font-size="14.00">updated_at :datetime</text>
</g>
<!-- Subscription&#45;&gt;Organization -->
<g id="edge38" class="edge"><title>Subscription&#45;&gt;Organization</title>
<path fill="none" stroke="black" d="M306,-1274.83C306,-1268.46 306,-1261.98 306,-1255.48"/>
<polygon fill="black" stroke="black" points="306,-1274.95 301.5,-1284.95 306,-1279.95 306,-1284.95 306,-1284.95 306,-1284.95 306,-1279.95 310.5,-1284.95 306,-1274.95 306,-1274.95"/>
<ellipse fill="black" stroke="black" cx="306" cy="-1251.27" rx="4" ry="4"/>
</g>
<!-- User&#45;&gt;CountSession -->
<g id="edge42" class="edge"><title>User&#45;&gt;CountSession</title>
<path fill="none" stroke="black" d="M142.615,-408.455C143.676,-360.353 151.796,-310.827 173,-268 183.776,-246.235 202.356,-228.175 221.812,-213.943"/>
<polygon fill="black" stroke="black" points="142.613,-408.696 137.994,-418.642 142.553,-413.696 142.494,-418.695 142.494,-418.695 142.494,-418.695 142.553,-413.696 146.994,-418.749 142.613,-408.696 142.613,-408.696"/>
<ellipse fill="black" stroke="black" cx="225.167" cy="-211.572" rx="4.00002" ry="4.00002"/>
</g>
<!-- User&#45;&gt;ProjectMember -->
<g id="edge40" class="edge"><title>User&#45;&gt;ProjectMember</title>
<path fill="none" stroke="black" d="M226.882,-408.903C228.613,-402.023 230.287,-395.372 231.885,-389.026"/>
<polygon fill="black" stroke="black" points="226.823,-409.134 220.019,-417.733 225.603,-413.983 224.382,-418.832 224.382,-418.832 224.382,-418.832 225.603,-413.983 228.746,-419.93 226.823,-409.134 226.823,-409.134"/>
<ellipse fill="black" stroke="black" cx="232.888" cy="-385.038" rx="4.00001" ry="4.00001"/>
</g>
</g>
</svg>
