<?xml version="1.0" encoding="UTF-8" standalone="no"?>
<!DOCTYPE svg PUBLIC "-//W3C//DTD SVG 1.1//EN"
 "http://www.w3.org/Graphics/SVG/1.1/DTD/svg11.dtd">
<!-- Generated by graphviz version 2.28.0 (20111007.0113)
 -->
<!-- Title: models_diagram Pages: 1 -->
<svg width="844pt" height="1480pt"
 viewBox="0.00 0.00 844.00 1480.00" xmlns="http://www.w3.org/2000/svg" xmlns:xlink="http://www.w3.org/1999/xlink">
<g id="graph1" class="graph" transform="scale(1 1) rotate(0) translate(4 1476)">
<title>models_diagram</title>
<polygon fill="white" stroke="white" points="-4,5 -4,-1476 841,-1476 841,5 -4,5"/>
<!-- _diagram_info -->
<g id="node1" class="node"><title>_diagram_info</title>
<text text-anchor="start" x="146" y="-1322.4" font-family="Times,serif" font-size="14.00">Models diagram</text>
<text text-anchor="start" x="146" y="-1306.4" font-family="Times,serif" font-size="14.00">Date: Feb 17 2012 &#45; 17:25</text>
<text text-anchor="start" x="146" y="-1290.4" font-family="Times,serif" font-size="14.00">Migration version: 20120215233243</text>
<text text-anchor="start" x="146" y="-1274.4" font-family="Times,serif" font-size="14.00">Generated by RailRoad 0.5.0</text>
</g>
<!-- Count -->
<g id="node2" class="node"><title>Count</title>
<polyline fill="none" stroke="black" points="379.5,-1 488.5,-1 "/>
<path fill="none" stroke="black" d="M488.5,-1C494.5,-1 500.5,-7 500.5,-13"/>
<polyline fill="none" stroke="black" points="500.5,-13 500.5,-69 "/>
<path fill="none" stroke="black" d="M500.5,-69C500.5,-75 494.5,-81 488.5,-81"/>
<polyline fill="none" stroke="black" points="488.5,-81 379.5,-81 "/>
<path fill="none" stroke="black" d="M379.5,-81C373.5,-81 367.5,-75 367.5,-69"/>
<polyline fill="none" stroke="black" points="367.5,-69 367.5,-13 "/>
<path fill="none" stroke="black" d="M367.5,-13C367.5,-7 373.5,-1 379.5,-1"/>
<text text-anchor="middle" x="434" y="-64.4" font-family="Times,serif" font-size="14.00">Count</text>
<polyline fill="none" stroke="black" points="367.5,-57 500.5,-57 "/>
<text text-anchor="start" x="375.5" y="-40.4" font-family="Times,serif" font-size="14.00">at :datetime</text>
<text text-anchor="start" x="375.5" y="-24.4" font-family="Times,serif" font-size="14.00">created_at :datetime</text>
<text text-anchor="start" x="375.5" y="-8.4" font-family="Times,serif" font-size="14.00">updated_at :datetime</text>
</g>
<!-- CountSession -->
<g id="node3" class="node"><title>CountSession</title>
<polyline fill="none" stroke="black" points="379.5,-119 488.5,-119 "/>
<path fill="none" stroke="black" d="M488.5,-119C494.5,-119 500.5,-125 500.5,-131"/>
<polyline fill="none" stroke="black" points="500.5,-131 500.5,-235 "/>
<path fill="none" stroke="black" d="M500.5,-235C500.5,-241 494.5,-247 488.5,-247"/>
<polyline fill="none" stroke="black" points="488.5,-247 379.5,-247 "/>
<path fill="none" stroke="black" d="M379.5,-247C373.5,-247 367.5,-241 367.5,-235"/>
<polyline fill="none" stroke="black" points="367.5,-235 367.5,-131 "/>
<path fill="none" stroke="black" d="M367.5,-131C367.5,-125 373.5,-119 379.5,-119"/>
<text text-anchor="middle" x="434" y="-230.4" font-family="Times,serif" font-size="14.00">CountSession</text>
<polyline fill="none" stroke="black" points="367.5,-223 500.5,-223 "/>
<text text-anchor="start" x="375.5" y="-206.4" font-family="Times,serif" font-size="14.00">start :datetime</text>
<text text-anchor="start" x="375.5" y="-190.4" font-family="Times,serif" font-size="14.00">stop :datetime</text>
<text text-anchor="start" x="375.5" y="-174.4" font-family="Times,serif" font-size="14.00">status :string</text>
<text text-anchor="start" x="375.5" y="-158.4" font-family="Times,serif" font-size="14.00">created_at :datetime</text>
<text text-anchor="start" x="375.5" y="-142.4" font-family="Times,serif" font-size="14.00">updated_at :datetime</text>
<text text-anchor="start" x="375.5" y="-126.4" font-family="Times,serif" font-size="14.00">count_total :integer</text>
</g>
<!-- CountSession&#45;&gt;Count -->
<g id="edge2" class="edge"><title>CountSession&#45;&gt;Count</title>
<path fill="none" stroke="black" d="M434,-108.937C434,-102.322 434,-95.7431 434,-89.4377"/>
<polygon fill="black" stroke="black" points="434,-108.962 429.5,-118.962 434,-113.962 434,-118.962 434,-118.962 434,-118.962 434,-113.962 438.5,-118.962 434,-108.962 434,-108.962"/>
<ellipse fill="black" stroke="black" cx="434" cy="-85.0312" rx="4" ry="4"/>
</g>
<!-- DataSource -->
<g id="node4" class="node"><title>DataSource</title>
<polyline fill="none" stroke="black" points="11.5,-953 120.5,-953 "/>
<path fill="none" stroke="black" d="M120.5,-953C126.5,-953 132.5,-959 132.5,-965"/>
<polyline fill="none" stroke="black" points="132.5,-965 132.5,-1037 "/>
<path fill="none" stroke="black" d="M132.5,-1037C132.5,-1043 126.5,-1049 120.5,-1049"/>
<polyline fill="none" stroke="black" points="120.5,-1049 11.5,-1049 "/>
<path fill="none" stroke="black" d="M11.5,-1049C5.5,-1049 -0.5,-1043 -0.5,-1037"/>
<polyline fill="none" stroke="black" points="-0.5,-1037 -0.5,-965 "/>
<path fill="none" stroke="black" d="M-0.5,-965C-0.5,-959 5.5,-953 11.5,-953"/>
<text text-anchor="middle" x="66" y="-1032.4" font-family="Times,serif" font-size="14.00">DataSource</text>
<polyline fill="none" stroke="black" points="-0.5,-1025 132.5,-1025 "/>
<text text-anchor="start" x="7.5" y="-1008.4" font-family="Times,serif" font-size="14.00">name :string</text>
<text text-anchor="start" x="7.5" y="-992.4" font-family="Times,serif" font-size="14.00">kind :string</text>
<text text-anchor="start" x="7.5" y="-976.4" font-family="Times,serif" font-size="14.00">created_at :datetime</text>
<text text-anchor="start" x="7.5" y="-960.4" font-family="Times,serif" font-size="14.00">updated_at :datetime</text>
</g>
<!-- GeoPoint -->
<g id="node5" class="node"><title>GeoPoint</title>
<polyline fill="none" stroke="black" points="11.5,-611 120.5,-611 "/>
<path fill="none" stroke="black" d="M120.5,-611C126.5,-611 132.5,-617 132.5,-623"/>
<polyline fill="none" stroke="black" points="132.5,-623 132.5,-711 "/>
<path fill="none" stroke="black" d="M132.5,-711C132.5,-717 126.5,-723 120.5,-723"/>
<polyline fill="none" stroke="black" points="120.5,-723 11.5,-723 "/>
<path fill="none" stroke="black" d="M11.5,-723C5.5,-723 -0.5,-717 -0.5,-711"/>
<polyline fill="none" stroke="black" points="-0.5,-711 -0.5,-623 "/>
<path fill="none" stroke="black" d="M-0.5,-623C-0.5,-617 5.5,-611 11.5,-611"/>
<text text-anchor="middle" x="66" y="-706.4" font-family="Times,serif" font-size="14.00">GeoPoint</text>
<polyline fill="none" stroke="black" points="-0.5,-699 132.5,-699 "/>
<text text-anchor="start" x="7.5" y="-682.4" font-family="Times,serif" font-size="14.00">latitude :decimal</text>
<text text-anchor="start" x="7.5" y="-666.4" font-family="Times,serif" font-size="14.00">longitude :decimal</text>
<text text-anchor="start" x="7.5" y="-650.4" font-family="Times,serif" font-size="14.00">accuracy :decimal</text>
<text text-anchor="start" x="7.5" y="-634.4" font-family="Times,serif" font-size="14.00">created_at :datetime</text>
<text text-anchor="start" x="7.5" y="-618.4" font-family="Times,serif" font-size="14.00">updated_at :datetime</text>
</g>
<!-- DataSource&#45;&gt;GeoPoint -->
<g id="edge4" class="edge"><title>DataSource&#45;&gt;GeoPoint</title>
<path fill="none" stroke="black" d="M66,-942.459C66,-883.477 66,-792.006 66,-731.083"/>
<polygon fill="black" stroke="black" points="66.0001,-942.785 61.5,-952.785 66,-947.785 66,-952.785 66,-952.785 66,-952.785 66,-947.785 70.5,-952.785 66.0001,-942.785 66.0001,-942.785"/>
<ellipse fill="black" stroke="black" cx="66" cy="-727.067" rx="4" ry="4"/>
</g>
<!-- GeoPointOnSegment -->
<g id="node6" class="node"><title>GeoPointOnSegment</title>
<polyline fill="none" stroke="black" points="75.5,-159 186.5,-159 "/>
<path fill="none" stroke="black" d="M186.5,-159C192.5,-159 198.5,-165 198.5,-171"/>
<polyline fill="none" stroke="black" points="198.5,-171 198.5,-195 "/>
<path fill="none" stroke="black" d="M198.5,-195C198.5,-201 192.5,-207 186.5,-207"/>
<polyline fill="none" stroke="black" points="186.5,-207 75.5,-207 "/>
<path fill="none" stroke="black" d="M75.5,-207C69.5,-207 63.5,-201 63.5,-195"/>
<polyline fill="none" stroke="black" points="63.5,-195 63.5,-171 "/>
<path fill="none" stroke="black" d="M63.5,-171C63.5,-165 69.5,-159 75.5,-159"/>
<text text-anchor="middle" x="131" y="-190.4" font-family="Times,serif" font-size="14.00">GeoPointOnSegment</text>
<polyline fill="none" stroke="black" points="63.5,-183 198.5,-183 "/>
</g>
<!-- GeoPoint&#45;&gt;GeoPointOnSegment -->
<g id="edge8" class="edge"><title>GeoPoint&#45;&gt;GeoPointOnSegment</title>
<path fill="none" stroke="black" d="M74.8344,-600.489C89.0249,-495.261 116.362,-292.549 126.804,-215.112"/>
<polygon fill="black" stroke="black" points="74.7929,-600.798 68.9967,-610.107 74.1246,-605.753 73.4563,-610.708 73.4563,-610.708 73.4563,-610.708 74.1246,-605.753 77.916,-611.31 74.7929,-600.798 74.7929,-600.798"/>
<ellipse fill="black" stroke="black" cx="127.343" cy="-211.121" rx="4.00001" ry="4.00001"/>
</g>
<!-- Segment -->
<g id="node12" class="node"><title>Segment</title>
<polyline fill="none" stroke="black" points="193,-293 319,-293 "/>
<path fill="none" stroke="black" d="M319,-293C325,-293 331,-299 331,-305"/>
<polyline fill="none" stroke="black" points="331,-305 331,-409 "/>
<path fill="none" stroke="black" d="M331,-409C331,-415 325,-421 319,-421"/>
<polyline fill="none" stroke="black" points="319,-421 193,-421 "/>
<path fill="none" stroke="black" d="M193,-421C187,-421 181,-415 181,-409"/>
<polyline fill="none" stroke="black" points="181,-409 181,-305 "/>
<path fill="none" stroke="black" d="M181,-305C181,-299 187,-293 193,-293"/>
<text text-anchor="middle" x="256" y="-404.4" font-family="Times,serif" font-size="14.00">Segment</text>
<polyline fill="none" stroke="black" points="181,-397 331,-397 "/>
<text text-anchor="start" x="189" y="-380.4" font-family="Times,serif" font-size="14.00">created_at :datetime</text>
<text text-anchor="start" x="189" y="-364.4" font-family="Times,serif" font-size="14.00">updated_at :datetime</text>
<text text-anchor="start" x="189" y="-348.4" font-family="Times,serif" font-size="14.00">start_longitude :decimal</text>
<text text-anchor="start" x="189" y="-332.4" font-family="Times,serif" font-size="14.00">start_latitude :decimal</text>
<text text-anchor="start" x="189" y="-316.4" font-family="Times,serif" font-size="14.00">end_longitude :decimal</text>
<text text-anchor="start" x="189" y="-300.4" font-family="Times,serif" font-size="14.00">end_latitude :decimal</text>
</g>
<!-- GeoPoint&#45;&gt;Segment -->
<g id="edge6" class="edge"><title>GeoPoint&#45;&gt;Segment</title>
<path fill="none" stroke="black" d="M105.306,-602.284C136.325,-551.999 179.592,-481.861 211.811,-429.633"/>
<polygon fill="black" stroke="black" points="105.218,-602.425 96.1383,-608.573 102.593,-606.68 99.9682,-610.936 99.9682,-610.936 99.9682,-610.936 102.593,-606.68 103.798,-613.298 105.218,-602.425 105.218,-602.425"/>
<polygon fill="black" stroke="black" points="211.835,-429.594 220.915,-423.446 214.46,-425.339 217.085,-421.083 217.085,-421.083 217.085,-421.083 214.46,-425.339 213.255,-418.721 211.835,-429.594 211.835,-429.594"/>
</g>
<!-- ModelJob -->
<g id="node7" class="node"><title>ModelJob</title>
<polyline fill="none" stroke="black" points="437,-571 563,-571 "/>
<path fill="none" stroke="black" d="M563,-571C569,-571 575,-577 575,-583"/>
<polyline fill="none" stroke="black" points="575,-583 575,-751 "/>
<path fill="none" stroke="black" d="M575,-751C575,-757 569,-763 563,-763"/>
<polyline fill="none" stroke="black" points="563,-763 437,-763 "/>
<path fill="none" stroke="black" d="M437,-763C431,-763 425,-757 425,-751"/>
<polyline fill="none" stroke="black" points="425,-751 425,-583 "/>
<path fill="none" stroke="black" d="M425,-583C425,-577 431,-571 437,-571"/>
<text text-anchor="middle" x="500" y="-746.4" font-family="Times,serif" font-size="14.00">ModelJob</text>
<polyline fill="none" stroke="black" points="425,-739 575,-739 "/>
<text text-anchor="start" x="433" y="-722.4" font-family="Times,serif" font-size="14.00">kind :string</text>
<text text-anchor="start" x="433" y="-706.4" font-family="Times,serif" font-size="14.00">parameters :text</text>
<text text-anchor="start" x="433" y="-690.4" font-family="Times,serif" font-size="14.00">output :text</text>
<text text-anchor="start" x="433" y="-674.4" font-family="Times,serif" font-size="14.00">started :boolean</text>
<text text-anchor="start" x="433" y="-658.4" font-family="Times,serif" font-size="14.00">finished :boolean</text>
<text text-anchor="start" x="433" y="-642.4" font-family="Times,serif" font-size="14.00">picked_up :boolean</text>
<text text-anchor="start" x="433" y="-626.4" font-family="Times,serif" font-size="14.00">seconds_to_run :integer</text>
<text text-anchor="start" x="433" y="-610.4" font-family="Times,serif" font-size="14.00">created_at :datetime</text>
<text text-anchor="start" x="433" y="-594.4" font-family="Times,serif" font-size="14.00">updated_at :datetime</text>
<text text-anchor="start" x="433" y="-578.4" font-family="Times,serif" font-size="14.00">project_version :integer</text>
</g>
<!-- Organization -->
<g id="node8" class="node"><title>Organization</title>
<polyline fill="none" stroke="black" points="388,-1135 744,-1135 "/>
<path fill="none" stroke="black" d="M744,-1135C750,-1135 756,-1141 756,-1147"/>
<polyline fill="none" stroke="black" points="756,-1147 756,-1459 "/>
<path fill="none" stroke="black" d="M756,-1459C756,-1465 750,-1471 744,-1471"/>
<polyline fill="none" stroke="black" points="744,-1471 388,-1471 "/>
<path fill="none" stroke="black" d="M388,-1471C382,-1471 376,-1465 376,-1459"/>
<polyline fill="none" stroke="black" points="376,-1459 376,-1147 "/>
<path fill="none" stroke="black" d="M376,-1147C376,-1141 382,-1135 388,-1135"/>
<text text-anchor="middle" x="566" y="-1454.4" font-family="Times,serif" font-size="14.00">Organization</text>
<polyline fill="none" stroke="black" points="376,-1447 756,-1447 "/>
<text text-anchor="start" x="384" y="-1430.4" font-family="Times,serif" font-size="14.00">name :string</text>
<text text-anchor="start" x="384" y="-1414.4" font-family="Times,serif" font-size="14.00">slug :string</text>
<text text-anchor="start" x="384" y="-1398.4" font-family="Times,serif" font-size="14.00">url :string</text>
<text text-anchor="start" x="384" y="-1382.4" font-family="Times,serif" font-size="14.00">address :string</text>
<text text-anchor="start" x="384" y="-1366.4" font-family="Times,serif" font-size="14.00">city :string</text>
<text text-anchor="start" x="384" y="-1350.4" font-family="Times,serif" font-size="14.00">state :string</text>
<text text-anchor="start" x="384" y="-1334.4" font-family="Times,serif" font-size="14.00">country :string</text>
<text text-anchor="start" x="384" y="-1318.4" font-family="Times,serif" font-size="14.00">postal_code :string</text>
<text text-anchor="start" x="384" y="-1302.4" font-family="Times,serif" font-size="14.00">created_at :datetime</text>
<text text-anchor="start" x="384" y="-1286.4" font-family="Times,serif" font-size="14.00">updated_at :datetime</text>
<text text-anchor="start" x="384" y="-1270.4" font-family="Times,serif" font-size="14.00">owns_pedcount :boolean</text>
<text text-anchor="start" x="384" y="-1254.4" font-family="Times,serif" font-size="14.00">owns_pedplus :boolean</text>
<text text-anchor="start" x="384" y="-1238.4" font-family="Times,serif" font-size="14.00">max_number_of_users :integer</text>
<text text-anchor="start" x="384" y="-1222.4" font-family="Times,serif" font-size="14.00">max_number_of_projects :integer</text>
<text text-anchor="start" x="384" y="-1206.4" font-family="Times,serif" font-size="14.00">time_zone :string</text>
<text text-anchor="start" x="384" y="-1190.4" font-family="Times,serif" font-size="14.00">kind :string</text>
<text text-anchor="start" x="384" y="-1174.4" font-family="Times,serif" font-size="14.00">default_max_number_of_counting_locations_per_project :integer</text>
<text text-anchor="start" x="384" y="-1158.4" font-family="Times,serif" font-size="14.00">default_number_of_counting_day_credits_per_user :integer</text>
<text text-anchor="start" x="384" y="-1142.4" font-family="Times,serif" font-size="14.00">subscription_active_until :date</text>
</g>
<!-- Project -->
<g id="node9" class="node"><title>Project</title>
<polyline fill="none" stroke="black" points="276,-905 518,-905 "/>
<path fill="none" stroke="black" d="M518,-905C524,-905 530,-911 530,-917"/>
<polyline fill="none" stroke="black" points="530,-917 530,-1085 "/>
<path fill="none" stroke="black" d="M530,-1085C530,-1091 524,-1097 518,-1097"/>
<polyline fill="none" stroke="black" points="518,-1097 276,-1097 "/>
<path fill="none" stroke="black" d="M276,-1097C270,-1097 264,-1091 264,-1085"/>
<polyline fill="none" stroke="black" points="264,-1085 264,-917 "/>
<path fill="none" stroke="black" d="M264,-917C264,-911 270,-905 276,-905"/>
<text text-anchor="middle" x="397" y="-1080.4" font-family="Times,serif" font-size="14.00">Project</text>
<polyline fill="none" stroke="black" points="264,-1073 530,-1073 "/>
<text text-anchor="start" x="272" y="-1056.4" font-family="Times,serif" font-size="14.00">name :string</text>
<text text-anchor="start" x="272" y="-1040.4" font-family="Times,serif" font-size="14.00">kind :string</text>
<text text-anchor="start" x="272" y="-1024.4" font-family="Times,serif" font-size="14.00">created_at :datetime</text>
<text text-anchor="start" x="272" y="-1008.4" font-family="Times,serif" font-size="14.00">updated_at :datetime</text>
<text text-anchor="start" x="272" y="-992.4" font-family="Times,serif" font-size="14.00">southwest_latitude :decimal</text>
<text text-anchor="start" x="272" y="-976.4" font-family="Times,serif" font-size="14.00">southwest_longitude :decimal</text>
<text text-anchor="start" x="272" y="-960.4" font-family="Times,serif" font-size="14.00">northeast_latitude :decimal</text>
<text text-anchor="start" x="272" y="-944.4" font-family="Times,serif" font-size="14.00">northeast_longitude :decimal</text>
<text text-anchor="start" x="272" y="-928.4" font-family="Times,serif" font-size="14.00">version :integer</text>
<text text-anchor="start" x="272" y="-912.4" font-family="Times,serif" font-size="14.00">max_number_of_counting_locations :integer</text>
</g>
<!-- Organization&#45;&gt;Project -->
<g id="edge12" class="edge"><title>Organization&#45;&gt;Project</title>
<path fill="none" stroke="black" d="M466.936,-1126.15C462.747,-1118.71 458.608,-1111.36 454.56,-1104.18"/>
<polygon fill="black" stroke="black" points="466.956,-1126.18 467.943,-1137.1 469.41,-1130.54 471.864,-1134.89 471.864,-1134.89 471.864,-1134.89 469.41,-1130.54 475.785,-1132.69 466.956,-1126.18 466.956,-1126.18"/>
<ellipse fill="black" stroke="black" cx="452.508" cy="-1100.54" rx="4.00002" ry="4.00002"/>
</g>
<!-- User -->
<g id="node14" class="node"><title>User</title>
<polyline fill="none" stroke="black" points="643.5,-467 824.5,-467 "/>
<path fill="none" stroke="black" d="M824.5,-467C830.5,-467 836.5,-473 836.5,-479"/>
<polyline fill="none" stroke="black" points="836.5,-479 836.5,-855 "/>
<path fill="none" stroke="black" d="M836.5,-855C836.5,-861 830.5,-867 824.5,-867"/>
<polyline fill="none" stroke="black" points="824.5,-867 643.5,-867 "/>
<path fill="none" stroke="black" d="M643.5,-867C637.5,-867 631.5,-861 631.5,-855"/>
<polyline fill="none" stroke="black" points="631.5,-855 631.5,-479 "/>
<path fill="none" stroke="black" d="M631.5,-479C631.5,-473 637.5,-467 643.5,-467"/>
<text text-anchor="middle" x="734" y="-850.4" font-family="Times,serif" font-size="14.00">User</text>
<polyline fill="none" stroke="black" points="631.5,-843 836.5,-843 "/>
<text text-anchor="start" x="639.5" y="-826.4" font-family="Times,serif" font-size="14.00">first_name :string</text>
<text text-anchor="start" x="639.5" y="-810.4" font-family="Times,serif" font-size="14.00">last_name :string</text>
<text text-anchor="start" x="639.5" y="-794.4" font-family="Times,serif" font-size="14.00">email :string</text>
<text text-anchor="start" x="639.5" y="-778.4" font-family="Times,serif" font-size="14.00">phone_number :string</text>
<text text-anchor="start" x="639.5" y="-762.4" font-family="Times,serif" font-size="14.00">organization_billing :boolean</text>
<text text-anchor="start" x="639.5" y="-746.4" font-family="Times,serif" font-size="14.00">organization_manager :boolean</text>
<text text-anchor="start" x="639.5" y="-730.4" font-family="Times,serif" font-size="14.00">encrypted_password :string</text>
<text text-anchor="start" x="639.5" y="-714.4" font-family="Times,serif" font-size="14.00">invitation_token :string</text>
<text text-anchor="start" x="639.5" y="-698.4" font-family="Times,serif" font-size="14.00">invitation_sent_at :datetime</text>
<text text-anchor="start" x="639.5" y="-682.4" font-family="Times,serif" font-size="14.00">invitation_accepted_at :datetime</text>
<text text-anchor="start" x="639.5" y="-666.4" font-family="Times,serif" font-size="14.00">invitation_limit :integer</text>
<text text-anchor="start" x="639.5" y="-650.4" font-family="Times,serif" font-size="14.00">invited_by_type :string</text>
<text text-anchor="start" x="639.5" y="-634.4" font-family="Times,serif" font-size="14.00">reset_password_token :string</text>
<text text-anchor="start" x="639.5" y="-618.4" font-family="Times,serif" font-size="14.00">reset_password_sent_at :datetime</text>
<text text-anchor="start" x="639.5" y="-602.4" font-family="Times,serif" font-size="14.00">remember_created_at :datetime</text>
<text text-anchor="start" x="639.5" y="-586.4" font-family="Times,serif" font-size="14.00">current_sign_in_at :datetime</text>
<text text-anchor="start" x="639.5" y="-570.4" font-family="Times,serif" font-size="14.00">last_sign_in_at :datetime</text>
<text text-anchor="start" x="639.5" y="-554.4" font-family="Times,serif" font-size="14.00">current_sign_in_ip :string</text>
<text text-anchor="start" x="639.5" y="-538.4" font-family="Times,serif" font-size="14.00">last_sign_in_ip :string</text>
<text text-anchor="start" x="639.5" y="-522.4" font-family="Times,serif" font-size="14.00">created_at :datetime</text>
<text text-anchor="start" x="639.5" y="-506.4" font-family="Times,serif" font-size="14.00">updated_at :datetime</text>
<text text-anchor="start" x="639.5" y="-490.4" font-family="Times,serif" font-size="14.00">s3sol_admin :boolean</text>
<text text-anchor="start" x="639.5" y="-474.4" font-family="Times,serif" font-size="14.00">counting_day_credits :integer</text>
</g>
<!-- Organization&#45;&gt;User -->
<g id="edge10" class="edge"><title>Organization&#45;&gt;User</title>
<path fill="none" stroke="black" d="M612.929,-1124.9C633.501,-1047.26 657.784,-955.626 679.181,-874.876"/>
<polygon fill="black" stroke="black" points="612.921,-1124.93 606.01,-1133.44 611.641,-1129.76 610.36,-1134.59 610.36,-1134.59 610.36,-1134.59 611.641,-1129.76 614.71,-1135.75 612.921,-1124.93 612.921,-1124.93"/>
<ellipse fill="black" stroke="black" cx="680.218" cy="-870.962" rx="4.00001" ry="4.00001"/>
</g>
<!-- Project&#45;&gt;CountSession -->
<g id="edge24" class="edge"><title>Project&#45;&gt;CountSession</title>
<path fill="none" stroke="black" d="M399.87,-894.73C403.013,-787 408.607,-614.773 416,-466 419.562,-394.314 424.932,-312.46 428.88,-255.474"/>
<polygon fill="black" stroke="black" points="399.864,-894.955 395.076,-904.821 399.719,-899.953 399.574,-904.951 399.574,-904.951 399.574,-904.951 399.719,-899.953 404.072,-905.082 399.864,-894.955 399.864,-894.955"/>
<ellipse fill="black" stroke="black" cx="429.174" cy="-251.241" rx="4" ry="4"/>
</g>
<!-- Project&#45;&gt;GeoPoint -->
<g id="edge20" class="edge"><title>Project&#45;&gt;GeoPoint</title>
<path fill="none" stroke="black" d="M254.472,-946.369C215.728,-926.432 176.401,-900.531 147,-868 112.121,-829.408 91.2483,-773.839 79.4495,-731.065"/>
<polygon fill="black" stroke="black" points="254.84,-946.555 261.75,-955.07 259.307,-948.802 263.773,-951.05 263.773,-951.05 263.773,-951.05 259.307,-948.802 265.796,-947.03 254.84,-946.555 254.84,-946.555"/>
<ellipse fill="black" stroke="black" cx="78.3863" cy="-727.097" rx="4.00001" ry="4.00001"/>
</g>
<!-- Project&#45;&gt;GeoPointOnSegment -->
<g id="edge22" class="edge"><title>Project&#45;&gt;GeoPointOnSegment</title>
<path fill="none" stroke="black" d="M255.241,-937.677C227.691,-919.165 202.097,-896.117 185,-868 150.78,-811.724 135.383,-342.156 131.826,-215.417"/>
<polygon fill="black" stroke="black" points="255.465,-937.823 261.392,-947.049 259.656,-940.55 263.847,-943.277 263.847,-943.277 263.847,-943.277 259.656,-940.55 266.301,-939.506 255.465,-937.823 255.465,-937.823"/>
<ellipse fill="black" stroke="black" cx="131.711" cy="-211.231" rx="4" ry="4"/>
</g>
<!-- Project&#45;&gt;ModelJob -->
<g id="edge28" class="edge"><title>Project&#45;&gt;ModelJob</title>
<path fill="none" stroke="black" d="M429.544,-895.1C441.841,-855.463 455.814,-810.424 468.056,-770.966"/>
<polygon fill="black" stroke="black" points="429.479,-895.311 422.218,-903.529 427.997,-900.087 426.516,-904.862 426.516,-904.862 426.516,-904.862 427.997,-900.087 430.814,-906.196 429.479,-895.311 429.479,-895.311"/>
<ellipse fill="black" stroke="black" cx="469.295" cy="-766.972" rx="4.00001" ry="4.00001"/>
</g>
<!-- ProjectMember -->
<g id="node10" class="node"><title>ProjectMember</title>
<polyline fill="none" stroke="black" points="557.5,-285 666.5,-285 "/>
<path fill="none" stroke="black" d="M666.5,-285C672.5,-285 678.5,-291 678.5,-297"/>
<polyline fill="none" stroke="black" points="678.5,-297 678.5,-417 "/>
<path fill="none" stroke="black" d="M678.5,-417C678.5,-423 672.5,-429 666.5,-429"/>
<polyline fill="none" stroke="black" points="666.5,-429 557.5,-429 "/>
<path fill="none" stroke="black" d="M557.5,-429C551.5,-429 545.5,-423 545.5,-417"/>
<polyline fill="none" stroke="black" points="545.5,-417 545.5,-297 "/>
<path fill="none" stroke="black" d="M545.5,-297C545.5,-291 551.5,-285 557.5,-285"/>
<text text-anchor="middle" x="612" y="-412.4" font-family="Times,serif" font-size="14.00">ProjectMember</text>
<polyline fill="none" stroke="black" points="545.5,-405 678.5,-405 "/>
<text text-anchor="start" x="553.5" y="-388.4" font-family="Times,serif" font-size="14.00">manage :boolean</text>
<text text-anchor="start" x="553.5" y="-372.4" font-family="Times,serif" font-size="14.00">created_at :datetime</text>
<text text-anchor="start" x="553.5" y="-356.4" font-family="Times,serif" font-size="14.00">updated_at :datetime</text>
<text text-anchor="start" x="553.5" y="-340.4" font-family="Times,serif" font-size="14.00">view :boolean</text>
<text text-anchor="start" x="553.5" y="-324.4" font-family="Times,serif" font-size="14.00">count :boolean</text>
<text text-anchor="start" x="553.5" y="-308.4" font-family="Times,serif" font-size="14.00">map :boolean</text>
<text text-anchor="start" x="553.5" y="-292.4" font-family="Times,serif" font-size="14.00">plan :boolean</text>
</g>
<!-- Project&#45;&gt;ProjectMember -->
<g id="edge14" class="edge"><title>Project&#45;&gt;ProjectMember</title>
<path fill="none" stroke="black" d="M538.153,-922.643C556.321,-906.889 572.55,-888.688 584,-868 623.706,-796.257 620.656,-562.007 615.904,-437.489"/>
<polygon fill="black" stroke="black" points="537.928,-922.831 527.37,-925.792 534.092,-926.038 530.256,-929.245 530.256,-929.245 530.256,-929.245 534.092,-926.038 533.143,-932.697 537.928,-922.831 537.928,-922.831"/>
<ellipse fill="black" stroke="black" cx="615.745" cy="-433.445" rx="4" ry="4"/>
</g>
<!-- Scenario -->
<g id="node11" class="node"><title>Scenario</title>
<polyline fill="none" stroke="black" points="247.5,-627 356.5,-627 "/>
<path fill="none" stroke="black" d="M356.5,-627C362.5,-627 368.5,-633 368.5,-639"/>
<polyline fill="none" stroke="black" points="368.5,-639 368.5,-695 "/>
<path fill="none" stroke="black" d="M368.5,-695C368.5,-701 362.5,-707 356.5,-707"/>
<polyline fill="none" stroke="black" points="356.5,-707 247.5,-707 "/>
<path fill="none" stroke="black" d="M247.5,-707C241.5,-707 235.5,-701 235.5,-695"/>
<polyline fill="none" stroke="black" points="235.5,-695 235.5,-639 "/>
<path fill="none" stroke="black" d="M235.5,-639C235.5,-633 241.5,-627 247.5,-627"/>
<text text-anchor="middle" x="302" y="-690.4" font-family="Times,serif" font-size="14.00">Scenario</text>
<polyline fill="none" stroke="black" points="235.5,-683 368.5,-683 "/>
<text text-anchor="start" x="243.5" y="-666.4" font-family="Times,serif" font-size="14.00">name :string</text>
<text text-anchor="start" x="243.5" y="-650.4" font-family="Times,serif" font-size="14.00">created_at :datetime</text>
<text text-anchor="start" x="243.5" y="-634.4" font-family="Times,serif" font-size="14.00">updated_at :datetime</text>
</g>
<!-- Project&#45;&gt;Scenario -->
<g id="edge26" class="edge"><title>Project&#45;&gt;Scenario</title>
<path fill="none" stroke="black" d="M366.995,-895.139C349.711,-834.738 328.836,-761.784 315.491,-715.147"/>
<polygon fill="black" stroke="black" points="367.026,-895.248 365.45,-906.1 368.401,-900.055 369.777,-904.862 369.777,-904.862 369.777,-904.862 368.401,-900.055 374.103,-903.624 367.026,-895.248 367.026,-895.248"/>
<ellipse fill="black" stroke="black" cx="314.353" cy="-711.17" rx="4.00001" ry="4.00001"/>
</g>
<!-- Project&#45;&gt;Segment -->
<g id="edge18" class="edge"><title>Project&#45;&gt;Segment</title>
<path fill="none" stroke="black" d="M256.914,-911.556C244.57,-898.434 233.815,-883.904 226,-868 155.763,-725.053 198.823,-531.709 230.794,-429.005"/>
<polygon fill="black" stroke="black" points="256.922,-911.564 260.715,-921.853 260.424,-915.132 263.927,-918.7 263.927,-918.7 263.927,-918.7 260.424,-915.132 267.138,-915.548 256.922,-911.564 256.922,-911.564"/>
<ellipse fill="black" stroke="black" cx="232.064" cy="-424.98" rx="4.00001" ry="4.00001"/>
</g>
<!-- Project&#45;&gt;User -->
<g id="edge16" class="edge"><title>Project&#45;&gt;User</title>
<path fill="none" stroke="black" d="M538.798,-929.322C566.63,-911.632 594.222,-891.033 617,-868 619.63,-865.341 622.223,-862.611 624.778,-859.819"/>
<polygon fill="black" stroke="black" points="538.64,-929.42 527.775,-930.901 534.399,-932.069 530.158,-934.718 530.158,-934.718 530.158,-934.718 534.399,-932.069 532.542,-938.534 538.64,-929.42 538.64,-929.42"/>
<polygon fill="black" stroke="black" points="624.82,-859.772 634.822,-855.276 628.138,-856.031 631.455,-852.291 631.455,-852.291 631.455,-852.291 628.138,-856.031 628.088,-849.305 624.82,-859.772 624.82,-859.772"/>
</g>
<!-- Scenario&#45;&gt;Segment -->
<g id="edge32" class="edge"><title>Scenario&#45;&gt;Segment</title>
<path fill="none" stroke="black" d="M294.656,-616.824C287.184,-566.799 275.518,-488.686 266.955,-431.35"/>
<polygon fill="black" stroke="black" points="294.697,-617.101 291.723,-627.656 295.435,-622.046 296.174,-626.992 296.174,-626.992 296.174,-626.992 295.435,-622.046 300.625,-626.327 294.697,-617.101 294.697,-617.101"/>
<polygon fill="black" stroke="black" points="266.925,-431.148 269.898,-420.593 266.186,-426.203 265.448,-421.258 265.448,-421.258 265.448,-421.258 266.186,-426.203 260.997,-421.923 266.925,-431.148 266.925,-431.148"/>
</g>
<!-- SegmentInScenario -->
<g id="node13" class="node"><title>SegmentInScenario</title>
<polyline fill="none" stroke="black" points="228.5,-143 337.5,-143 "/>
<path fill="none" stroke="black" d="M337.5,-143C343.5,-143 349.5,-149 349.5,-155"/>
<polyline fill="none" stroke="black" points="349.5,-155 349.5,-211 "/>
<path fill="none" stroke="black" d="M349.5,-211C349.5,-217 343.5,-223 337.5,-223"/>
<polyline fill="none" stroke="black" points="337.5,-223 228.5,-223 "/>
<path fill="none" stroke="black" d="M228.5,-223C222.5,-223 216.5,-217 216.5,-211"/>
<polyline fill="none" stroke="black" points="216.5,-211 216.5,-155 "/>
<path fill="none" stroke="black" d="M216.5,-155C216.5,-149 222.5,-143 228.5,-143"/>
<text text-anchor="middle" x="283" y="-206.4" font-family="Times,serif" font-size="14.00">SegmentInScenario</text>
<polyline fill="none" stroke="black" points="216.5,-199 349.5,-199 "/>
<text text-anchor="start" x="224.5" y="-182.4" font-family="Times,serif" font-size="14.00">status :string</text>
<text text-anchor="start" x="224.5" y="-166.4" font-family="Times,serif" font-size="14.00">created_at :datetime</text>
<text text-anchor="start" x="224.5" y="-150.4" font-family="Times,serif" font-size="14.00">updated_at :datetime</text>
</g>
<!-- Scenario&#45;&gt;SegmentInScenario -->
<g id="edge30" class="edge"><title>Scenario&#45;&gt;SegmentInScenario</title>
<path fill="none" stroke="black" d="M317.834,-616.859C339.114,-543.263 370.897,-400.598 340,-284 335.073,-265.406 325.792,-246.657 316.129,-230.498"/>
<polygon fill="black" stroke="black" points="317.739,-617.184 310.593,-625.502 316.324,-621.98 314.909,-626.775 314.909,-626.775 314.909,-626.775 316.324,-621.98 319.225,-628.049 317.739,-617.184 317.739,-617.184"/>
<ellipse fill="black" stroke="black" cx="313.773" cy="-226.672" rx="4.00002" ry="4.00002"/>
</g>
<!-- Segment&#45;&gt;CountSession -->
<g id="edge34" class="edge"><title>Segment&#45;&gt;CountSession</title>
<path fill="none" stroke="black" d="M328.593,-285.854C339.91,-274.918 351.594,-263.628 362.878,-252.725"/>
<polygon fill="black" stroke="black" points="328.461,-285.981 318.143,-289.694 324.866,-289.456 321.27,-292.93 321.27,-292.93 321.27,-292.93 324.866,-289.456 324.397,-296.166 328.461,-285.981 328.461,-285.981"/>
<ellipse fill="black" stroke="black" cx="365.861" cy="-249.842" rx="4.00002" ry="4.00002"/>
</g>
<!-- Segment&#45;&gt;GeoPointOnSegment -->
<g id="edge38" class="edge"><title>Segment&#45;&gt;GeoPointOnSegment</title>
<path fill="none" stroke="black" d="M204.243,-284.783C186.195,-259.949 166.916,-233.42 152.669,-213.817"/>
<polygon fill="black" stroke="black" points="204.285,-284.841 206.524,-295.576 207.225,-288.886 210.164,-292.93 210.164,-292.93 210.164,-292.93 207.225,-288.886 213.805,-290.285 204.285,-284.841 204.285,-284.841"/>
<ellipse fill="black" stroke="black" cx="150.202" cy="-210.421" rx="4.00002" ry="4.00002"/>
</g>
<!-- Segment&#45;&gt;SegmentInScenario -->
<g id="edge36" class="edge"><title>Segment&#45;&gt;SegmentInScenario</title>
<path fill="none" stroke="black" d="M267.469,-282.937C270.218,-265.425 273.082,-247.181 275.591,-231.199"/>
<polygon fill="black" stroke="black" points="267.451,-283.051 261.455,-292.232 266.676,-287.991 265.9,-292.93 265.9,-292.93 265.9,-292.93 266.676,-287.991 270.346,-293.628 267.451,-283.051 267.451,-283.051"/>
<ellipse fill="black" stroke="black" cx="276.248" cy="-227.015" rx="4.00001" ry="4.00001"/>
</g>
<!-- User&#45;&gt;CountSession -->
<g id="edge42" class="edge"><title>User&#45;&gt;CountSession</title>
<path fill="none" stroke="black" d="M747.18,-456.653C741.306,-395.802 724.663,-332.688 687,-284 644.358,-228.875 566.817,-204.075 508.776,-192.955"/>
<polygon fill="black" stroke="black" points="747.195,-456.83 743.58,-467.183 747.629,-461.811 748.063,-466.792 748.063,-466.792 748.063,-466.792 747.629,-461.811 752.546,-466.402 747.195,-456.83 747.195,-456.83"/>
<ellipse fill="black" stroke="black" cx="504.656" cy="-192.198" rx="4.00001" ry="4.00001"/>
</g>
<!-- User&#45;&gt;ProjectMember -->
<g id="edge40" class="edge"><title>User&#45;&gt;ProjectMember</title>
<path fill="none" stroke="black" d="M651.287,-457.185C648.523,-450.206 645.828,-443.401 643.228,-436.837"/>
<polygon fill="black" stroke="black" points="651.33,-457.292 650.829,-468.247 653.171,-461.941 655.013,-466.589 655.013,-466.589 655.013,-466.589 653.171,-461.941 659.196,-464.932 651.33,-457.292 651.33,-457.292"/>
<ellipse fill="black" stroke="black" cx="641.694" cy="-432.965" rx="4.00001" ry="4.00001"/>
</g>
</g>
</svg>
