<?xml version="1.0" encoding="UTF-8" standalone="no"?>
<!DOCTYPE svg PUBLIC "-//W3C//DTD SVG 1.1//EN"
 "http://www.w3.org/Graphics/SVG/1.1/DTD/svg11.dtd">
<!-- Generated by graphviz version 2.26.3 (20100126.1600)
 -->
<!-- Title: models_diagram Pages: 1 -->
<svg width="627pt" height="1374pt"
 viewBox="0.00 0.00 627.00 1374.00" xmlns="http://www.w3.org/2000/svg" xmlns:xlink="http://www.w3.org/1999/xlink">
<g id="graph1" class="graph" transform="scale(1 1) rotate(0) translate(4 1370)">
<title>models_diagram</title>
<polygon fill="white" stroke="white" points="-4,5 -4,-1370 624,-1370 624,5 -4,5"/>
<!-- _diagram_info -->
<g id="node1" class="node"><title>_diagram_info</title>
<text text-anchor="start" x="98" y="-1312.4" font-family="Times,serif" font-size="14.00">Models diagram</text>
<text text-anchor="start" x="98" y="-1296.4" font-family="Times,serif" font-size="14.00">Date: Sep 22 2011 &#45; 18:10</text>
<text text-anchor="start" x="98" y="-1280.4" font-family="Times,serif" font-size="14.00">Migration version: 20110922224726</text>
<text text-anchor="start" x="98" y="-1264.4" font-family="Times,serif" font-size="14.00">Generated by RailRoad 0.5.0</text>
</g>
<!-- Count -->
<g id="node2" class="node"><title>Count</title>
<polyline fill="none" stroke="black" points="313.5,-1 422.5,-1 "/>
<path fill="none" stroke="black" d="M422.5,-1C428.5,-1 434.5,-7 434.5,-13"/>
<polyline fill="none" stroke="black" points="434.5,-13 434.5,-69 "/>
<path fill="none" stroke="black" d="M434.5,-69C434.5,-75 428.5,-81 422.5,-81"/>
<polyline fill="none" stroke="black" points="422.5,-81 313.5,-81 "/>
<path fill="none" stroke="black" d="M313.5,-81C307.5,-81 301.5,-75 301.5,-69"/>
<polyline fill="none" stroke="black" points="301.5,-69 301.5,-13 "/>
<path fill="none" stroke="black" d="M301.5,-13C301.5,-7 307.5,-1 313.5,-1"/>
<text text-anchor="middle" x="368" y="-64.4" font-family="Times,serif" font-size="14.00">Count</text>
<polyline fill="none" stroke="black" points="301.5,-57 434.5,-57 "/>
<text text-anchor="start" x="309.5" y="-40.4" font-family="Times,serif" font-size="14.00">at :datetime</text>
<text text-anchor="start" x="309.5" y="-24.4" font-family="Times,serif" font-size="14.00">created_at :datetime</text>
<text text-anchor="start" x="309.5" y="-8.4" font-family="Times,serif" font-size="14.00">updated_at :datetime</text>
</g>
<!-- CountSession -->
<g id="node3" class="node"><title>CountSession</title>
<polyline fill="none" stroke="black" points="313.5,-119 422.5,-119 "/>
<path fill="none" stroke="black" d="M422.5,-119C428.5,-119 434.5,-125 434.5,-131"/>
<polyline fill="none" stroke="black" points="434.5,-131 434.5,-219 "/>
<path fill="none" stroke="black" d="M434.5,-219C434.5,-225 428.5,-231 422.5,-231"/>
<polyline fill="none" stroke="black" points="422.5,-231 313.5,-231 "/>
<path fill="none" stroke="black" d="M313.5,-231C307.5,-231 301.5,-225 301.5,-219"/>
<polyline fill="none" stroke="black" points="301.5,-219 301.5,-131 "/>
<path fill="none" stroke="black" d="M301.5,-131C301.5,-125 307.5,-119 313.5,-119"/>
<text text-anchor="middle" x="368" y="-214.4" font-family="Times,serif" font-size="14.00">CountSession</text>
<polyline fill="none" stroke="black" points="301.5,-207 434.5,-207 "/>
<text text-anchor="start" x="309.5" y="-190.4" font-family="Times,serif" font-size="14.00">start :datetime</text>
<text text-anchor="start" x="309.5" y="-174.4" font-family="Times,serif" font-size="14.00">stop :datetime</text>
<text text-anchor="start" x="309.5" y="-158.4" font-family="Times,serif" font-size="14.00">status :string</text>
<text text-anchor="start" x="309.5" y="-142.4" font-family="Times,serif" font-size="14.00">created_at :datetime</text>
<text text-anchor="start" x="309.5" y="-126.4" font-family="Times,serif" font-size="14.00">updated_at :datetime</text>
</g>
<!-- CountSession&#45;&gt;Count -->
<g id="edge2" class="edge"><title>CountSession&#45;&gt;Count</title>
<path fill="none" stroke="black" d="M368,-108.812C368,-102.362 368,-95.9029 368,-89.6724"/>
<polygon fill="black" stroke="black" points="368,-108.948 363.5,-118.948 368,-113.948 368,-118.948 368,-118.948 368,-118.948 368,-113.948 372.5,-118.948 368,-108.948 368,-108.948"/>
<ellipse fill="black" stroke="black" cx="368" cy="-85.3407" rx="4" ry="4"/>
</g>
<!-- DataSource -->
<g id="node4" class="node"><title>DataSource</title>
<polyline fill="none" stroke="black" points="12.5,-857 121.5,-857 "/>
<path fill="none" stroke="black" d="M121.5,-857C127.5,-857 133.5,-863 133.5,-869"/>
<polyline fill="none" stroke="black" points="133.5,-869 133.5,-941 "/>
<path fill="none" stroke="black" d="M133.5,-941C133.5,-947 127.5,-953 121.5,-953"/>
<polyline fill="none" stroke="black" points="121.5,-953 12.5,-953 "/>
<path fill="none" stroke="black" d="M12.5,-953C6.5,-953 0.5,-947 0.5,-941"/>
<polyline fill="none" stroke="black" points="0.5,-941 0.5,-869 "/>
<path fill="none" stroke="black" d="M0.5,-869C0.5,-863 6.5,-857 12.5,-857"/>
<text text-anchor="middle" x="67" y="-936.4" font-family="Times,serif" font-size="14.00">DataSource</text>
<polyline fill="none" stroke="black" points="0.5,-929 133.5,-929 "/>
<text text-anchor="start" x="8.5" y="-912.4" font-family="Times,serif" font-size="14.00">name :string</text>
<text text-anchor="start" x="8.5" y="-896.4" font-family="Times,serif" font-size="14.00">kind :string</text>
<text text-anchor="start" x="8.5" y="-880.4" font-family="Times,serif" font-size="14.00">created_at :datetime</text>
<text text-anchor="start" x="8.5" y="-864.4" font-family="Times,serif" font-size="14.00">updated_at :datetime</text>
</g>
<!-- GeoPoint -->
<g id="node5" class="node"><title>GeoPoint</title>
<polyline fill="none" stroke="black" points="12.5,-563 121.5,-563 "/>
<path fill="none" stroke="black" d="M121.5,-563C127.5,-563 133.5,-569 133.5,-575"/>
<polyline fill="none" stroke="black" points="133.5,-575 133.5,-663 "/>
<path fill="none" stroke="black" d="M133.5,-663C133.5,-669 127.5,-675 121.5,-675"/>
<polyline fill="none" stroke="black" points="121.5,-675 12.5,-675 "/>
<path fill="none" stroke="black" d="M12.5,-675C6.5,-675 0.5,-669 0.5,-663"/>
<polyline fill="none" stroke="black" points="0.5,-663 0.5,-575 "/>
<path fill="none" stroke="black" d="M0.5,-575C0.5,-569 6.5,-563 12.5,-563"/>
<text text-anchor="middle" x="67" y="-658.4" font-family="Times,serif" font-size="14.00">GeoPoint</text>
<polyline fill="none" stroke="black" points="0.5,-651 133.5,-651 "/>
<text text-anchor="start" x="8.5" y="-634.4" font-family="Times,serif" font-size="14.00">latitude :decimal</text>
<text text-anchor="start" x="8.5" y="-618.4" font-family="Times,serif" font-size="14.00">longitude :decimal</text>
<text text-anchor="start" x="8.5" y="-602.4" font-family="Times,serif" font-size="14.00">accuracy :decimal</text>
<text text-anchor="start" x="8.5" y="-586.4" font-family="Times,serif" font-size="14.00">created_at :datetime</text>
<text text-anchor="start" x="8.5" y="-570.4" font-family="Times,serif" font-size="14.00">updated_at :datetime</text>
</g>
<!-- DataSource&#45;&gt;GeoPoint -->
<g id="edge4" class="edge"><title>DataSource&#45;&gt;GeoPoint</title>
<path fill="none" stroke="black" d="M67,-846.756C67,-799.2 67,-732.077 67,-683.021"/>
<polygon fill="black" stroke="black" points="67.0001,-846.807 62.5,-856.807 67,-851.807 67,-856.807 67,-856.807 67,-856.807 67,-851.807 71.5,-856.807 67.0001,-846.807 67.0001,-846.807"/>
<ellipse fill="black" stroke="black" cx="67" cy="-679.002" rx="4" ry="4"/>
</g>
<!-- GeoPointOnSegment -->
<g id="node6" class="node"><title>GeoPointOnSegment</title>
<polyline fill="none" stroke="black" points="11.5,-151 122.5,-151 "/>
<path fill="none" stroke="black" d="M122.5,-151C128.5,-151 134.5,-157 134.5,-163"/>
<polyline fill="none" stroke="black" points="134.5,-163 134.5,-187 "/>
<path fill="none" stroke="black" d="M134.5,-187C134.5,-193 128.5,-199 122.5,-199"/>
<polyline fill="none" stroke="black" points="122.5,-199 11.5,-199 "/>
<path fill="none" stroke="black" d="M11.5,-199C5.5,-199 -0.5,-193 -0.5,-187"/>
<polyline fill="none" stroke="black" points="-0.5,-187 -0.5,-163 "/>
<path fill="none" stroke="black" d="M-0.5,-163C-0.5,-157 5.5,-151 11.5,-151"/>
<text text-anchor="middle" x="67" y="-182.4" font-family="Times,serif" font-size="14.00">GeoPointOnSegment</text>
<polyline fill="none" stroke="black" points="-0.5,-175 134.5,-175 "/>
</g>
<!-- GeoPoint&#45;&gt;GeoPointOnSegment -->
<g id="edge8" class="edge"><title>GeoPoint&#45;&gt;GeoPointOnSegment</title>
<path fill="none" stroke="black" d="M67,-552.707C67,-455.958 67,-279.739 67,-207.356"/>
<polygon fill="black" stroke="black" points="67.0001,-552.767 62.5,-562.767 67,-557.767 67,-562.767 67,-562.767 67,-562.767 67,-557.767 71.5,-562.767 67.0001,-552.767 67.0001,-552.767"/>
<ellipse fill="black" stroke="black" cx="67" cy="-203.056" rx="4" ry="4"/>
</g>
<!-- Segment -->
<g id="node11" class="node"><title>Segment</title>
<polyline fill="none" stroke="black" points="106.5,-293 215.5,-293 "/>
<path fill="none" stroke="black" d="M215.5,-293C221.5,-293 227.5,-299 227.5,-305"/>
<polyline fill="none" stroke="black" points="227.5,-305 227.5,-345 "/>
<path fill="none" stroke="black" d="M227.5,-345C227.5,-351 221.5,-357 215.5,-357"/>
<polyline fill="none" stroke="black" points="215.5,-357 106.5,-357 "/>
<path fill="none" stroke="black" d="M106.5,-357C100.5,-357 94.5,-351 94.5,-345"/>
<polyline fill="none" stroke="black" points="94.5,-345 94.5,-305 "/>
<path fill="none" stroke="black" d="M94.5,-305C94.5,-299 100.5,-293 106.5,-293"/>
<text text-anchor="middle" x="161" y="-340.4" font-family="Times,serif" font-size="14.00">Segment</text>
<polyline fill="none" stroke="black" points="94.5,-333 227.5,-333 "/>
<text text-anchor="start" x="102.5" y="-316.4" font-family="Times,serif" font-size="14.00">created_at :datetime</text>
<text text-anchor="start" x="102.5" y="-300.4" font-family="Times,serif" font-size="14.00">updated_at :datetime</text>
</g>
<!-- GeoPoint&#45;&gt;Segment -->
<g id="edge6" class="edge"><title>GeoPoint&#45;&gt;Segment</title>
<path fill="none" stroke="black" d="M88.0666,-553.111C106.321,-496.018 132.173,-415.161 147.692,-366.621"/>
<polygon fill="black" stroke="black" points="88.0584,-553.137 80.7267,-561.291 86.5357,-557.899 85.0129,-562.662 85.0129,-562.662 85.0129,-562.662 86.5357,-557.899 89.2992,-564.032 88.0584,-553.137 88.0584,-553.137"/>
<polygon fill="black" stroke="black" points="147.702,-366.593 155.033,-358.438 149.224,-361.83 150.747,-357.068 150.747,-357.068 150.747,-357.068 149.224,-361.83 146.461,-355.697 147.702,-366.593 147.702,-366.593"/>
</g>
<!-- Organization -->
<g id="node7" class="node"><title>Organization</title>
<polyline fill="none" stroke="black" points="341.5,-991 450.5,-991 "/>
<path fill="none" stroke="black" d="M450.5,-991C456.5,-991 462.5,-997 462.5,-1003"/>
<polyline fill="none" stroke="black" points="462.5,-1003 462.5,-1171 "/>
<path fill="none" stroke="black" d="M462.5,-1171C462.5,-1177 456.5,-1183 450.5,-1183"/>
<polyline fill="none" stroke="black" points="450.5,-1183 341.5,-1183 "/>
<path fill="none" stroke="black" d="M341.5,-1183C335.5,-1183 329.5,-1177 329.5,-1171"/>
<polyline fill="none" stroke="black" points="329.5,-1171 329.5,-1003 "/>
<path fill="none" stroke="black" d="M329.5,-1003C329.5,-997 335.5,-991 341.5,-991"/>
<text text-anchor="middle" x="396" y="-1166.4" font-family="Times,serif" font-size="14.00">Organization</text>
<polyline fill="none" stroke="black" points="329.5,-1159 462.5,-1159 "/>
<text text-anchor="start" x="337.5" y="-1142.4" font-family="Times,serif" font-size="14.00">name :string</text>
<text text-anchor="start" x="337.5" y="-1126.4" font-family="Times,serif" font-size="14.00">slug :string</text>
<text text-anchor="start" x="337.5" y="-1110.4" font-family="Times,serif" font-size="14.00">url :string</text>
<text text-anchor="start" x="337.5" y="-1094.4" font-family="Times,serif" font-size="14.00">address :string</text>
<text text-anchor="start" x="337.5" y="-1078.4" font-family="Times,serif" font-size="14.00">city :string</text>
<text text-anchor="start" x="337.5" y="-1062.4" font-family="Times,serif" font-size="14.00">state :string</text>
<text text-anchor="start" x="337.5" y="-1046.4" font-family="Times,serif" font-size="14.00">country :string</text>
<text text-anchor="start" x="337.5" y="-1030.4" font-family="Times,serif" font-size="14.00">postal_code :string</text>
<text text-anchor="start" x="337.5" y="-1014.4" font-family="Times,serif" font-size="14.00">created_at :datetime</text>
<text text-anchor="start" x="337.5" y="-998.4" font-family="Times,serif" font-size="14.00">updated_at :datetime</text>
</g>
<!-- Project -->
<g id="node8" class="node"><title>Project</title>
<polyline fill="none" stroke="black" points="294.5,-857 403.5,-857 "/>
<path fill="none" stroke="black" d="M403.5,-857C409.5,-857 415.5,-863 415.5,-869"/>
<polyline fill="none" stroke="black" points="415.5,-869 415.5,-941 "/>
<path fill="none" stroke="black" d="M415.5,-941C415.5,-947 409.5,-953 403.5,-953"/>
<polyline fill="none" stroke="black" points="403.5,-953 294.5,-953 "/>
<path fill="none" stroke="black" d="M294.5,-953C288.5,-953 282.5,-947 282.5,-941"/>
<polyline fill="none" stroke="black" points="282.5,-941 282.5,-869 "/>
<path fill="none" stroke="black" d="M282.5,-869C282.5,-863 288.5,-857 294.5,-857"/>
<text text-anchor="middle" x="349" y="-936.4" font-family="Times,serif" font-size="14.00">Project</text>
<polyline fill="none" stroke="black" points="282.5,-929 415.5,-929 "/>
<text text-anchor="start" x="290.5" y="-912.4" font-family="Times,serif" font-size="14.00">name :string</text>
<text text-anchor="start" x="290.5" y="-896.4" font-family="Times,serif" font-size="14.00">kind :string</text>
<text text-anchor="start" x="290.5" y="-880.4" font-family="Times,serif" font-size="14.00">created_at :datetime</text>
<text text-anchor="start" x="290.5" y="-864.4" font-family="Times,serif" font-size="14.00">updated_at :datetime</text>
</g>
<!-- Organization&#45;&gt;Project -->
<g id="edge12" class="edge"><title>Organization&#45;&gt;Project</title>
<path fill="none" stroke="black" d="M368.688,-981.238C366.937,-974.46 365.216,-967.794 363.564,-961.396"/>
<polygon fill="black" stroke="black" points="368.692,-981.255 366.835,-992.062 369.942,-986.096 371.192,-990.937 371.192,-990.937 371.192,-990.937 369.942,-986.096 375.55,-989.812 368.692,-981.255 368.692,-981.255"/>
<ellipse fill="black" stroke="black" cx="362.511" cy="-957.321" rx="4.00001" ry="4.00001"/>
</g>
<!-- User -->
<g id="node14" class="node"><title>User</title>
<polyline fill="none" stroke="black" points="426.5,-419 607.5,-419 "/>
<path fill="none" stroke="black" d="M607.5,-419C613.5,-419 619.5,-425 619.5,-431"/>
<polyline fill="none" stroke="black" points="619.5,-431 619.5,-807 "/>
<path fill="none" stroke="black" d="M619.5,-807C619.5,-813 613.5,-819 607.5,-819"/>
<polyline fill="none" stroke="black" points="607.5,-819 426.5,-819 "/>
<path fill="none" stroke="black" d="M426.5,-819C420.5,-819 414.5,-813 414.5,-807"/>
<polyline fill="none" stroke="black" points="414.5,-807 414.5,-431 "/>
<path fill="none" stroke="black" d="M414.5,-431C414.5,-425 420.5,-419 426.5,-419"/>
<text text-anchor="middle" x="517" y="-802.4" font-family="Times,serif" font-size="14.00">User</text>
<polyline fill="none" stroke="black" points="414.5,-795 619.5,-795 "/>
<text text-anchor="start" x="422.5" y="-778.4" font-family="Times,serif" font-size="14.00">first_name :string</text>
<text text-anchor="start" x="422.5" y="-762.4" font-family="Times,serif" font-size="14.00">last_name :string</text>
<text text-anchor="start" x="422.5" y="-746.4" font-family="Times,serif" font-size="14.00">email :string</text>
<text text-anchor="start" x="422.5" y="-730.4" font-family="Times,serif" font-size="14.00">phone_number :string</text>
<text text-anchor="start" x="422.5" y="-714.4" font-family="Times,serif" font-size="14.00">organization_billing :boolean</text>
<text text-anchor="start" x="422.5" y="-698.4" font-family="Times,serif" font-size="14.00">organization_manager :boolean</text>
<text text-anchor="start" x="422.5" y="-682.4" font-family="Times,serif" font-size="14.00">orgup_admin :boolean</text>
<text text-anchor="start" x="422.5" y="-666.4" font-family="Times,serif" font-size="14.00">orgup_api :boolean</text>
<text text-anchor="start" x="422.5" y="-650.4" font-family="Times,serif" font-size="14.00">encrypted_password :string</text>
<text text-anchor="start" x="422.5" y="-634.4" font-family="Times,serif" font-size="14.00">invitation_token :string</text>
<text text-anchor="start" x="422.5" y="-618.4" font-family="Times,serif" font-size="14.00">invitation_sent_at :datetime</text>
<text text-anchor="start" x="422.5" y="-602.4" font-family="Times,serif" font-size="14.00">invitation_accepted_at :datetime</text>
<text text-anchor="start" x="422.5" y="-586.4" font-family="Times,serif" font-size="14.00">invitation_limit :integer</text>
<text text-anchor="start" x="422.5" y="-570.4" font-family="Times,serif" font-size="14.00">invited_by_type :string</text>
<text text-anchor="start" x="422.5" y="-554.4" font-family="Times,serif" font-size="14.00">reset_password_token :string</text>
<text text-anchor="start" x="422.5" y="-538.4" font-family="Times,serif" font-size="14.00">reset_password_sent_at :datetime</text>
<text text-anchor="start" x="422.5" y="-522.4" font-family="Times,serif" font-size="14.00">remember_created_at :datetime</text>
<text text-anchor="start" x="422.5" y="-506.4" font-family="Times,serif" font-size="14.00">current_sign_in_at :datetime</text>
<text text-anchor="start" x="422.5" y="-490.4" font-family="Times,serif" font-size="14.00">last_sign_in_at :datetime</text>
<text text-anchor="start" x="422.5" y="-474.4" font-family="Times,serif" font-size="14.00">current_sign_in_ip :string</text>
<text text-anchor="start" x="422.5" y="-458.4" font-family="Times,serif" font-size="14.00">last_sign_in_ip :string</text>
<text text-anchor="start" x="422.5" y="-442.4" font-family="Times,serif" font-size="14.00">created_at :datetime</text>
<text text-anchor="start" x="422.5" y="-426.4" font-family="Times,serif" font-size="14.00">updated_at :datetime</text>
</g>
<!-- Organization&#45;&gt;User -->
<g id="edge10" class="edge"><title>Organization&#45;&gt;User</title>
<path fill="none" stroke="black" d="M423.372,-981.13C435.179,-935.464 449.42,-880.384 463.192,-827.116"/>
<polygon fill="black" stroke="black" points="423.355,-981.199 416.495,-989.754 422.103,-986.04 420.851,-990.881 420.851,-990.881 420.851,-990.881 422.103,-986.04 425.208,-992.007 423.355,-981.199 423.355,-981.199"/>
<ellipse fill="black" stroke="black" cx="464.219" cy="-823.144" rx="4.00001" ry="4.00001"/>
</g>
<!-- Project&#45;&gt;CountSession -->
<g id="edge22" class="edge"><title>Project&#45;&gt;CountSession</title>
<path fill="none" stroke="black" d="M350.523,-846.493C354.033,-711.608 362.673,-379.651 366.326,-239.306"/>
<polygon fill="black" stroke="black" points="350.514,-846.824 345.756,-856.703 350.384,-851.822 350.254,-856.82 350.254,-856.82 350.254,-856.82 350.384,-851.822 354.752,-856.937 350.514,-846.824 350.514,-846.824"/>
<ellipse fill="black" stroke="black" cx="366.434" cy="-235.149" rx="4" ry="4"/>
</g>
<!-- Project&#45;&gt;GeoPoint -->
<g id="edge20" class="edge"><title>Project&#45;&gt;GeoPoint</title>
<path fill="none" stroke="black" d="M272.687,-888.312C230.89,-875.722 180.859,-854.527 147,-820 110.484,-782.765 90.0448,-726.787 78.985,-683.354"/>
<polygon fill="black" stroke="black" points="272.69,-888.313 281.039,-895.422 277.492,-889.706 282.294,-891.1 282.294,-891.1 282.294,-891.1 277.492,-889.706 283.548,-886.778 272.69,-888.313 272.69,-888.313"/>
<ellipse fill="black" stroke="black" cx="77.983" cy="-679.281" rx="4.00001" ry="4.00001"/>
</g>
<!-- ProjectMember -->
<g id="node9" class="node"><title>ProjectMember</title>
<polyline fill="none" stroke="black" points="388.5,-269 497.5,-269 "/>
<path fill="none" stroke="black" d="M497.5,-269C503.5,-269 509.5,-275 509.5,-281"/>
<polyline fill="none" stroke="black" points="509.5,-281 509.5,-369 "/>
<path fill="none" stroke="black" d="M509.5,-369C509.5,-375 503.5,-381 497.5,-381"/>
<polyline fill="none" stroke="black" points="497.5,-381 388.5,-381 "/>
<path fill="none" stroke="black" d="M388.5,-381C382.5,-381 376.5,-375 376.5,-369"/>
<polyline fill="none" stroke="black" points="376.5,-369 376.5,-281 "/>
<path fill="none" stroke="black" d="M376.5,-281C376.5,-275 382.5,-269 388.5,-269"/>
<text text-anchor="middle" x="443" y="-364.4" font-family="Times,serif" font-size="14.00">ProjectMember</text>
<polyline fill="none" stroke="black" points="376.5,-357 509.5,-357 "/>
<text text-anchor="start" x="384.5" y="-340.4" font-family="Times,serif" font-size="14.00">view :boolean</text>
<text text-anchor="start" x="384.5" y="-324.4" font-family="Times,serif" font-size="14.00">edit :boolean</text>
<text text-anchor="start" x="384.5" y="-308.4" font-family="Times,serif" font-size="14.00">manage :boolean</text>
<text text-anchor="start" x="384.5" y="-292.4" font-family="Times,serif" font-size="14.00">created_at :datetime</text>
<text text-anchor="start" x="384.5" y="-276.4" font-family="Times,serif" font-size="14.00">updated_at :datetime</text>
</g>
<!-- Project&#45;&gt;ProjectMember -->
<g id="edge14" class="edge"><title>Project&#45;&gt;ProjectMember</title>
<path fill="none" stroke="black" d="M359.014,-846.929C360.437,-837.926 361.816,-828.722 363,-820 387.166,-641.947 362.834,-592.424 406,-418 408.372,-408.417 411.513,-398.507 414.965,-388.887"/>
<polygon fill="black" stroke="black" points="358.987,-847.099 352.955,-856.257 358.193,-852.036 357.398,-856.972 357.398,-856.972 357.398,-856.972 358.193,-852.036 361.841,-857.687 358.987,-847.099 358.987,-847.099"/>
<ellipse fill="black" stroke="black" cx="416.404" cy="-384.998" rx="4.00001" ry="4.00001"/>
</g>
<!-- Scenario -->
<g id="node10" class="node"><title>Scenario</title>
<polyline fill="none" stroke="black" points="200.5,-579 309.5,-579 "/>
<path fill="none" stroke="black" d="M309.5,-579C315.5,-579 321.5,-585 321.5,-591"/>
<polyline fill="none" stroke="black" points="321.5,-591 321.5,-647 "/>
<path fill="none" stroke="black" d="M321.5,-647C321.5,-653 315.5,-659 309.5,-659"/>
<polyline fill="none" stroke="black" points="309.5,-659 200.5,-659 "/>
<path fill="none" stroke="black" d="M200.5,-659C194.5,-659 188.5,-653 188.5,-647"/>
<polyline fill="none" stroke="black" points="188.5,-647 188.5,-591 "/>
<path fill="none" stroke="black" d="M188.5,-591C188.5,-585 194.5,-579 200.5,-579"/>
<text text-anchor="middle" x="255" y="-642.4" font-family="Times,serif" font-size="14.00">Scenario</text>
<polyline fill="none" stroke="black" points="188.5,-635 321.5,-635 "/>
<text text-anchor="start" x="196.5" y="-618.4" font-family="Times,serif" font-size="14.00">name :string</text>
<text text-anchor="start" x="196.5" y="-602.4" font-family="Times,serif" font-size="14.00">created_at :datetime</text>
<text text-anchor="start" x="196.5" y="-586.4" font-family="Times,serif" font-size="14.00">updated_at :datetime</text>
</g>
<!-- Project&#45;&gt;Scenario -->
<g id="edge24" class="edge"><title>Project&#45;&gt;Scenario</title>
<path fill="none" stroke="black" d="M329.952,-847.046C312.511,-793.98 287.004,-716.374 270.704,-666.779"/>
<polygon fill="black" stroke="black" points="330.038,-847.307 328.885,-858.213 331.599,-852.057 333.16,-856.807 333.16,-856.807 333.16,-856.807 331.599,-852.057 337.435,-855.402 330.038,-847.307 330.038,-847.307"/>
<ellipse fill="black" stroke="black" cx="269.418" cy="-662.868" rx="4.00001" ry="4.00001"/>
</g>
<!-- Project&#45;&gt;Segment -->
<g id="edge18" class="edge"><title>Project&#45;&gt;Segment</title>
<path fill="none" stroke="black" d="M272.819,-885.916C238.454,-873.17 200.949,-852.57 180,-820 131.986,-745.351 149.046,-469.278 157.458,-365.123"/>
<polygon fill="black" stroke="black" points="272.983,-885.974 280.912,-893.549 277.697,-887.64 282.412,-889.306 282.412,-889.306 282.412,-889.306 277.697,-887.64 283.911,-885.064 272.983,-885.974 272.983,-885.974"/>
<ellipse fill="black" stroke="black" cx="157.793" cy="-361.034" rx="4" ry="4"/>
</g>
<!-- Project&#45;&gt;User -->
<g id="edge16" class="edge"><title>Project&#45;&gt;User</title>
<path fill="none" stroke="black" d="M384.27,-847.797C389.905,-838.528 395.642,-829.016 401,-820 403.766,-815.346 406.561,-810.627 409.375,-805.862"/>
<polygon fill="black" stroke="black" points="384.119,-848.045 375.071,-854.242 381.516,-852.315 378.914,-856.584 378.914,-856.584 378.914,-856.584 381.516,-852.315 382.756,-858.926 384.119,-848.045 384.119,-848.045"/>
<polygon fill="black" stroke="black" points="409.379,-805.855 418.334,-799.525 411.918,-801.547 414.457,-797.24 414.457,-797.24 414.457,-797.24 411.918,-801.547 410.581,-794.955 409.379,-805.855 409.379,-805.855"/>
</g>
<!-- Scenario&#45;&gt;Segment -->
<g id="edge28" class="edge"><title>Scenario&#45;&gt;Segment</title>
<path fill="none" stroke="black" d="M239.016,-569.008C220.827,-512.117 191.441,-420.209 174.401,-366.915"/>
<polygon fill="black" stroke="black" points="239.081,-569.212 237.841,-580.107 240.604,-573.975 242.127,-578.737 242.127,-578.737 242.127,-578.737 240.604,-573.975 246.413,-577.367 239.081,-569.212 239.081,-569.212"/>
<polygon fill="black" stroke="black" points="174.312,-366.637 175.553,-355.741 172.79,-361.874 171.267,-357.112 171.267,-357.112 171.267,-357.112 172.79,-361.874 166.981,-358.482 174.312,-366.637 174.312,-366.637"/>
</g>
<!-- SegmentInScenario -->
<g id="node12" class="node"><title>SegmentInScenario</title>
<polyline fill="none" stroke="black" points="163.5,-135 272.5,-135 "/>
<path fill="none" stroke="black" d="M272.5,-135C278.5,-135 284.5,-141 284.5,-147"/>
<polyline fill="none" stroke="black" points="284.5,-147 284.5,-203 "/>
<path fill="none" stroke="black" d="M284.5,-203C284.5,-209 278.5,-215 272.5,-215"/>
<polyline fill="none" stroke="black" points="272.5,-215 163.5,-215 "/>
<path fill="none" stroke="black" d="M163.5,-215C157.5,-215 151.5,-209 151.5,-203"/>
<polyline fill="none" stroke="black" points="151.5,-203 151.5,-147 "/>
<path fill="none" stroke="black" d="M151.5,-147C151.5,-141 157.5,-135 163.5,-135"/>
<text text-anchor="middle" x="218" y="-198.4" font-family="Times,serif" font-size="14.00">SegmentInScenario</text>
<polyline fill="none" stroke="black" points="151.5,-191 284.5,-191 "/>
<text text-anchor="start" x="159.5" y="-174.4" font-family="Times,serif" font-size="14.00">status :string</text>
<text text-anchor="start" x="159.5" y="-158.4" font-family="Times,serif" font-size="14.00">created_at :datetime</text>
<text text-anchor="start" x="159.5" y="-142.4" font-family="Times,serif" font-size="14.00">updated_at :datetime</text>
</g>
<!-- Scenario&#45;&gt;SegmentInScenario -->
<g id="edge26" class="edge"><title>Scenario&#45;&gt;SegmentInScenario</title>
<path fill="none" stroke="black" d="M254.442,-568.783C253.19,-500.48 249.136,-374.58 236,-268 234.201,-253.401 231.461,-237.65 228.658,-223.335"/>
<polygon fill="black" stroke="black" points="254.443,-568.838 250.114,-578.913 254.528,-573.837 254.613,-578.836 254.613,-578.836 254.613,-578.836 254.528,-573.837 259.112,-578.76 254.443,-568.838 254.443,-568.838"/>
<ellipse fill="black" stroke="black" cx="227.793" cy="-219.014" rx="4.00001" ry="4.00001"/>
</g>
<!-- Segment&#45;&gt;CountSession -->
<g id="edge30" class="edge"><title>Segment&#45;&gt;CountSession</title>
<path fill="none" stroke="black" d="M215.667,-287.145C239.551,-270.436 267.807,-250.439 293,-232 293.606,-231.556 294.215,-231.11 294.826,-230.662"/>
<polygon fill="black" stroke="black" points="215.611,-287.184 204.836,-289.221 211.512,-290.047 207.413,-292.91 207.413,-292.91 207.413,-292.91 211.512,-290.047 209.989,-296.599 215.611,-287.184 215.611,-287.184"/>
<ellipse fill="black" stroke="black" cx="298.219" cy="-228.159" rx="4.00002" ry="4.00002"/>
</g>
<!-- Segment&#45;&gt;GeoPointOnSegment -->
<g id="edge34" class="edge"><title>Segment&#45;&gt;GeoPointOnSegment</title>
<path fill="none" stroke="black" d="M135.482,-284.28C120.094,-259.725 100.792,-228.923 86.6049,-206.284"/>
<polygon fill="black" stroke="black" points="135.524,-284.348 137.022,-295.211 138.18,-288.584 140.835,-292.821 140.835,-292.821 140.835,-292.821 138.18,-288.584 144.648,-290.432 135.524,-284.348 135.524,-284.348"/>
<ellipse fill="black" stroke="black" cx="84.3141" cy="-202.629" rx="4.00002" ry="4.00002"/>
</g>
<!-- Segment&#45;&gt;SegmentInScenario -->
<g id="edge32" class="edge"><title>Segment&#45;&gt;SegmentInScenario</title>
<path fill="none" stroke="black" d="M176.815,-283.382C183.963,-264.571 192.449,-242.24 199.855,-222.75"/>
<polygon fill="black" stroke="black" points="176.78,-283.473 169.021,-291.223 175.004,-288.147 173.228,-292.821 173.228,-292.821 173.228,-292.821 175.004,-288.147 177.434,-294.42 176.78,-283.473 176.78,-283.473"/>
<ellipse fill="black" stroke="black" cx="201.321" cy="-218.893" rx="4.00001" ry="4.00001"/>
</g>
<!-- Subscription -->
<g id="node13" class="node"><title>Subscription</title>
<polyline fill="none" stroke="black" points="339.5,-1221 452.5,-1221 "/>
<path fill="none" stroke="black" d="M452.5,-1221C458.5,-1221 464.5,-1227 464.5,-1233"/>
<polyline fill="none" stroke="black" points="464.5,-1233 464.5,-1353 "/>
<path fill="none" stroke="black" d="M464.5,-1353C464.5,-1359 458.5,-1365 452.5,-1365"/>
<polyline fill="none" stroke="black" points="452.5,-1365 339.5,-1365 "/>
<path fill="none" stroke="black" d="M339.5,-1365C333.5,-1365 327.5,-1359 327.5,-1353"/>
<polyline fill="none" stroke="black" points="327.5,-1353 327.5,-1233 "/>
<path fill="none" stroke="black" d="M327.5,-1233C327.5,-1227 333.5,-1221 339.5,-1221"/>
<text text-anchor="middle" x="396" y="-1348.4" font-family="Times,serif" font-size="14.00">Subscription</text>
<polyline fill="none" stroke="black" points="327.5,-1341 464.5,-1341 "/>
<text text-anchor="start" x="335.5" y="-1324.4" font-family="Times,serif" font-size="14.00">name :string</text>
<text text-anchor="start" x="335.5" y="-1308.4" font-family="Times,serif" font-size="14.00">uses_ped :boolean</text>
<text text-anchor="start" x="335.5" y="-1292.4" font-family="Times,serif" font-size="14.00">uses_sign :boolean</text>
<text text-anchor="start" x="335.5" y="-1276.4" font-family="Times,serif" font-size="14.00">max_users :integer</text>
<text text-anchor="start" x="335.5" y="-1260.4" font-family="Times,serif" font-size="14.00">max_projects :integer</text>
<text text-anchor="start" x="335.5" y="-1244.4" font-family="Times,serif" font-size="14.00">created_at :datetime</text>
<text text-anchor="start" x="335.5" y="-1228.4" font-family="Times,serif" font-size="14.00">updated_at :datetime</text>
</g>
<!-- Subscription&#45;&gt;Organization -->
<g id="edge36" class="edge"><title>Subscription&#45;&gt;Organization</title>
<path fill="none" stroke="black" d="M396,-1210.83C396,-1204.46 396,-1197.98 396,-1191.48"/>
<polygon fill="black" stroke="black" points="396,-1210.95 391.5,-1220.95 396,-1215.95 396,-1220.95 396,-1220.95 396,-1220.95 396,-1215.95 400.5,-1220.95 396,-1210.95 396,-1210.95"/>
<ellipse fill="black" stroke="black" cx="396" cy="-1187.27" rx="4" ry="4"/>
</g>
<!-- User&#45;&gt;CountSession -->
<g id="edge40" class="edge"><title>User&#45;&gt;CountSession</title>
<path fill="none" stroke="black" d="M551.37,-408.93C550.397,-360.246 541.568,-310.342 518,-268 501.515,-238.382 471.267,-216.996 442.229,-202.257"/>
<polygon fill="black" stroke="black" points="551.371,-408.972 546.962,-419.013 551.416,-413.972 551.462,-418.972 551.462,-418.972 551.462,-418.972 551.416,-413.972 555.962,-418.931 551.371,-408.972 551.371,-408.972"/>
<ellipse fill="black" stroke="black" cx="438.473" cy="-200.414" rx="4.00002" ry="4.00002"/>
</g>
<!-- User&#45;&gt;ProjectMember -->
<g id="edge38" class="edge"><title>User&#45;&gt;ProjectMember</title>
<path fill="none" stroke="black" d="M464.118,-408.903C462.387,-402.023 460.713,-395.372 459.115,-389.026"/>
<polygon fill="black" stroke="black" points="464.177,-409.134 462.254,-419.93 465.397,-413.983 466.618,-418.832 466.618,-418.832 466.618,-418.832 465.397,-413.983 470.981,-417.733 464.177,-409.134 464.177,-409.134"/>
<ellipse fill="black" stroke="black" cx="458.112" cy="-385.038" rx="4.00001" ry="4.00001"/>
</g>
</g>
</svg>
