<?xml version="1.0" encoding="UTF-8" standalone="no"?>
<!DOCTYPE svg PUBLIC "-//W3C//DTD SVG 1.1//EN"
 "http://www.w3.org/Graphics/SVG/1.1/DTD/svg11.dtd">
<!-- Generated by graphviz version 2.28.0 (20111007.0113)
 -->
<!-- Title: models_diagram Pages: 1 -->
<svg width="844pt" height="1384pt"
 viewBox="0.00 0.00 844.00 1384.00" xmlns="http://www.w3.org/2000/svg" xmlns:xlink="http://www.w3.org/1999/xlink">
<g id="graph1" class="graph" transform="scale(1 1) rotate(0) translate(4 1380)">
<title>models_diagram</title>
<polygon fill="white" stroke="white" points="-4,5 -4,-1380 841,-1380 841,5 -4,5"/>
<!-- _diagram_info -->
<g id="node1" class="node"><title>_diagram_info</title>
<text text-anchor="start" x="210" y="-1258.4" font-family="Times,serif" font-size="14.00">Models diagram</text>
<text text-anchor="start" x="210" y="-1242.4" font-family="Times,serif" font-size="14.00">Date: Feb 02 2012 &#45; 12:58</text>
<text text-anchor="start" x="210" y="-1226.4" font-family="Times,serif" font-size="14.00">Migration version: 20120127205334</text>
<text text-anchor="start" x="210" y="-1210.4" font-family="Times,serif" font-size="14.00">Generated by RailRoad 0.5.0</text>
</g>
<!-- Count -->
<g id="node2" class="node"><title>Count</title>
<polyline fill="none" stroke="black" points="379.5,-1 488.5,-1 "/>
<path fill="none" stroke="black" d="M488.5,-1C494.5,-1 500.5,-7 500.5,-13"/>
<polyline fill="none" stroke="black" points="500.5,-13 500.5,-69 "/>
<path fill="none" stroke="black" d="M500.5,-69C500.5,-75 494.5,-81 488.5,-81"/>
<polyline fill="none" stroke="black" points="488.5,-81 379.5,-81 "/>
<path fill="none" stroke="black" d="M379.5,-81C373.5,-81 367.5,-75 367.5,-69"/>
<polyline fill="none" stroke="black" points="367.5,-69 367.5,-13 "/>
<path fill="none" stroke="black" d="M367.5,-13C367.5,-7 373.5,-1 379.5,-1"/>
<text text-anchor="middle" x="434" y="-64.4" font-family="Times,serif" font-size="14.00">Count</text>
<polyline fill="none" stroke="black" points="367.5,-57 500.5,-57 "/>
<text text-anchor="start" x="375.5" y="-40.4" font-family="Times,serif" font-size="14.00">at :datetime</text>
<text text-anchor="start" x="375.5" y="-24.4" font-family="Times,serif" font-size="14.00">created_at :datetime</text>
<text text-anchor="start" x="375.5" y="-8.4" font-family="Times,serif" font-size="14.00">updated_at :datetime</text>
</g>
<!-- CountSession -->
<g id="node3" class="node"><title>CountSession</title>
<polyline fill="none" stroke="black" points="379.5,-119 488.5,-119 "/>
<path fill="none" stroke="black" d="M488.5,-119C494.5,-119 500.5,-125 500.5,-131"/>
<polyline fill="none" stroke="black" points="500.5,-131 500.5,-235 "/>
<path fill="none" stroke="black" d="M500.5,-235C500.5,-241 494.5,-247 488.5,-247"/>
<polyline fill="none" stroke="black" points="488.5,-247 379.5,-247 "/>
<path fill="none" stroke="black" d="M379.5,-247C373.5,-247 367.5,-241 367.5,-235"/>
<polyline fill="none" stroke="black" points="367.5,-235 367.5,-131 "/>
<path fill="none" stroke="black" d="M367.5,-131C367.5,-125 373.5,-119 379.5,-119"/>
<text text-anchor="middle" x="434" y="-230.4" font-family="Times,serif" font-size="14.00">CountSession</text>
<polyline fill="none" stroke="black" points="367.5,-223 500.5,-223 "/>
<text text-anchor="start" x="375.5" y="-206.4" font-family="Times,serif" font-size="14.00">start :datetime</text>
<text text-anchor="start" x="375.5" y="-190.4" font-family="Times,serif" font-size="14.00">stop :datetime</text>
<text text-anchor="start" x="375.5" y="-174.4" font-family="Times,serif" font-size="14.00">status :string</text>
<text text-anchor="start" x="375.5" y="-158.4" font-family="Times,serif" font-size="14.00">created_at :datetime</text>
<text text-anchor="start" x="375.5" y="-142.4" font-family="Times,serif" font-size="14.00">updated_at :datetime</text>
<text text-anchor="start" x="375.5" y="-126.4" font-family="Times,serif" font-size="14.00">count_total :integer</text>
</g>
<!-- CountSession&#45;&gt;Count -->
<g id="edge2" class="edge"><title>CountSession&#45;&gt;Count</title>
<path fill="none" stroke="black" d="M434,-108.937C434,-102.322 434,-95.7431 434,-89.4377"/>
<polygon fill="black" stroke="black" points="434,-108.962 429.5,-118.962 434,-113.962 434,-118.962 434,-118.962 434,-118.962 434,-113.962 438.5,-118.962 434,-108.962 434,-108.962"/>
<ellipse fill="black" stroke="black" cx="434" cy="-85.0312" rx="4" ry="4"/>
</g>
<!-- CountSessionCredit -->
<g id="node4" class="node"><title>CountSessionCredit</title>
<polyline fill="none" stroke="black" points="470,-937 694,-937 "/>
<path fill="none" stroke="black" d="M694,-937C700,-937 706,-943 706,-949"/>
<polyline fill="none" stroke="black" points="706,-949 706,-1005 "/>
<path fill="none" stroke="black" d="M706,-1005C706,-1011 700,-1017 694,-1017"/>
<polyline fill="none" stroke="black" points="694,-1017 470,-1017 "/>
<path fill="none" stroke="black" d="M470,-1017C464,-1017 458,-1011 458,-1005"/>
<polyline fill="none" stroke="black" points="458,-1005 458,-949 "/>
<path fill="none" stroke="black" d="M458,-949C458,-943 464,-937 470,-937"/>
<text text-anchor="middle" x="582" y="-1000.4" font-family="Times,serif" font-size="14.00">CountSessionCredit</text>
<polyline fill="none" stroke="black" points="458,-993 706,-993 "/>
<text text-anchor="start" x="466" y="-976.4" font-family="Times,serif" font-size="14.00">payment_method :string</text>
<text text-anchor="start" x="466" y="-960.4" font-family="Times,serif" font-size="14.00">count_session_credits_purchased :integer</text>
<text text-anchor="start" x="466" y="-944.4" font-family="Times,serif" font-size="14.00">count_session_credits_used :integer</text>
</g>
<!-- DataSource -->
<g id="node5" class="node"><title>DataSource</title>
<polyline fill="none" stroke="black" points="11.5,-929 120.5,-929 "/>
<path fill="none" stroke="black" d="M120.5,-929C126.5,-929 132.5,-935 132.5,-941"/>
<polyline fill="none" stroke="black" points="132.5,-941 132.5,-1013 "/>
<path fill="none" stroke="black" d="M132.5,-1013C132.5,-1019 126.5,-1025 120.5,-1025"/>
<polyline fill="none" stroke="black" points="120.5,-1025 11.5,-1025 "/>
<path fill="none" stroke="black" d="M11.5,-1025C5.5,-1025 -0.5,-1019 -0.5,-1013"/>
<polyline fill="none" stroke="black" points="-0.5,-1013 -0.5,-941 "/>
<path fill="none" stroke="black" d="M-0.5,-941C-0.5,-935 5.5,-929 11.5,-929"/>
<text text-anchor="middle" x="66" y="-1008.4" font-family="Times,serif" font-size="14.00">DataSource</text>
<polyline fill="none" stroke="black" points="-0.5,-1001 132.5,-1001 "/>
<text text-anchor="start" x="7.5" y="-984.4" font-family="Times,serif" font-size="14.00">name :string</text>
<text text-anchor="start" x="7.5" y="-968.4" font-family="Times,serif" font-size="14.00">kind :string</text>
<text text-anchor="start" x="7.5" y="-952.4" font-family="Times,serif" font-size="14.00">created_at :datetime</text>
<text text-anchor="start" x="7.5" y="-936.4" font-family="Times,serif" font-size="14.00">updated_at :datetime</text>
</g>
<!-- GeoPoint -->
<g id="node6" class="node"><title>GeoPoint</title>
<polyline fill="none" stroke="black" points="11.5,-595 120.5,-595 "/>
<path fill="none" stroke="black" d="M120.5,-595C126.5,-595 132.5,-601 132.5,-607"/>
<polyline fill="none" stroke="black" points="132.5,-607 132.5,-695 "/>
<path fill="none" stroke="black" d="M132.5,-695C132.5,-701 126.5,-707 120.5,-707"/>
<polyline fill="none" stroke="black" points="120.5,-707 11.5,-707 "/>
<path fill="none" stroke="black" d="M11.5,-707C5.5,-707 -0.5,-701 -0.5,-695"/>
<polyline fill="none" stroke="black" points="-0.5,-695 -0.5,-607 "/>
<path fill="none" stroke="black" d="M-0.5,-607C-0.5,-601 5.5,-595 11.5,-595"/>
<text text-anchor="middle" x="66" y="-690.4" font-family="Times,serif" font-size="14.00">GeoPoint</text>
<polyline fill="none" stroke="black" points="-0.5,-683 132.5,-683 "/>
<text text-anchor="start" x="7.5" y="-666.4" font-family="Times,serif" font-size="14.00">latitude :decimal</text>
<text text-anchor="start" x="7.5" y="-650.4" font-family="Times,serif" font-size="14.00">longitude :decimal</text>
<text text-anchor="start" x="7.5" y="-634.4" font-family="Times,serif" font-size="14.00">accuracy :decimal</text>
<text text-anchor="start" x="7.5" y="-618.4" font-family="Times,serif" font-size="14.00">created_at :datetime</text>
<text text-anchor="start" x="7.5" y="-602.4" font-family="Times,serif" font-size="14.00">updated_at :datetime</text>
</g>
<!-- DataSource&#45;&gt;GeoPoint -->
<g id="edge4" class="edge"><title>DataSource&#45;&gt;GeoPoint</title>
<path fill="none" stroke="black" d="M66,-918.866C66,-861.799 66,-774.288 66,-715.18"/>
<polygon fill="black" stroke="black" points="66.0001,-918.888 61.5,-928.888 66,-923.888 66,-928.888 66,-928.888 66,-928.888 66,-923.888 70.5,-928.888 66.0001,-918.888 66.0001,-918.888"/>
<ellipse fill="black" stroke="black" cx="66" cy="-711.035" rx="4" ry="4"/>
</g>
<!-- GeoPointOnSegment -->
<g id="node7" class="node"><title>GeoPointOnSegment</title>
<polyline fill="none" stroke="black" points="75.5,-159 186.5,-159 "/>
<path fill="none" stroke="black" d="M186.5,-159C192.5,-159 198.5,-165 198.5,-171"/>
<polyline fill="none" stroke="black" points="198.5,-171 198.5,-195 "/>
<path fill="none" stroke="black" d="M198.5,-195C198.5,-201 192.5,-207 186.5,-207"/>
<polyline fill="none" stroke="black" points="186.5,-207 75.5,-207 "/>
<path fill="none" stroke="black" d="M75.5,-207C69.5,-207 63.5,-201 63.5,-195"/>
<polyline fill="none" stroke="black" points="63.5,-195 63.5,-171 "/>
<path fill="none" stroke="black" d="M63.5,-171C63.5,-165 69.5,-159 75.5,-159"/>
<text text-anchor="middle" x="131" y="-190.4" font-family="Times,serif" font-size="14.00">GeoPointOnSegment</text>
<polyline fill="none" stroke="black" points="63.5,-183 198.5,-183 "/>
</g>
<!-- GeoPoint&#45;&gt;GeoPointOnSegment -->
<g id="edge8" class="edge"><title>GeoPoint&#45;&gt;GeoPointOnSegment</title>
<path fill="none" stroke="black" d="M75.0932,-584.809C89.2746,-483.139 116.121,-290.67 126.628,-215.344"/>
<polygon fill="black" stroke="black" points="75.0932,-584.81 69.2548,-594.092 74.4024,-589.762 73.7116,-594.714 73.7116,-594.714 73.7116,-594.714 74.4024,-589.762 78.1685,-595.335 75.0932,-584.81 75.0932,-584.81"/>
<ellipse fill="black" stroke="black" cx="127.216" cy="-211.13" rx="4.00001" ry="4.00001"/>
</g>
<!-- Segment -->
<g id="node13" class="node"><title>Segment</title>
<polyline fill="none" stroke="black" points="193,-285 319,-285 "/>
<path fill="none" stroke="black" d="M319,-285C325,-285 331,-291 331,-297"/>
<polyline fill="none" stroke="black" points="331,-297 331,-401 "/>
<path fill="none" stroke="black" d="M331,-401C331,-407 325,-413 319,-413"/>
<polyline fill="none" stroke="black" points="319,-413 193,-413 "/>
<path fill="none" stroke="black" d="M193,-413C187,-413 181,-407 181,-401"/>
<polyline fill="none" stroke="black" points="181,-401 181,-297 "/>
<path fill="none" stroke="black" d="M181,-297C181,-291 187,-285 193,-285"/>
<text text-anchor="middle" x="256" y="-396.4" font-family="Times,serif" font-size="14.00">Segment</text>
<polyline fill="none" stroke="black" points="181,-389 331,-389 "/>
<text text-anchor="start" x="189" y="-372.4" font-family="Times,serif" font-size="14.00">created_at :datetime</text>
<text text-anchor="start" x="189" y="-356.4" font-family="Times,serif" font-size="14.00">updated_at :datetime</text>
<text text-anchor="start" x="189" y="-340.4" font-family="Times,serif" font-size="14.00">start_longitude :decimal</text>
<text text-anchor="start" x="189" y="-324.4" font-family="Times,serif" font-size="14.00">start_latitude :decimal</text>
<text text-anchor="start" x="189" y="-308.4" font-family="Times,serif" font-size="14.00">end_longitude :decimal</text>
<text text-anchor="start" x="189" y="-292.4" font-family="Times,serif" font-size="14.00">end_latitude :decimal</text>
</g>
<!-- GeoPoint&#45;&gt;Segment -->
<g id="edge6" class="edge"><title>GeoPoint&#45;&gt;Segment</title>
<path fill="none" stroke="black" d="M106.322,-586.334C136.857,-538.121 178.819,-471.865 210.544,-421.772"/>
<polygon fill="black" stroke="black" points="106.199,-586.527 97.0472,-592.568 103.524,-590.751 100.849,-594.975 100.849,-594.975 100.849,-594.975 103.524,-590.751 104.651,-597.383 106.199,-586.527 106.199,-586.527"/>
<polygon fill="black" stroke="black" points="210.593,-421.695 219.745,-415.655 213.268,-417.471 215.943,-413.247 215.943,-413.247 215.943,-413.247 213.268,-417.471 212.142,-410.839 210.593,-421.695 210.593,-421.695"/>
</g>
<!-- ModelJob -->
<g id="node8" class="node"><title>ModelJob</title>
<polyline fill="none" stroke="black" points="475,-555 601,-555 "/>
<path fill="none" stroke="black" d="M601,-555C607,-555 613,-561 613,-567"/>
<polyline fill="none" stroke="black" points="613,-567 613,-735 "/>
<path fill="none" stroke="black" d="M613,-735C613,-741 607,-747 601,-747"/>
<polyline fill="none" stroke="black" points="601,-747 475,-747 "/>
<path fill="none" stroke="black" d="M475,-747C469,-747 463,-741 463,-735"/>
<polyline fill="none" stroke="black" points="463,-735 463,-567 "/>
<path fill="none" stroke="black" d="M463,-567C463,-561 469,-555 475,-555"/>
<text text-anchor="middle" x="538" y="-730.4" font-family="Times,serif" font-size="14.00">ModelJob</text>
<polyline fill="none" stroke="black" points="463,-723 613,-723 "/>
<text text-anchor="start" x="471" y="-706.4" font-family="Times,serif" font-size="14.00">kind :string</text>
<text text-anchor="start" x="471" y="-690.4" font-family="Times,serif" font-size="14.00">parameters :text</text>
<text text-anchor="start" x="471" y="-674.4" font-family="Times,serif" font-size="14.00">output :text</text>
<text text-anchor="start" x="471" y="-658.4" font-family="Times,serif" font-size="14.00">started :boolean</text>
<text text-anchor="start" x="471" y="-642.4" font-family="Times,serif" font-size="14.00">finished :boolean</text>
<text text-anchor="start" x="471" y="-626.4" font-family="Times,serif" font-size="14.00">picked_up :boolean</text>
<text text-anchor="start" x="471" y="-610.4" font-family="Times,serif" font-size="14.00">seconds_to_run :integer</text>
<text text-anchor="start" x="471" y="-594.4" font-family="Times,serif" font-size="14.00">created_at :datetime</text>
<text text-anchor="start" x="471" y="-578.4" font-family="Times,serif" font-size="14.00">updated_at :datetime</text>
<text text-anchor="start" x="471" y="-562.4" font-family="Times,serif" font-size="14.00">project_version :integer</text>
</g>
<!-- Organization -->
<g id="node9" class="node"><title>Organization</title>
<polyline fill="none" stroke="black" points="452.5,-1103 711.5,-1103 "/>
<path fill="none" stroke="black" d="M711.5,-1103C717.5,-1103 723.5,-1109 723.5,-1115"/>
<polyline fill="none" stroke="black" points="723.5,-1115 723.5,-1363 "/>
<path fill="none" stroke="black" d="M723.5,-1363C723.5,-1369 717.5,-1375 711.5,-1375"/>
<polyline fill="none" stroke="black" points="711.5,-1375 452.5,-1375 "/>
<path fill="none" stroke="black" d="M452.5,-1375C446.5,-1375 440.5,-1369 440.5,-1363"/>
<polyline fill="none" stroke="black" points="440.5,-1363 440.5,-1115 "/>
<path fill="none" stroke="black" d="M440.5,-1115C440.5,-1109 446.5,-1103 452.5,-1103"/>
<text text-anchor="middle" x="582" y="-1358.4" font-family="Times,serif" font-size="14.00">Organization</text>
<polyline fill="none" stroke="black" points="440.5,-1351 723.5,-1351 "/>
<text text-anchor="start" x="448.5" y="-1334.4" font-family="Times,serif" font-size="14.00">name :string</text>
<text text-anchor="start" x="448.5" y="-1318.4" font-family="Times,serif" font-size="14.00">slug :string</text>
<text text-anchor="start" x="448.5" y="-1302.4" font-family="Times,serif" font-size="14.00">url :string</text>
<text text-anchor="start" x="448.5" y="-1286.4" font-family="Times,serif" font-size="14.00">address :string</text>
<text text-anchor="start" x="448.5" y="-1270.4" font-family="Times,serif" font-size="14.00">city :string</text>
<text text-anchor="start" x="448.5" y="-1254.4" font-family="Times,serif" font-size="14.00">state :string</text>
<text text-anchor="start" x="448.5" y="-1238.4" font-family="Times,serif" font-size="14.00">country :string</text>
<text text-anchor="start" x="448.5" y="-1222.4" font-family="Times,serif" font-size="14.00">postal_code :string</text>
<text text-anchor="start" x="448.5" y="-1206.4" font-family="Times,serif" font-size="14.00">created_at :datetime</text>
<text text-anchor="start" x="448.5" y="-1190.4" font-family="Times,serif" font-size="14.00">updated_at :datetime</text>
<text text-anchor="start" x="448.5" y="-1174.4" font-family="Times,serif" font-size="14.00">owns_pedcount :boolean</text>
<text text-anchor="start" x="448.5" y="-1158.4" font-family="Times,serif" font-size="14.00">owns_pedplus :boolean</text>
<text text-anchor="start" x="448.5" y="-1142.4" font-family="Times,serif" font-size="14.00">max_number_of_users :integer</text>
<text text-anchor="start" x="448.5" y="-1126.4" font-family="Times,serif" font-size="14.00">max_number_of_projects :integer</text>
<text text-anchor="start" x="448.5" y="-1110.4" font-family="Times,serif" font-size="14.00">max_number_of_segments_per_project :integer</text>
</g>
<!-- Organization&#45;&gt;CountSessionCredit -->
<g id="edge14" class="edge"><title>Organization&#45;&gt;CountSessionCredit</title>
<path fill="none" stroke="black" d="M582,-1092.41C582,-1068.12 582,-1044.58 582,-1025.22"/>
<polygon fill="black" stroke="black" points="582,-1092.67 577.5,-1102.67 582,-1097.67 582,-1102.67 582,-1102.67 582,-1102.67 582,-1097.67 586.5,-1102.67 582,-1092.67 582,-1092.67"/>
<ellipse fill="black" stroke="black" cx="582" cy="-1021.19" rx="4" ry="4"/>
</g>
<!-- Project -->
<g id="node10" class="node"><title>Project</title>
<polyline fill="none" stroke="black" points="270,-889 428,-889 "/>
<path fill="none" stroke="black" d="M428,-889C434,-889 440,-895 440,-901"/>
<polyline fill="none" stroke="black" points="440,-901 440,-1053 "/>
<path fill="none" stroke="black" d="M440,-1053C440,-1059 434,-1065 428,-1065"/>
<polyline fill="none" stroke="black" points="428,-1065 270,-1065 "/>
<path fill="none" stroke="black" d="M270,-1065C264,-1065 258,-1059 258,-1053"/>
<polyline fill="none" stroke="black" points="258,-1053 258,-901 "/>
<path fill="none" stroke="black" d="M258,-901C258,-895 264,-889 270,-889"/>
<text text-anchor="middle" x="349" y="-1048.4" font-family="Times,serif" font-size="14.00">Project</text>
<polyline fill="none" stroke="black" points="258,-1041 440,-1041 "/>
<text text-anchor="start" x="266" y="-1024.4" font-family="Times,serif" font-size="14.00">name :string</text>
<text text-anchor="start" x="266" y="-1008.4" font-family="Times,serif" font-size="14.00">kind :string</text>
<text text-anchor="start" x="266" y="-992.4" font-family="Times,serif" font-size="14.00">created_at :datetime</text>
<text text-anchor="start" x="266" y="-976.4" font-family="Times,serif" font-size="14.00">updated_at :datetime</text>
<text text-anchor="start" x="266" y="-960.4" font-family="Times,serif" font-size="14.00">southwest_latitude :decimal</text>
<text text-anchor="start" x="266" y="-944.4" font-family="Times,serif" font-size="14.00">southwest_longitude :decimal</text>
<text text-anchor="start" x="266" y="-928.4" font-family="Times,serif" font-size="14.00">northeast_latitude :decimal</text>
<text text-anchor="start" x="266" y="-912.4" font-family="Times,serif" font-size="14.00">northeast_longitude :decimal</text>
<text text-anchor="start" x="266" y="-896.4" font-family="Times,serif" font-size="14.00">version :integer</text>
</g>
<!-- Organization&#45;&gt;Project -->
<g id="edge12" class="edge"><title>Organization&#45;&gt;Project</title>
<path fill="none" stroke="black" d="M453.794,-1094.94C446.73,-1087.05 439.724,-1079.24 432.881,-1071.6"/>
<polygon fill="black" stroke="black" points="454.049,-1095.22 457.372,-1105.67 457.386,-1098.95 460.723,-1102.67 460.723,-1102.67 460.723,-1102.67 457.386,-1098.95 464.074,-1099.67 454.049,-1095.22 454.049,-1095.22"/>
<ellipse fill="black" stroke="black" cx="429.844" cy="-1068.21" rx="4.00002" ry="4.00002"/>
</g>
<!-- User -->
<g id="node15" class="node"><title>User</title>
<polyline fill="none" stroke="black" points="643.5,-451 824.5,-451 "/>
<path fill="none" stroke="black" d="M824.5,-451C830.5,-451 836.5,-457 836.5,-463"/>
<polyline fill="none" stroke="black" points="836.5,-463 836.5,-839 "/>
<path fill="none" stroke="black" d="M836.5,-839C836.5,-845 830.5,-851 824.5,-851"/>
<polyline fill="none" stroke="black" points="824.5,-851 643.5,-851 "/>
<path fill="none" stroke="black" d="M643.5,-851C637.5,-851 631.5,-845 631.5,-839"/>
<polyline fill="none" stroke="black" points="631.5,-839 631.5,-463 "/>
<path fill="none" stroke="black" d="M631.5,-463C631.5,-457 637.5,-451 643.5,-451"/>
<text text-anchor="middle" x="734" y="-834.4" font-family="Times,serif" font-size="14.00">User</text>
<polyline fill="none" stroke="black" points="631.5,-827 836.5,-827 "/>
<text text-anchor="start" x="639.5" y="-810.4" font-family="Times,serif" font-size="14.00">first_name :string</text>
<text text-anchor="start" x="639.5" y="-794.4" font-family="Times,serif" font-size="14.00">last_name :string</text>
<text text-anchor="start" x="639.5" y="-778.4" font-family="Times,serif" font-size="14.00">email :string</text>
<text text-anchor="start" x="639.5" y="-762.4" font-family="Times,serif" font-size="14.00">phone_number :string</text>
<text text-anchor="start" x="639.5" y="-746.4" font-family="Times,serif" font-size="14.00">organization_billing :boolean</text>
<text text-anchor="start" x="639.5" y="-730.4" font-family="Times,serif" font-size="14.00">organization_manager :boolean</text>
<text text-anchor="start" x="639.5" y="-714.4" font-family="Times,serif" font-size="14.00">orgup_admin :boolean</text>
<text text-anchor="start" x="639.5" y="-698.4" font-family="Times,serif" font-size="14.00">orgup_api :boolean</text>
<text text-anchor="start" x="639.5" y="-682.4" font-family="Times,serif" font-size="14.00">encrypted_password :string</text>
<text text-anchor="start" x="639.5" y="-666.4" font-family="Times,serif" font-size="14.00">invitation_token :string</text>
<text text-anchor="start" x="639.5" y="-650.4" font-family="Times,serif" font-size="14.00">invitation_sent_at :datetime</text>
<text text-anchor="start" x="639.5" y="-634.4" font-family="Times,serif" font-size="14.00">invitation_accepted_at :datetime</text>
<text text-anchor="start" x="639.5" y="-618.4" font-family="Times,serif" font-size="14.00">invitation_limit :integer</text>
<text text-anchor="start" x="639.5" y="-602.4" font-family="Times,serif" font-size="14.00">invited_by_type :string</text>
<text text-anchor="start" x="639.5" y="-586.4" font-family="Times,serif" font-size="14.00">reset_password_token :string</text>
<text text-anchor="start" x="639.5" y="-570.4" font-family="Times,serif" font-size="14.00">reset_password_sent_at :datetime</text>
<text text-anchor="start" x="639.5" y="-554.4" font-family="Times,serif" font-size="14.00">remember_created_at :datetime</text>
<text text-anchor="start" x="639.5" y="-538.4" font-family="Times,serif" font-size="14.00">current_sign_in_at :datetime</text>
<text text-anchor="start" x="639.5" y="-522.4" font-family="Times,serif" font-size="14.00">last_sign_in_at :datetime</text>
<text text-anchor="start" x="639.5" y="-506.4" font-family="Times,serif" font-size="14.00">current_sign_in_ip :string</text>
<text text-anchor="start" x="639.5" y="-490.4" font-family="Times,serif" font-size="14.00">last_sign_in_ip :string</text>
<text text-anchor="start" x="639.5" y="-474.4" font-family="Times,serif" font-size="14.00">created_at :datetime</text>
<text text-anchor="start" x="639.5" y="-458.4" font-family="Times,serif" font-size="14.00">updated_at :datetime</text>
</g>
<!-- Organization&#45;&gt;User -->
<g id="edge10" class="edge"><title>Organization&#45;&gt;User</title>
<path fill="none" stroke="black" d="M702.737,-1093.72C707.41,-1084.63 711.559,-1075.37 715,-1066 738.781,-1001.26 747.417,-926.963 748.916,-859.338"/>
<polygon fill="black" stroke="black" points="702.623,-1093.93 693.929,-1100.62 700.259,-1098.34 697.895,-1102.75 697.895,-1102.75 697.895,-1102.75 700.259,-1098.34 701.86,-1104.87 702.623,-1093.93 702.623,-1093.93"/>
<ellipse fill="black" stroke="black" cx="748.992" cy="-855.124" rx="4" ry="4"/>
</g>
<!-- Project&#45;&gt;CountSession -->
<g id="edge26" class="edge"><title>Project&#45;&gt;CountSession</title>
<path fill="none" stroke="black" d="M372.234,-879.033C374.011,-869.926 375.639,-860.81 377,-852 404.367,-674.796 395.721,-628.652 411,-450 416.645,-383.996 423.155,-308.788 427.805,-255.222"/>
<polygon fill="black" stroke="black" points="372.222,-879.093 365.84,-888.011 371.237,-883.995 370.252,-888.897 370.252,-888.897 370.252,-888.897 371.237,-883.995 374.664,-889.784 372.222,-879.093 372.222,-879.093"/>
<ellipse fill="black" stroke="black" cx="428.16" cy="-251.132" rx="4" ry="4"/>
</g>
<!-- Project&#45;&gt;GeoPoint -->
<g id="edge22" class="edge"><title>Project&#45;&gt;GeoPoint</title>
<path fill="none" stroke="black" d="M248.872,-931.144C212.961,-911.103 174.576,-884.571 147,-852 113.502,-812.433 92.5507,-757.2 80.3698,-714.801"/>
<polygon fill="black" stroke="black" points="249.165,-931.304 255.783,-940.047 253.553,-933.701 257.941,-936.098 257.941,-936.098 257.941,-936.098 253.553,-933.701 260.098,-932.149 249.165,-931.304 249.165,-931.304"/>
<ellipse fill="black" stroke="black" cx="79.275" cy="-710.891" rx="4.00001" ry="4.00001"/>
</g>
<!-- Project&#45;&gt;GeoPointOnSegment -->
<g id="edge24" class="edge"><title>Project&#45;&gt;GeoPointOnSegment</title>
<path fill="none" stroke="black" d="M249.503,-917.914C226.606,-899.748 204.918,-877.629 191,-852 160.344,-795.547 137.955,-340.035 132.361,-215.415"/>
<polygon fill="black" stroke="black" points="249.715,-918.076 254.897,-927.74 253.678,-921.125 257.641,-924.173 257.641,-924.173 257.641,-924.173 253.678,-921.125 260.385,-920.607 249.715,-918.076 249.715,-918.076"/>
<ellipse fill="black" stroke="black" cx="132.18" cy="-211.354" rx="4" ry="4"/>
</g>
<!-- Project&#45;&gt;ModelJob -->
<g id="edge30" class="edge"><title>Project&#45;&gt;ModelJob</title>
<path fill="none" stroke="black" d="M429.811,-880.718C436.628,-871.243 443.143,-861.581 449,-852 467.534,-821.68 484.402,-786.827 498.349,-754.798"/>
<polygon fill="black" stroke="black" points="429.662,-880.923 420.122,-886.331 426.707,-884.957 423.752,-888.991 423.752,-888.991 423.752,-888.991 426.707,-884.957 427.383,-891.65 429.662,-880.923 429.662,-880.923"/>
<ellipse fill="black" stroke="black" cx="500.062" cy="-750.826" rx="4.00002" ry="4.00002"/>
</g>
<!-- ProjectMember -->
<g id="node11" class="node"><title>ProjectMember</title>
<polyline fill="none" stroke="black" points="510.5,-293 619.5,-293 "/>
<path fill="none" stroke="black" d="M619.5,-293C625.5,-293 631.5,-299 631.5,-305"/>
<polyline fill="none" stroke="black" points="631.5,-305 631.5,-393 "/>
<path fill="none" stroke="black" d="M631.5,-393C631.5,-399 625.5,-405 619.5,-405"/>
<polyline fill="none" stroke="black" points="619.5,-405 510.5,-405 "/>
<path fill="none" stroke="black" d="M510.5,-405C504.5,-405 498.5,-399 498.5,-393"/>
<polyline fill="none" stroke="black" points="498.5,-393 498.5,-305 "/>
<path fill="none" stroke="black" d="M498.5,-305C498.5,-299 504.5,-293 510.5,-293"/>
<text text-anchor="middle" x="565" y="-388.4" font-family="Times,serif" font-size="14.00">ProjectMember</text>
<polyline fill="none" stroke="black" points="498.5,-381 631.5,-381 "/>
<text text-anchor="start" x="506.5" y="-364.4" font-family="Times,serif" font-size="14.00">view :boolean</text>
<text text-anchor="start" x="506.5" y="-348.4" font-family="Times,serif" font-size="14.00">edit :boolean</text>
<text text-anchor="start" x="506.5" y="-332.4" font-family="Times,serif" font-size="14.00">manage :boolean</text>
<text text-anchor="start" x="506.5" y="-316.4" font-family="Times,serif" font-size="14.00">created_at :datetime</text>
<text text-anchor="start" x="506.5" y="-300.4" font-family="Times,serif" font-size="14.00">updated_at :datetime</text>
</g>
<!-- Project&#45;&gt;ProjectMember -->
<g id="edge16" class="edge"><title>Project&#45;&gt;ProjectMember</title>
<path fill="none" stroke="black" d="M401.336,-879.407C405.029,-870.307 408.337,-861.085 411,-852 461.538,-679.568 372.299,-610.037 454,-450 463.266,-431.849 477.301,-415.42 492.303,-401.366"/>
<polygon fill="black" stroke="black" points="401.246,-879.622 393.214,-887.088 399.303,-884.229 397.36,-888.836 397.36,-888.836 397.36,-888.836 399.303,-884.229 401.506,-890.585 401.246,-879.622 401.246,-879.622"/>
<ellipse fill="black" stroke="black" cx="495.36" cy="-398.587" rx="4.00002" ry="4.00002"/>
</g>
<!-- Scenario -->
<g id="node12" class="node"><title>Scenario</title>
<polyline fill="none" stroke="black" points="247.5,-611 356.5,-611 "/>
<path fill="none" stroke="black" d="M356.5,-611C362.5,-611 368.5,-617 368.5,-623"/>
<polyline fill="none" stroke="black" points="368.5,-623 368.5,-679 "/>
<path fill="none" stroke="black" d="M368.5,-679C368.5,-685 362.5,-691 356.5,-691"/>
<polyline fill="none" stroke="black" points="356.5,-691 247.5,-691 "/>
<path fill="none" stroke="black" d="M247.5,-691C241.5,-691 235.5,-685 235.5,-679"/>
<polyline fill="none" stroke="black" points="235.5,-679 235.5,-623 "/>
<path fill="none" stroke="black" d="M235.5,-623C235.5,-617 241.5,-611 247.5,-611"/>
<text text-anchor="middle" x="302" y="-674.4" font-family="Times,serif" font-size="14.00">Scenario</text>
<polyline fill="none" stroke="black" points="235.5,-667 368.5,-667 "/>
<text text-anchor="start" x="243.5" y="-650.4" font-family="Times,serif" font-size="14.00">name :string</text>
<text text-anchor="start" x="243.5" y="-634.4" font-family="Times,serif" font-size="14.00">created_at :datetime</text>
<text text-anchor="start" x="243.5" y="-618.4" font-family="Times,serif" font-size="14.00">updated_at :datetime</text>
</g>
<!-- Project&#45;&gt;Scenario -->
<g id="edge28" class="edge"><title>Project&#45;&gt;Scenario</title>
<path fill="none" stroke="black" d="M334.901,-878.806C326.303,-819.538 315.696,-746.413 308.89,-699.499"/>
<polygon fill="black" stroke="black" points="334.907,-878.851 331.89,-889.394 335.625,-883.8 336.343,-888.748 336.343,-888.748 336.343,-888.748 335.625,-883.8 340.796,-888.102 334.907,-878.851 334.907,-878.851"/>
<ellipse fill="black" stroke="black" cx="308.281" cy="-695.3" rx="4.00001" ry="4.00001"/>
</g>
<!-- Project&#45;&gt;Segment -->
<g id="edge20" class="edge"><title>Project&#45;&gt;Segment</title>
<path fill="none" stroke="black" d="M251.417,-894.078C241.116,-881.101 232.168,-866.976 226,-852 166.76,-708.16 204.514,-521.37 232.943,-421.094"/>
<polygon fill="black" stroke="black" points="251.609,-894.309 254.529,-904.879 254.801,-898.158 257.993,-902.007 257.993,-902.007 257.993,-902.007 254.801,-898.158 261.457,-899.134 251.609,-894.309 251.609,-894.309"/>
<ellipse fill="black" stroke="black" cx="234.125" cy="-416.984" rx="4.00001" ry="4.00001"/>
</g>
<!-- Project&#45;&gt;User -->
<g id="edge18" class="edge"><title>Project&#45;&gt;User</title>
<path fill="none" stroke="black" d="M448.719,-888.141C448.813,-888.094 448.906,-888.047 449,-888 519.253,-852.894 558.668,-898.443 622,-852 622.501,-851.632 623.001,-851.262 623.498,-850.888"/>
<polygon fill="black" stroke="black" points="448.863,-888.063 437.926,-888.858 444.464,-890.44 440.066,-892.817 440.066,-892.817 440.066,-892.817 444.464,-890.44 442.205,-896.776 448.863,-888.063 448.863,-888.063"/>
<polygon fill="black" stroke="black" points="623.574,-850.828 634.197,-848.106 627.482,-847.708 631.389,-844.589 631.389,-844.589 631.389,-844.589 627.482,-847.708 628.582,-841.072 623.574,-850.828 623.574,-850.828"/>
</g>
<!-- Scenario&#45;&gt;Segment -->
<g id="edge34" class="edge"><title>Scenario&#45;&gt;Segment</title>
<path fill="none" stroke="black" d="M294.427,-600.611C287.022,-552.32 275.66,-478.217 267.209,-423.101"/>
<polygon fill="black" stroke="black" points="294.471,-600.896 291.538,-611.462 295.228,-605.838 295.986,-610.78 295.986,-610.78 295.986,-610.78 295.228,-605.838 300.434,-610.098 294.471,-600.896 294.471,-600.896"/>
<polygon fill="black" stroke="black" points="267.182,-422.926 270.114,-412.359 266.424,-417.983 265.666,-413.041 265.666,-413.041 265.666,-413.041 266.424,-417.983 261.218,-413.723 267.182,-422.926 267.182,-422.926"/>
</g>
<!-- SegmentInScenario -->
<g id="node14" class="node"><title>SegmentInScenario</title>
<polyline fill="none" stroke="black" points="228.5,-143 337.5,-143 "/>
<path fill="none" stroke="black" d="M337.5,-143C343.5,-143 349.5,-149 349.5,-155"/>
<polyline fill="none" stroke="black" points="349.5,-155 349.5,-211 "/>
<path fill="none" stroke="black" d="M349.5,-211C349.5,-217 343.5,-223 337.5,-223"/>
<polyline fill="none" stroke="black" points="337.5,-223 228.5,-223 "/>
<path fill="none" stroke="black" d="M228.5,-223C222.5,-223 216.5,-217 216.5,-211"/>
<polyline fill="none" stroke="black" points="216.5,-211 216.5,-155 "/>
<path fill="none" stroke="black" d="M216.5,-155C216.5,-149 222.5,-143 228.5,-143"/>
<text text-anchor="middle" x="283" y="-206.4" font-family="Times,serif" font-size="14.00">SegmentInScenario</text>
<polyline fill="none" stroke="black" points="216.5,-199 349.5,-199 "/>
<text text-anchor="start" x="224.5" y="-182.4" font-family="Times,serif" font-size="14.00">status :string</text>
<text text-anchor="start" x="224.5" y="-166.4" font-family="Times,serif" font-size="14.00">created_at :datetime</text>
<text text-anchor="start" x="224.5" y="-150.4" font-family="Times,serif" font-size="14.00">updated_at :datetime</text>
</g>
<!-- Scenario&#45;&gt;SegmentInScenario -->
<g id="edge32" class="edge"><title>Scenario&#45;&gt;SegmentInScenario</title>
<path fill="none" stroke="black" d="M318.13,-600.807C338.978,-529.717 369.321,-394.652 340,-284 335.073,-265.406 325.792,-246.657 316.129,-230.498"/>
<polygon fill="black" stroke="black" points="318,-601.242 310.82,-609.53 316.565,-606.031 315.131,-610.821 315.131,-610.821 315.131,-610.821 316.565,-606.031 319.442,-612.112 318,-601.242 318,-601.242"/>
<ellipse fill="black" stroke="black" cx="313.773" cy="-226.672" rx="4.00002" ry="4.00002"/>
</g>
<!-- Segment&#45;&gt;CountSession -->
<g id="edge36" class="edge"><title>Segment&#45;&gt;CountSession</title>
<path fill="none" stroke="black" d="M332.175,-277.816C341.83,-268.921 351.691,-259.835 361.29,-250.991"/>
<polygon fill="black" stroke="black" points="331.919,-278.052 321.516,-281.518 328.242,-281.44 324.565,-284.828 324.565,-284.828 324.565,-284.828 328.242,-281.44 327.614,-288.137 331.919,-278.052 331.919,-278.052"/>
<ellipse fill="black" stroke="black" cx="364.288" cy="-248.229" rx="4.00002" ry="4.00002"/>
</g>
<!-- Segment&#45;&gt;GeoPointOnSegment -->
<g id="edge40" class="edge"><title>Segment&#45;&gt;GeoPointOnSegment</title>
<path fill="none" stroke="black" d="M201.54,-276.548C184.744,-254.512 167.161,-231.444 153.751,-213.85"/>
<polygon fill="black" stroke="black" points="201.61,-276.64 204.093,-287.321 204.641,-280.617 207.672,-284.593 207.672,-284.593 207.672,-284.593 204.641,-280.617 211.251,-281.865 201.61,-276.64 201.61,-276.64"/>
<ellipse fill="black" stroke="black" cx="151.068" cy="-210.329" rx="4.00002" ry="4.00002"/>
</g>
<!-- Segment&#45;&gt;SegmentInScenario -->
<g id="edge38" class="edge"><title>Segment&#45;&gt;SegmentInScenario</title>
<path fill="none" stroke="black" d="M268.137,-274.28C270.545,-259.654 273.011,-244.673 275.225,-231.225"/>
<polygon fill="black" stroke="black" points="268.063,-274.726 261.999,-283.862 267.251,-279.66 266.439,-284.593 266.439,-284.593 266.439,-284.593 267.251,-279.66 270.879,-285.324 268.063,-274.726 268.063,-274.726"/>
<ellipse fill="black" stroke="black" cx="275.919" cy="-227.012" rx="4.00001" ry="4.00001"/>
</g>
<!-- User&#45;&gt;CountSession -->
<g id="edge44" class="edge"><title>User&#45;&gt;CountSession</title>
<path fill="none" stroke="black" d="M712.645,-440.809C698.796,-385.267 676.322,-328.448 640,-284 606.776,-243.344 553.005,-218.021 508.73,-203.032"/>
<polygon fill="black" stroke="black" points="712.709,-441.074 710.673,-451.849 713.879,-445.935 715.048,-450.797 715.048,-450.797 715.048,-450.797 713.879,-445.935 719.423,-449.744 712.709,-441.074 712.709,-441.074"/>
<ellipse fill="black" stroke="black" cx="504.664" cy="-201.694" rx="4.00001" ry="4.00001"/>
</g>
<!-- User&#45;&gt;ProjectMember -->
<g id="edge42" class="edge"><title>User&#45;&gt;ProjectMember</title>
<path fill="none" stroke="black" d="M626.363,-457.727C624.9,-455.135 623.445,-452.558 622,-450 615.139,-437.856 607.781,-424.9 600.709,-412.477"/>
<polygon fill="black" stroke="black" points="626.453,-457.887 627.447,-468.808 628.91,-462.242 631.366,-466.597 631.366,-466.597 631.366,-466.597 628.91,-462.242 635.286,-464.386 626.453,-457.887 626.453,-457.887"/>
<ellipse fill="black" stroke="black" cx="598.563" cy="-408.711" rx="4.00002" ry="4.00002"/>
</g>
</g>
</svg>
